<svg width="155" height="62" viewBox="0 0 155 62" fill="none" xmlns="http://www.w3.org/2000/svg">
<g clip-path="url(#clip0_154_638)">
<g clip-path="url(#clip1_154_638)">
<g clip-path="url(#clip2_154_638)">
<path d="M25.5614 15.7404C24.2611 15.9633 23.0966 16.7496 22.3475 17.921C21.9437 18.5533 21.7264 19.0923 21.5673 19.8665C21.4585 20.4137 21.4469 21.4148 21.5478 21.9052C21.7769 23.0239 22.4678 23.8548 23.4576 24.1993C23.6866 24.2763 23.8069 24.2925 24.2339 24.2925C24.6764 24.2885 24.7773 24.2763 25.053 24.179C25.3907 24.0615 25.7633 23.8305 26.0311 23.5751C26.4193 23.2023 26.8074 23.1333 27.3431 23.336C27.7973 23.5103 28.2203 23.567 28.6317 23.5062C30.2465 23.2711 31.2984 21.6661 30.984 19.9313C30.852 19.1977 30.6036 18.5614 30.2155 17.9493C29.4935 16.8186 28.4416 16.0646 27.1839 15.781C26.788 15.6877 25.9767 15.6675 25.5614 15.7404Z" fill="#333333" fill-opacity="0.6"/>
<path d="M58.1001 15.7402C56.5591 16.0036 55.2316 17.0452 54.5096 18.549C54.2185 19.1611 54.0244 19.9676 54.0244 20.5594C54.0283 22.3063 55.4605 23.7087 57.0365 23.51C57.2344 23.4817 57.5333 23.4087 57.7119 23.3399C58.2864 23.121 58.6124 23.1899 59.1092 23.6397C60.1806 24.6125 61.7837 24.5153 62.7812 23.4169C63.3674 22.7684 63.5964 22.0591 63.5886 20.8877C63.5769 19.4285 63.0724 18.1518 62.098 17.1385C61.4188 16.4292 60.658 15.9955 59.7109 15.7807C59.3188 15.6916 58.4998 15.6673 58.1001 15.7402Z" fill="#333333" fill-opacity="0.6"/>
<path d="M88.3931 16.2634C88.3274 16.2958 88.2221 16.389 88.16 16.4742L88.0475 16.6241L88.0358 25.4235C88.0286 31.6167 88.0358 34.3809 88.0673 34.7498C88.1987 36.371 88.6613 37.5425 89.5037 38.4179C90.3416 39.2853 91.3856 39.7433 92.9381 39.9216C93.3962 39.9702 94.9298 39.9459 95.2439 39.8811C95.4419 39.8405 95.5823 39.7393 95.7065 39.5528C95.7911 39.4191 95.7911 39.415 95.7911 37.7086C95.7911 36.0022 95.7911 35.9982 95.7065 35.8644C95.5202 35.5807 95.4689 35.5644 94.7318 35.5401C94.0874 35.5199 94.0568 35.5118 93.8624 35.4024C93.6644 35.2889 93.5168 35.1146 93.416 34.8714C93.3728 34.7742 93.362 33.0231 93.3458 25.7072L93.3269 16.6687L93.2216 16.5025C93.0281 16.1945 93.1172 16.2066 90.6791 16.2066C88.9439 16.2107 88.4903 16.2188 88.3931 16.2634Z" fill="#333333" fill-opacity="0.6"/>
<path d="M41.2739 16.474C38.8945 16.6645 37.1633 17.1752 35.8824 18.0709C34.9663 18.7113 34.3569 19.5544 34.1008 20.5231C34.027 20.8068 34.0153 20.9446 34.0192 21.6174C34.0231 22.4402 34.0697 22.7726 34.2909 23.5427C34.9973 25.9746 36.7791 28.1714 38.9489 29.2819C40.6839 30.1696 42.6829 30.3844 44.5499 29.8818C47.6203 29.0509 50.2831 26.0921 50.9624 22.7523C51.04 22.3754 51.0555 22.193 51.0516 21.5566C51.0516 20.6731 50.9973 20.4096 50.6906 19.753C49.8678 18.0061 47.8144 16.9238 44.612 16.5469C44.0958 16.4862 41.763 16.4375 41.2739 16.474Z" fill="#333333" fill-opacity="0.6"/>
<path d="M74.5005 22.2697C73.0875 22.4399 72.0938 22.7763 71.0885 23.4289C69.1598 24.6772 67.8674 26.874 67.4984 29.5248C66.9971 33.1118 68.2238 36.5854 70.6466 38.4458C71.912 39.4226 73.2782 39.909 74.9468 39.982C76.3634 40.0468 77.5784 39.7185 78.6341 38.993C79.0301 38.7215 79.7097 38.0243 79.9851 37.6149L80.1831 37.3191L80.1948 38.2432C80.2065 39.1227 80.211 39.1754 80.2956 39.3172C80.346 39.4024 80.4513 39.4996 80.5521 39.5483C80.7114 39.6294 80.7699 39.6334 82.9047 39.6334C85.0395 39.6334 85.0971 39.6294 85.2564 39.5483C85.3572 39.4996 85.4625 39.4024 85.5129 39.3172L85.602 39.1673V23.0722L85.4976 22.906C85.3032 22.5979 85.3968 22.6102 82.9083 22.6102C80.7771 22.6102 80.6844 22.6142 80.5404 22.6912C80.4549 22.7358 80.346 22.8371 80.3001 22.9222C80.211 23.0681 80.2065 23.1127 80.1948 23.9598L80.1831 24.8434L80.04 24.6489C78.9222 23.0965 77.1365 22.2291 75.1214 22.2494C74.846 22.2534 74.5671 22.2657 74.5005 22.2697ZM77.3462 26.8011C79.0418 27.1821 80.1489 28.6615 80.3037 30.757C80.3739 31.7297 80.2335 32.6336 79.9041 33.3672C79.6674 33.886 79.4766 34.1697 79.1121 34.5304C78.4092 35.2317 77.583 35.5518 76.4994 35.5478C75.5337 35.5397 74.7183 35.2033 74.0774 34.5386C73.4762 33.9184 73.0757 33.0875 72.9056 32.0945C72.8156 31.5757 72.8156 30.6192 72.9056 30.1084C73.2278 28.2278 74.3259 27.0119 75.9486 26.7443C76.251 26.6957 77.0042 26.7241 77.3462 26.8011Z" fill="#333333" fill-opacity="0.6"/>
<path d="M103.244 22.2899C100.907 22.5696 99.0442 23.749 97.7437 25.7716C96.0436 28.4183 95.8456 32.5606 97.2739 35.5599C98.3377 37.7892 100.247 39.3375 102.522 39.8157C104.47 40.2251 106.224 39.9333 107.583 38.9768C107.976 38.7012 108.546 38.1216 108.868 37.6717L109.124 37.315L109.144 38.2675C109.163 39.3132 109.167 39.3253 109.431 39.528C109.535 39.6131 109.582 39.6131 111.787 39.6253C113.969 39.6334 114.038 39.6334 114.186 39.5523C114.271 39.5078 114.38 39.4145 114.431 39.3415L114.52 39.2078V23.0276L114.407 22.8776C114.206 22.5979 114.283 22.6061 111.783 22.6183C109.582 22.6304 109.535 22.6304 109.431 22.7155C109.167 22.9181 109.163 22.9343 109.144 23.9355L109.124 24.8515L108.841 24.4827C108.104 23.518 107.016 22.7925 105.818 22.4682C105.076 22.2656 104.044 22.1967 103.244 22.2899ZM105.957 26.7443C106.523 26.8213 107.11 27.0524 107.591 27.3928C107.89 27.6036 108.391 28.1711 108.589 28.5196C109.396 29.9382 109.478 32.0458 108.783 33.4929C108.216 34.6764 107.156 35.4181 105.868 35.5356C105.15 35.6005 104.529 35.4951 103.95 35.2113C102.782 34.644 102.017 33.4604 101.812 31.9121C101.75 31.4663 101.761 30.5949 101.827 30.149C101.986 29.1397 102.49 28.1264 103.111 27.5752C103.888 26.8862 104.863 26.6025 105.957 26.7443Z" fill="#333333" fill-opacity="0.6"/>
<path d="M126.25 22.3064C124.693 22.5374 123.466 23.2872 122.581 24.5477L122.399 24.8072L122.38 23.9398C122.356 22.9832 122.34 22.9062 122.1 22.7239L121.972 22.6306L119.709 22.6185L117.446 22.6104L117.29 22.6995C117.206 22.7482 117.097 22.8536 117.05 22.9346L116.964 23.0765L116.953 30.9801C116.946 36.5856 116.953 38.9446 116.984 39.0905C117.03 39.3134 117.189 39.512 117.384 39.589C117.458 39.6173 118.23 39.6336 119.67 39.6336C121.797 39.6336 121.855 39.6296 122.014 39.5485C122.115 39.4998 122.22 39.4026 122.271 39.3174L122.36 39.1675L122.38 34.324C122.402 29.602 122.402 29.4723 122.484 29.1157C122.714 28.07 123.152 27.3971 123.827 27.0445C124.488 26.6959 125.438 26.6959 126.109 27.0486C126.789 27.4093 127.27 28.2037 127.487 29.3427C127.549 29.6466 127.557 30.1857 127.577 34.4537C127.6 39.1878 127.6 39.2242 127.682 39.3336C127.724 39.3945 127.809 39.4836 127.868 39.5282C127.972 39.6133 128.012 39.6133 130.275 39.6133H132.577L132.72 39.4957C133 39.2769 132.98 39.666 132.965 33.8862C132.953 30.1735 132.938 28.5725 132.906 28.3253C132.759 27.2472 132.572 26.4041 132.332 25.7597C131.598 23.8141 130.337 22.7076 128.447 22.3469C127.969 22.2536 126.742 22.2334 126.25 22.3064Z" fill="#333333" fill-opacity="0.6"/>
<path d="M35.5454 32.8649C34.5167 33.0312 34.0471 33.7283 34.2411 34.7943C34.4586 35.994 35.2659 37.0316 36.8108 38.1016C38.4488 39.2365 40.343 39.8972 42.2178 39.9823C44.5545 40.0918 47.2988 39.0582 49.2512 37.3356C50.144 36.5452 50.6447 35.7427 50.8233 34.8145C51.0639 33.5864 50.4002 32.8366 49.096 32.8528C48.5564 32.8568 48.1062 32.9582 46.9146 33.327C45.7734 33.6837 45.6064 33.7243 44.9039 33.8337C43.9917 33.9755 43.4755 34.012 42.5361 34.012C41.6046 34.012 41.0882 33.9755 40.1761 33.8337C39.493 33.7324 39.3144 33.6877 38.1615 33.327C36.7914 32.9014 36.0888 32.7758 35.5454 32.8649Z" fill="#333333" fill-opacity="0.6"/>
</g>
</g>
</g>
<defs>
<clipPath id="clip0_154_638">
<rect width="154.296" height="61.992" fill="white" transform="translate(0.130859)"/>
</clipPath>
<clipPath id="clip1_154_638">
<rect width="154.296" height="61.992" fill="white" transform="translate(0.130859)"/>
</clipPath>
<clipPath id="clip2_154_638">
<rect width="201.6" height="81.0001" fill="white" transform="translate(-23.5215 -9.50391)"/>
</clipPath>
</defs>
</svg>
