<svg width="155" height="62" viewBox="0 0 155 62" fill="none" xmlns="http://www.w3.org/2000/svg">
<g clip-path="url(#clip0_154_630)">
<g clip-path="url(#clip1_154_630)">
<path d="M121.201 39.9949C127.969 39.9949 133.454 34.3537 133.454 27.3949C133.454 20.4361 127.969 14.7949 121.201 14.7949C114.434 14.7949 108.946 20.4361 108.946 27.3949C108.946 34.3537 114.434 39.9949 121.201 39.9949Z" fill="#333333" fill-opacity="0.6"/>
<path d="M21.7952 28.8713C21.834 27.6465 22.1349 26.5521 22.6979 25.5883C23.2803 24.6045 24.0373 23.8314 24.9691 23.2693C25.9203 22.7071 26.9588 22.426 28.0848 22.426C29.0748 22.426 29.8223 22.5766 30.3269 22.8778C30.8511 23.1789 31.0452 23.5905 30.9093 24.1126C30.8511 24.3937 30.7249 24.5945 30.5308 24.7149C30.3561 24.8354 30.1425 24.8957 29.8901 24.8957C29.6572 24.8957 29.3855 24.8756 29.0748 24.8354C27.9295 24.6948 26.9103 24.7752 26.0173 25.0763C25.1438 25.3575 24.4449 25.8293 23.9208 26.4919C23.3967 27.1545 23.1346 27.9476 23.1346 28.8713H21.7952ZM21.9408 39.0812C21.5525 39.0812 21.2516 38.9709 21.0381 38.7499C20.8245 38.5291 20.7178 38.2179 20.7178 37.8163V23.8717C20.7178 23.47 20.8245 23.1589 21.0381 22.9379C21.2516 22.7171 21.5525 22.6067 21.9408 22.6067C22.329 22.6067 22.6202 22.7171 22.8143 22.9379C23.0278 23.1589 23.1346 23.47 23.1346 23.8717V37.8163C23.1346 38.2179 23.0278 38.5291 22.8143 38.7499C22.6202 38.9709 22.329 39.0812 21.9408 39.0812ZM40.4532 39.2318C38.8613 39.2318 37.454 38.8804 36.2311 38.1777C35.0081 37.4548 34.0471 36.461 33.3483 35.196C32.6494 33.9311 32.3001 32.4854 32.3001 30.859C32.3001 29.2126 32.63 27.7669 33.2901 26.522C33.95 25.257 34.8527 24.2632 35.9981 23.5404C37.1629 22.8175 38.5023 22.4561 40.0164 22.4561C41.4918 22.4561 42.773 22.8074 43.8601 23.5102C44.9666 24.1929 45.8111 25.1466 46.3935 26.3714C46.9952 27.5962 47.2961 28.9917 47.2961 30.5578C47.2961 30.8992 47.1893 31.1802 46.9758 31.4011C46.7623 31.6019 46.4905 31.7023 46.1605 31.7023H33.9889V29.6242H46.3061L45.054 30.5277C45.0734 29.4234 44.8793 28.4295 44.4717 27.546C44.064 26.6626 43.4816 25.9698 42.7245 25.4679C41.9674 24.9659 41.0647 24.7149 40.0164 24.7149C38.91 24.7149 37.9393 24.976 37.1046 25.4981C36.2893 26.0201 35.6582 26.7529 35.2118 27.6966C34.7847 28.6202 34.5713 29.6742 34.5713 30.859C34.5713 32.0437 34.8236 33.0978 35.3284 34.0213C35.833 34.945 36.5222 35.6678 37.3958 36.1899C38.2888 36.712 39.3078 36.973 40.4532 36.973C41.1132 36.973 41.783 36.8525 42.4624 36.6115C43.1613 36.3706 43.7146 36.0695 44.1222 35.708C44.3551 35.5273 44.6172 35.4369 44.9084 35.4369C45.2189 35.4169 45.4712 35.4972 45.6654 35.678C45.9567 35.9389 46.1022 36.22 46.1022 36.5212C46.1216 36.8224 45.9954 37.0833 45.7238 37.3043C45.0831 37.8664 44.2677 38.3283 43.2777 38.6897C42.2877 39.0512 41.3461 39.2318 40.4532 39.2318ZM57.6529 39.2318C56.1194 39.2318 54.7508 38.8704 53.5472 38.1476C52.3437 37.4047 51.3924 36.4007 50.6936 35.1357C50.0142 33.8708 49.6744 32.4452 49.6744 30.859C49.6744 29.2527 50.0044 27.8171 50.6644 26.5521C51.3439 25.2872 52.2563 24.2933 53.4017 23.5704C54.5663 22.8275 55.9057 22.4561 57.42 22.4561C58.5847 22.4561 59.6621 22.697 60.6521 23.1789C61.6421 23.6407 62.5157 24.3434 63.2728 25.2872C63.5058 25.5683 63.5835 25.8594 63.5058 26.1606C63.4475 26.4417 63.2728 26.6926 62.9816 26.9136C62.7487 27.0741 62.4866 27.1344 62.1955 27.0943C61.9238 27.034 61.6713 26.8734 61.4383 26.6124C60.3707 25.3676 59.0312 24.7451 57.42 24.7451C56.3523 24.7451 55.4108 25.0061 54.5954 25.5281C53.7996 26.0501 53.1784 26.773 52.7319 27.6966C52.2855 28.6002 52.0621 29.6543 52.0621 30.859C52.0621 32.0235 52.2951 33.0677 52.7609 33.9913C53.2464 34.8948 53.9063 35.6177 54.741 36.1597C55.5952 36.6819 56.566 36.9428 57.6529 36.9428C58.3906 36.9428 59.0506 36.8424 59.633 36.6416C60.2349 36.441 60.7686 36.1297 61.2345 35.708C61.5063 35.4871 61.7781 35.3666 62.0499 35.3466C62.3216 35.3266 62.574 35.4068 62.8069 35.5875C63.0594 35.8285 63.205 36.0995 63.2437 36.4007C63.2826 36.7019 63.1855 36.973 62.9525 37.2139C61.5354 38.5591 59.769 39.2318 57.6529 39.2318ZM91.1239 39.0812C90.3085 39.0812 89.5903 38.8603 88.9693 38.4186C88.3474 37.9568 87.8623 37.3243 87.5131 36.5212C87.1639 35.7181 86.9893 34.7944 86.9893 33.7503V16.824C86.9893 16.4425 87.0955 16.1414 87.3088 15.9205C87.5419 15.6795 87.8425 15.5591 88.2115 15.5591C88.5616 15.5591 88.8424 15.6795 89.0566 15.9205C89.2897 16.1414 89.4058 16.4425 89.4058 16.824V33.7503C89.4058 34.5737 89.5606 35.2562 89.872 35.7984C90.2014 36.3205 90.619 36.5815 91.1239 36.5815H91.852C92.1625 36.5815 92.4145 36.7019 92.6089 36.9428C92.8033 37.1637 92.8996 37.4548 92.8996 37.8163C92.8996 38.1977 92.7547 38.5089 92.4631 38.7499C92.1913 38.9709 91.8322 39.0812 91.3858 39.0812H91.1239ZM99.5119 39.0812C98.6974 39.0812 97.9792 38.8603 97.3582 38.4186C96.7363 37.9568 96.2512 37.3243 95.902 36.5212C95.5519 35.7181 95.3773 34.7944 95.3773 33.7503V16.824C95.3773 16.4425 95.4844 16.1414 95.6977 15.9205C95.9308 15.6795 96.2314 15.5591 96.6004 15.5591C96.9496 15.5591 97.2313 15.6795 97.4455 15.9205C97.6777 16.1414 97.7947 16.4425 97.7947 16.824V33.7503C97.7947 34.5737 97.9495 35.2562 98.26 35.7984C98.5903 36.3205 99.0079 36.5815 99.5119 36.5815H100.241C100.551 36.5815 100.803 36.7019 100.997 36.9428C101.192 37.1637 101.289 37.4548 101.289 37.8163C101.289 38.1977 101.143 38.5089 100.852 38.7499C100.58 38.9709 100.221 39.0812 99.7738 39.0812H99.5119Z" fill="#333333" fill-opacity="0.6"/>
<path fill-rule="evenodd" clip-rule="evenodd" d="M74.7942 39.2313C73.3191 39.2313 71.9988 38.8699 70.8342 38.147C69.6696 37.4042 68.7471 36.4001 68.0676 35.1351C67.389 33.8702 67.0488 32.4445 67.0488 30.8585C67.0488 29.2522 67.398 27.8167 68.0973 26.5517C68.8155 25.2868 69.7857 24.2928 71.0088 23.5699C72.2319 22.8269 73.6098 22.4556 75.1434 22.4556C76.6581 22.4556 78.0171 22.8269 79.2204 23.5699C80.4435 24.2928 81.4047 25.2868 82.1031 26.5517C82.8213 27.8167 83.1903 29.2522 83.2101 30.8585V37.8157C83.2101 38.1972 83.0931 38.5083 82.86 38.7494C82.6269 38.9703 82.3263 39.0806 81.9573 39.0806C81.6081 39.0806 81.3075 38.9703 81.0546 38.7494C80.8215 38.5083 80.7054 38.1972 80.7054 37.8157V36.217C80.2932 36.8601 79.1169 37.8118 78.5796 38.2072C77.4735 38.8898 76.2117 39.2313 74.7942 39.2313ZM78.0261 36.1368C77.1918 36.6591 76.2306 36.9199 75.1434 36.9199C74.076 36.9199 73.1058 36.6591 72.2319 36.1368C71.3778 35.5948 70.6983 34.8619 70.1934 33.9382C69.6894 33.0146 69.4365 31.9807 69.4365 30.8362C69.4365 29.6717 69.6894 28.6376 70.1934 27.7341C70.6983 26.8105 71.3778 26.0776 72.2319 25.5353C73.1058 24.9933 74.076 24.7222 75.1434 24.7222C76.2306 24.7222 77.1918 24.9933 78.0261 25.5353C78.8811 26.0776 79.5507 26.8105 80.0358 27.7341C80.5407 28.6376 80.7927 29.6717 80.7927 30.8362C80.7927 31.9807 80.5407 33.0146 80.0358 33.9382C79.5507 34.8619 78.8811 35.5948 78.0261 36.1368Z" fill="#333333" fill-opacity="0.6"/>
</g>
</g>
<defs>
<clipPath id="clip0_154_630">
<rect width="154.278" height="61.974" fill="white" transform="translate(0.27832 0.00878906)"/>
</clipPath>
<clipPath id="clip1_154_630">
<rect width="201.6" height="81.0001" fill="white" transform="translate(-23.3818 -9.50488)"/>
</clipPath>
</defs>
</svg>
