<svg width="155" height="62" viewBox="0 0 155 62" fill="none" xmlns="http://www.w3.org/2000/svg">
<g clip-path="url(#clip0_154_626)">
<g clip-path="url(#clip1_154_626)">
<g clip-path="url(#clip2_154_626)">
<path d="M70.7475 26.5352C71.6412 27.4579 72.0885 28.9348 72.0885 30.9658V38.3H69.3606V30.99C69.3606 29.8607 69.132 28.9977 68.6748 28.4008C68.2185 27.804 67.5417 27.5079 66.6462 27.5128C66.2212 27.4942 65.7976 27.575 65.4091 27.7489C65.0206 27.9228 64.6777 28.1848 64.4076 28.5146C63.8575 29.1856 63.5833 30.1044 63.5849 31.2707V38.3H60.8299V30.99C60.8299 29.8414 60.5983 28.9743 60.1352 28.3888C59.672 27.8031 58.9925 27.5112 58.0967 27.5128C57.6716 27.4971 57.2491 27.5835 56.8639 27.7644C56.4788 27.9453 56.1422 28.2158 55.8821 28.5533C55.3385 29.2469 55.0667 30.1809 55.0667 31.3554V38.3H52.3262V25.306H54.7049L55.0088 26.9998C55.4472 26.4081 56.021 25.9309 56.6819 25.6083C57.3427 25.2858 58.0712 25.1273 58.8059 25.1463C59.6472 25.1271 60.4789 25.329 61.2184 25.7319C61.9257 26.1375 62.4846 26.76 62.813 27.5079C63.2506 26.7807 63.8701 26.181 64.6102 25.7682C65.4365 25.3337 66.36 25.1196 67.2924 25.1463C68.7117 25.1463 69.8673 25.6077 70.7592 26.5304" fill="#333333" fill-opacity="0.6"/>
<path d="M74.384 28.3135C74.8871 27.3356 75.6602 26.524 76.6106 25.976C77.6114 25.4141 78.7427 25.1294 79.8893 25.1509C81.0359 25.1273 82.1708 25.3892 83.1923 25.9131C84.1292 26.4061 84.9095 27.1542 85.4432 28.0716C86.0102 29.0715 86.3036 30.2046 86.2919 31.3551C86.291 31.7033 86.2649 32.051 86.2145 32.3956H76.4468V32.5481C76.508 33.6773 76.8599 34.5702 77.5034 35.2267C78.1469 35.8833 78.9983 36.2131 80.0585 36.2164C80.8109 36.2425 81.5534 36.0346 82.1834 35.6211C82.7612 35.2192 83.1671 34.6148 83.3219 33.9273H86.0552C85.841 35.2103 85.1606 36.3679 84.1445 37.177C83.1077 38.0239 81.8126 38.4474 80.261 38.4474C79.0334 38.4764 77.8193 38.1925 76.7312 37.6223C75.7466 37.0906 74.9375 36.2836 74.4011 35.2993C73.8413 34.2339 73.5605 33.0432 73.5857 31.8391C73.5596 30.6198 73.8341 29.413 74.384 28.3256M83.5082 30.3872C83.4344 29.5282 83.0303 28.7316 82.3814 28.1659C81.7064 27.6191 80.8577 27.3355 79.991 27.3674C79.1441 27.3504 78.3206 27.6438 77.6744 28.1925C77.3504 28.465 77.0831 28.7992 76.8878 29.176C76.6934 29.5526 76.5746 29.9643 76.5386 30.3872H83.5082Z" fill="#333333" fill-opacity="0.6"/>
<path d="M87.9893 21.6768H90.7496V25.3064H93.8609V27.7261H90.7496V34.5014C90.7496 35.0095 90.8504 35.3677 91.0529 35.5806C91.2554 35.7935 91.601 35.8976 92.0906 35.8976H94.1651V38.3173H91.5335C90.2996 38.3173 89.4014 38.0294 88.8389 37.4535C88.2755 36.8776 87.9929 35.9904 87.9893 34.7917V21.6768Z" fill="#333333" fill-opacity="0.6"/>
<path d="M105.729 26.5743C106.694 27.5228 107.176 29.0457 107.176 31.1428V38.3028H104.44V31.2855C104.44 30.0514 104.175 29.1126 103.644 28.469C103.113 27.8253 102.341 27.5026 101.328 27.501C100.845 27.4787 100.365 27.5692 99.923 27.7653C99.4811 27.9614 99.0914 28.2578 98.7827 28.6311C98.1689 29.3828 97.862 30.4112 97.862 31.7163V38.3028H95.126V21.6768H97.862V27.184C98.8394 25.829 100.197 25.1515 101.936 25.1515C103.486 25.1515 104.747 25.6258 105.719 26.5743" fill="#333333" fill-opacity="0.6"/>
<path d="M111.817 37.6301C110.829 37.0963 110.02 36.2836 109.488 35.2926C108.923 34.2186 108.64 33.0176 108.666 31.8034C108.641 30.5969 108.925 29.4042 109.488 28.3383C110.021 27.3459 110.83 26.5303 111.817 25.9912C112.885 25.4393 114.069 25.1514 115.271 25.1514C116.473 25.1514 117.658 25.4393 118.726 25.9912C119.712 26.5303 120.521 27.3459 121.053 28.3383C121.617 29.4047 121.899 30.5971 121.877 31.8034C121.901 33.0176 121.618 34.2182 121.053 35.2926C120.522 36.2836 119.713 37.0963 118.726 37.6301C117.654 38.171 116.47 38.4527 115.271 38.4527C114.071 38.4527 112.888 38.171 111.817 37.6301ZM118.043 34.9127C118.743 34.1061 119.092 33.0697 119.092 31.8034C119.092 30.537 118.743 29.5005 118.043 28.6939C117.7 28.2979 117.273 27.9838 116.794 27.7744C116.314 27.5651 115.794 27.4659 115.271 27.4841C114.75 27.4645 114.231 27.5632 113.753 27.7727C113.275 27.9821 112.851 28.297 112.511 28.6939C111.821 29.5005 111.475 30.537 111.474 31.8034C111.473 33.0697 111.818 34.1061 112.511 34.9127C112.851 35.3096 113.275 35.6245 113.753 35.834C114.231 36.0434 114.75 36.1421 115.271 36.1226C115.794 36.141 116.314 36.0419 116.794 35.8326C117.273 35.6232 117.7 35.309 118.043 34.9127Z" fill="#333333" fill-opacity="0.6"/>
<path d="M136.176 21.6763L136.151 38.3048H133.773L133.442 36.3496C132.415 37.7531 131.005 38.4548 129.215 38.4548C128.109 38.47 127.017 38.1912 126.053 37.6466C125.118 37.1068 124.363 36.3031 123.882 35.3357C123.338 34.2393 123.069 33.0268 123.098 31.8029C123.073 30.591 123.346 29.3916 123.893 28.3112C124.39 27.3424 125.149 26.5332 126.082 25.9761C127.034 25.4207 128.117 25.1355 129.218 25.151C130.074 25.1315 130.922 25.3104 131.698 25.6736C132.382 25.9989 132.975 26.4914 133.42 27.1061L133.444 21.6738L136.176 21.6763ZM132.405 34.951C133.098 34.154 133.443 33.1217 133.442 31.8536C133.442 30.5486 133.096 29.4953 132.405 28.6935C132.057 28.3138 131.634 28.0106 131.164 27.8031C130.694 27.5957 130.185 27.4886 129.671 27.4886C129.157 27.4886 128.649 27.5957 128.178 27.8031C127.709 28.0106 127.285 28.3138 126.938 28.6935C126.245 29.5001 125.9 30.5365 125.901 31.8029C125.901 33.0902 126.246 34.1331 126.938 34.9486C127.286 35.3267 127.709 35.6284 128.18 35.8347C128.65 36.0411 129.158 36.1476 129.671 36.1476C130.185 36.1476 130.693 36.0411 131.163 35.8347C131.633 35.6284 132.056 35.3267 132.405 34.9486" fill="#333333" fill-opacity="0.6"/>
<path d="M45.5836 26.9322C45.5901 28.1209 45.2806 29.2898 44.687 30.3186C44.0933 31.3474 43.2371 32.199 42.2063 32.7856L39.1449 34.569L33.1139 38.109L31.775 35.8102L37.8037 32.2653L40.8867 30.4795C41.508 30.1201 42.0239 29.6029 42.3826 28.98C42.7412 28.3571 42.9302 27.6504 42.9302 26.931C42.9302 26.2116 42.7412 25.505 42.3826 24.882C42.0239 24.2591 41.508 23.7419 40.8867 23.3824L34.7303 19.8181C34.233 19.5242 33.6784 19.3414 33.1042 19.2821C32.5301 19.2228 31.9501 19.2884 31.4035 19.4745C30.8512 19.6576 30.344 19.9563 29.9156 20.3509C29.4872 20.7456 29.1474 21.2272 28.9187 21.7637C28.9018 21.8024 28.8874 21.8386 28.8729 21.8773L28.733 21.7975C28.0069 21.3773 27.2093 21.0959 26.3809 20.9675C26.4074 20.8877 26.4387 20.8079 26.4726 20.7256C26.848 19.8417 27.4065 19.0481 28.111 18.3972C28.8156 17.7464 29.6501 17.2534 30.5592 16.9507C31.4619 16.6421 32.4204 16.5325 33.3692 16.6294C34.3181 16.7263 35.2349 17.0274 36.057 17.5121L42.2135 21.0764C43.243 21.6646 44.0977 22.517 44.69 23.546C45.2823 24.5752 45.5907 25.7439 45.5836 26.9322Z" fill="#333333" fill-opacity="0.6"/>
<path d="M37.9028 27.0337L36.5953 29.3494L30.5015 25.8844L27.4136 24.0962C26.791 23.737 26.0849 23.5489 25.3666 23.5508C24.6484 23.5527 23.9434 23.7446 23.3226 24.1071C22.7019 24.4695 22.1874 24.9898 21.8312 25.6154C21.4748 26.241 21.2894 26.9498 21.2933 27.6701L21.3127 34.8012C21.3094 35.3801 21.4306 35.9529 21.6679 36.4808C21.9051 37.0085 22.253 37.4789 22.6877 37.8597C23.1237 38.2456 23.6366 38.534 24.1923 38.7059C24.748 38.8777 25.3337 38.9291 25.9107 38.8567H25.9493C25.9734 39.7543 26.1768 40.638 26.5476 41.4554C26.4487 41.4723 26.3498 41.4894 26.2484 41.5014C25.9684 41.5371 25.6864 41.555 25.4041 41.5547C23.7593 41.552 22.1716 40.9501 20.9363 39.8608C20.2168 39.2324 19.641 38.4558 19.248 37.5839C18.8549 36.712 18.6541 35.7653 18.659 34.8084L18.6397 27.6774C18.6371 26.491 18.9457 25.3248 19.5345 24.2959C20.1235 23.267 20.972 22.4117 21.9948 21.8159C23.0176 21.2201 24.1787 20.9046 25.3616 20.9014C26.5444 20.8982 27.7072 21.2072 28.7333 21.7974L31.8163 23.5712L37.9028 27.0337Z" fill="#333333" fill-opacity="0.6"/>
<path d="M45.4521 36.4757C45.2635 37.4134 44.8756 38.2993 44.3148 39.0731C43.7541 39.8468 43.0336 40.4902 42.2026 40.9595L36.0341 44.502C35.0076 45.0914 33.8446 45.3994 32.662 45.3953C31.4793 45.3911 30.3184 45.0748 29.2961 44.4783C28.2738 43.8818 27.426 43.0259 26.8379 41.9966C26.2497 40.9674 25.9419 39.8011 25.9453 38.6148V28.0332H28.599V38.6196C28.5959 39.3392 28.7819 40.0468 29.1381 40.6714C29.4943 41.2959 30.0082 41.8154 30.6281 42.1774C31.2481 42.5394 31.9521 42.7313 32.6695 42.7337C33.3868 42.7362 34.0921 42.549 34.7145 42.1912L40.883 38.651C41.3863 38.3675 41.8227 37.9784 42.1624 37.5103C42.5021 37.0421 42.7372 36.5061 42.8516 35.9385C42.9654 35.3966 42.969 34.837 42.8621 34.2935C42.7551 33.7501 42.5398 33.2339 42.2291 32.7759C43.0057 32.3276 43.6855 31.7288 44.229 31.0144L44.2484 31.0337C44.8223 31.8033 45.2265 32.6866 45.434 33.6248C45.6416 34.5631 45.6478 35.5349 45.4521 36.4757Z" fill="#333333" fill-opacity="0.6"/>
</g>
</g>
</g>
<defs>
<clipPath id="clip0_154_626">
<rect width="154.278" height="61.974" fill="white" transform="translate(0 0.00878906)"/>
</clipPath>
<clipPath id="clip1_154_626">
<rect width="154.278" height="61.974" fill="white" transform="translate(0 0.00878906)"/>
</clipPath>
<clipPath id="clip2_154_626">
<rect width="201.6" height="81.0001" fill="white" transform="translate(-23.6602 -9.50488)"/>
</clipPath>
</defs>
</svg>
