<svg width="155" height="62" viewBox="0 0 155 62" fill="none" xmlns="http://www.w3.org/2000/svg">
<g clip-path="url(#clip0_154_633)">
<g clip-path="url(#clip1_154_633)">
<path d="M25.4761 37.0225C26.4956 37.0225 27.2826 36.5932 27.837 35.7347C28.4094 34.8761 28.6956 33.7404 28.6956 32.3274C28.6956 30.9144 28.4094 29.7786 27.837 28.9201C27.2826 28.0437 26.4956 27.6054 25.4761 27.6054C24.4565 27.6054 23.6339 28.0257 23.0078 28.8663C22.3997 29.707 22.0956 30.8517 22.0956 32.3006C22.0956 33.7851 22.3997 34.9476 23.0078 35.7883C23.6339 36.6111 24.4565 37.0225 25.4761 37.0225ZM18.5273 39.5176V20.0664H22.2298V26.9347C22.6232 26.255 23.1866 25.7273 23.92 25.3517C24.6533 24.9583 25.4761 24.7615 26.3883 24.7615C27.2826 24.7615 28.1053 24.9404 28.8566 25.2981C29.6257 25.6558 30.2786 26.1655 30.8151 26.8274C31.3696 27.4892 31.7988 28.285 32.103 29.2152C32.4249 30.1452 32.5859 31.1737 32.5859 32.3006C32.5859 33.4631 32.4249 34.5094 32.103 35.4396C31.7988 36.3696 31.3696 37.1656 30.8151 37.8274C30.2607 38.4712 29.5989 38.9721 28.8297 39.3298C28.0785 39.6875 27.2647 39.8664 26.3883 39.8664C25.6371 39.8664 24.8679 39.7054 24.081 39.3835C23.3118 39.0615 22.6948 38.4981 22.2298 37.6932V39.5176H18.5273Z" fill="#333333" fill-opacity="0.6"/>
<path d="M42.5237 32.9178C41.4864 33.0251 40.601 33.1414 39.8677 33.2666C39.1344 33.3918 38.5351 33.5528 38.0701 33.7495C37.6051 33.9283 37.2652 34.1609 37.0506 34.4471C36.836 34.7154 36.7286 35.0462 36.7286 35.4398C36.7286 35.9585 36.9344 36.4056 37.3458 36.7812C37.7571 37.1568 38.3831 37.3446 39.2238 37.3446C40.3864 37.3446 41.227 37.0227 41.7457 36.3788C42.2645 35.7349 42.5237 34.8227 42.5237 33.6422V32.9178ZM42.819 37.6666C42.3002 38.4357 41.6563 38.9991 40.8872 39.3569C40.136 39.6967 39.2148 39.8666 38.1238 39.8666C37.4262 39.8666 36.7645 39.7683 36.1384 39.5714C35.5124 39.3747 34.9579 39.0975 34.475 38.7397C34.0099 38.3821 33.6344 37.9439 33.3482 37.4251C33.062 36.8885 32.9189 36.2983 32.9189 35.6544C32.9189 34.7958 33.1425 34.0804 33.5896 33.508C34.0547 32.9178 34.6986 32.4349 35.5214 32.0593C36.362 31.6836 37.3636 31.3796 38.5262 31.1471C39.7068 30.9146 41.0035 30.7178 42.4165 30.5568V30.2886C42.4165 29.7341 42.3449 29.269 42.2018 28.8934C42.0587 28.4999 41.862 28.1869 41.6116 27.9544C41.379 27.7218 41.0929 27.5609 40.7531 27.4715C40.4132 27.3642 40.0466 27.3105 39.653 27.3105C38.8481 27.3105 38.1775 27.4983 37.6409 27.8739C37.1221 28.2495 36.8449 28.8397 36.8091 29.6446H33.3482C33.4197 28.9292 33.6164 28.2763 33.9384 27.6861C34.2782 27.078 34.7254 26.5592 35.2799 26.13C35.8522 25.6828 36.514 25.334 37.2652 25.0837C38.0344 24.8333 38.875 24.708 39.7872 24.708C40.6815 24.708 41.5132 24.8154 42.2823 25.03C43.0514 25.2268 43.7222 25.5666 44.2945 26.0495C44.8669 26.5324 45.314 27.1853 45.636 28.008C45.958 28.8129 46.1189 29.8235 46.1189 31.0398C46.1189 31.1471 46.11 31.3438 46.0921 31.63C46.0921 31.8983 46.0921 32.2113 46.0921 32.5691C46.0921 32.9267 46.0832 33.3024 46.0653 33.6959C46.0653 34.0714 46.0653 34.4203 46.0653 34.7422C46.0653 35.8869 46.101 36.817 46.1725 37.5325C46.2441 38.2479 46.3515 38.9097 46.4946 39.5178H43.0872C43.0335 39.2853 42.9799 39.008 42.9262 38.6861C42.8905 38.3642 42.8547 38.0243 42.819 37.6666Z" fill="#333333" fill-opacity="0.6"/>
<path d="M65.6233 31.1202C65.6233 30.7267 65.6055 30.3333 65.5696 29.9397C65.5339 29.5284 65.4355 29.1616 65.2745 28.8397C65.1314 28.5178 64.899 28.2584 64.5769 28.0617C64.2729 27.847 63.8526 27.7397 63.316 27.7397C62.69 27.7397 62.1891 27.8649 61.8136 28.1153C61.4379 28.3479 61.1518 28.6609 60.9551 29.0544C60.7582 29.4478 60.6241 29.904 60.5526 30.4226C60.481 30.9235 60.4453 31.4512 60.4453 32.0056V39.5178H56.7428V31.1202C56.7428 30.7267 56.725 30.3333 56.6892 29.9397C56.6534 29.5284 56.5551 29.1616 56.394 28.8397C56.2509 28.5178 56.0185 28.2584 55.6965 28.0617C55.3924 27.847 54.9721 27.7397 54.4355 27.7397C53.8095 27.7397 53.3087 27.8649 52.9331 28.1153C52.5574 28.3479 52.2713 28.6609 52.0745 29.0544C51.8778 29.4478 51.7436 29.904 51.6721 30.4226C51.6005 30.9235 51.5647 31.4512 51.5647 32.0056V39.5178H47.8623V25.0836H51.5647V26.9885C51.9761 26.2731 52.5306 25.7275 53.2282 25.3519C53.9258 24.9585 54.7128 24.7617 55.5892 24.7617C56.1973 24.7617 56.725 24.8422 57.1721 25.0032C57.6371 25.1462 58.0306 25.334 58.3526 25.5666C58.6746 25.7812 58.9428 26.0316 59.1575 26.3178C59.3721 26.5861 59.551 26.8544 59.6941 27.1227C60.2664 26.3178 60.9282 25.7275 61.6794 25.3519C62.4306 24.9585 63.3518 24.7617 64.4428 24.7617C65.355 24.7617 66.1152 24.8958 66.7234 25.1641C67.3492 25.4324 67.8505 25.817 68.2258 26.3178C68.6191 26.8186 68.8963 27.4178 69.0574 28.1153C69.2365 28.795 69.3256 29.5641 69.3256 30.4226V39.5178H65.6233V31.1202Z" fill="#333333" fill-opacity="0.6"/>
<path d="M78.0436 37.0225C79.0633 37.0225 79.8499 36.5932 80.4043 35.7347C80.9767 34.8761 81.2629 33.7404 81.2629 32.3274C81.2629 30.9144 80.9767 29.7786 80.4043 28.9201C79.8499 28.0437 79.0633 27.6054 78.0436 27.6054C77.0239 27.6054 76.2013 28.0257 75.5749 28.8663C74.9674 29.707 74.6632 30.8517 74.6632 32.3006C74.6632 33.7851 74.9674 34.9476 75.5749 35.7883C76.2013 36.6111 77.0239 37.0225 78.0436 37.0225ZM71.0947 39.5176V20.0664H74.7973V26.9347C75.1906 26.255 75.754 25.7273 76.4875 25.3517C77.221 24.9583 78.0436 24.7615 78.9562 24.7615C79.8499 24.7615 80.6725 24.9404 81.424 25.2981C82.1935 25.6558 82.846 26.1655 83.3824 26.8274C83.9368 27.4892 84.3661 28.285 84.6703 29.2152C84.9925 30.1452 85.1536 31.1737 85.1536 32.3006C85.1536 33.4631 84.9925 34.5094 84.6703 35.4396C84.3661 36.3696 83.9368 37.1656 83.3824 37.8274C82.828 38.4712 82.1665 38.9721 81.397 39.3298C80.6464 39.6875 79.8319 39.8664 78.9562 39.8664C78.2047 39.8664 77.4352 39.7054 76.6486 39.3835C75.8791 39.0615 75.2626 38.4981 74.7973 37.6932V39.5176H71.0947Z" fill="#333333" fill-opacity="0.6"/>
<path d="M95.0889 37.6128C94.6776 38.3461 94.0962 38.9095 93.3447 39.303C92.5941 39.6786 91.7706 39.8665 90.8769 39.8665C89.1417 39.8665 87.8988 39.3656 87.1473 38.364C86.3958 37.3624 86.0205 35.9762 86.0205 34.2055V25.0835H89.7231V33.4006C89.7231 33.8835 89.7501 34.3396 89.8032 34.7689C89.8572 35.1802 89.9643 35.5469 90.1254 35.8688C90.2865 36.1908 90.5187 36.4412 90.8229 36.6201C91.1451 36.7989 91.5654 36.8884 92.0838 36.8884C92.6922 36.8884 93.1926 36.7721 93.5868 36.5396C93.9801 36.307 94.2843 35.994 94.4985 35.6005C94.7307 35.2071 94.8828 34.7509 94.9548 34.2323C95.0439 33.7136 95.0889 33.168 95.0889 32.5957V25.0835H98.7915V39.5176H95.0889V37.6128Z" fill="#333333" fill-opacity="0.6"/>
<path d="M109.008 29.43C108.865 28.8219 108.525 28.33 107.988 27.9544C107.452 27.5609 106.728 27.3642 105.815 27.3642C105.064 27.3642 104.465 27.4894 104.018 27.7397C103.588 27.9723 103.374 28.3122 103.374 28.7593C103.374 29.1528 103.525 29.4926 103.83 29.7788C104.134 30.0471 104.661 30.2617 105.413 30.4227L107.344 30.852C108.096 31.013 108.793 31.1918 109.437 31.3885C110.099 31.5853 110.671 31.8447 111.155 32.1666C111.655 32.4707 112.048 32.8642 112.335 33.3471C112.621 33.83 112.764 34.4471 112.764 35.1983C112.764 35.9316 112.585 36.5845 112.227 37.1568C111.887 37.7292 111.423 38.2211 110.832 38.6325C110.26 39.0259 109.59 39.33 108.82 39.5446C108.051 39.7593 107.246 39.8666 106.405 39.8666C105.494 39.8666 104.644 39.7503 103.857 39.5178C103.088 39.3031 102.408 38.9812 101.818 38.552C101.246 38.1048 100.771 37.5682 100.396 36.9422C100.038 36.2983 99.8146 35.565 99.7246 34.7422H103.293C103.4 35.4398 103.704 36.021 104.206 36.4861C104.724 36.9512 105.494 37.1836 106.512 37.1836C107.371 37.1836 108.033 37.0405 108.498 36.7544C108.981 36.4682 109.222 36.0657 109.222 35.5471C109.222 35.0105 108.981 34.617 108.498 34.3665C108.015 34.1162 107.434 33.9194 106.755 33.7763L104.608 33.3202C103.911 33.1772 103.275 32.9983 102.703 32.7836C102.13 32.5512 101.639 32.265 101.228 31.9251C100.833 31.5853 100.53 31.1829 100.315 30.7178C100.101 30.2349 99.9928 29.6625 99.9928 29.0007C99.9928 28.3568 100.154 27.7755 100.476 27.2568C100.798 26.7202 101.237 26.2641 101.791 25.8885C102.345 25.5129 102.98 25.2268 103.695 25.03C104.429 24.8154 105.198 24.708 106.003 24.708C106.772 24.708 107.523 24.7975 108.257 24.9763C108.99 25.1552 109.643 25.4414 110.215 25.8349C110.805 26.2105 111.297 26.7023 111.691 27.3105C112.084 27.9008 112.344 28.6073 112.469 29.43H109.008Z" fill="#333333" fill-opacity="0.6"/>
<path d="M120.093 39.8666C118.913 39.8666 117.866 39.6698 116.954 39.2763C116.06 38.8649 115.3 38.3105 114.674 37.6129C114.065 36.9153 113.601 36.1105 113.279 35.1983C112.974 34.2682 112.822 33.2845 112.822 32.247C112.822 31.1739 112.992 30.1812 113.333 29.269C113.672 28.3568 114.155 27.5698 114.781 26.908C115.407 26.2284 116.159 25.7007 117.034 25.3251C117.911 24.9495 118.895 24.7617 119.985 24.7617C121.112 24.7617 122.114 24.9674 122.99 25.3788C123.885 25.7901 124.637 26.3715 125.244 27.1227C125.852 27.8739 126.3 28.7772 126.586 29.8324C126.89 30.8877 127.024 32.0503 126.988 33.3202H116.525C116.561 34.3934 116.9 35.2788 117.545 35.9764C118.188 36.656 119.029 36.9959 120.066 36.9959C120.675 36.9959 121.22 36.8796 121.703 36.647C122.204 36.3967 122.642 35.9584 123.017 35.3324H126.827C126.63 35.869 126.353 36.4056 125.996 36.9421C125.655 37.4787 125.209 37.9707 124.654 38.4178C124.117 38.8471 123.474 39.1958 122.722 39.4641C121.971 39.7324 121.095 39.8666 120.093 39.8666ZM119.905 27.4714C119.53 27.4714 119.154 27.543 118.778 27.6861C118.403 27.8113 118.054 28.0169 117.732 28.3031C117.428 28.5714 117.168 28.9113 116.954 29.3227C116.739 29.734 116.605 30.217 116.552 30.7715H123.233C123.215 30.1633 123.107 29.6536 122.91 29.2422C122.713 28.8129 122.454 28.4731 122.132 28.2227C121.828 27.9544 121.479 27.7666 121.086 27.6593C120.71 27.5341 120.317 27.4714 119.905 27.4714Z" fill="#333333" fill-opacity="0.6"/>
<path d="M136.298 28.6518C136.03 28.616 135.771 28.5981 135.52 28.5981C135.287 28.5803 135.037 28.5713 134.769 28.5713C134.304 28.5713 133.883 28.6249 133.508 28.7323C133.15 28.8217 132.837 28.9916 132.568 29.242C132.3 29.4924 132.095 29.8412 131.952 30.2884C131.809 30.7176 131.737 31.2721 131.737 31.9518V39.5176H128.034V25.0835H131.684V27.6054C132.095 26.7111 132.622 26.0762 133.266 25.7005C133.91 25.3071 134.653 25.1103 135.493 25.1103C135.618 25.1103 135.753 25.1192 135.896 25.1371C136.039 25.1371 136.173 25.146 136.298 25.164V28.6518Z" fill="#333333" fill-opacity="0.6"/>
</g>
</g>
<defs>
<clipPath id="clip0_154_633">
<rect width="154.296" height="61.992" fill="white" transform="translate(0.556641)"/>
</clipPath>
<clipPath id="clip1_154_633">
<rect width="201.6" height="81.0001" fill="white" transform="translate(-23.0957 -9.50391)"/>
</clipPath>
</defs>
</svg>
