<svg width="155" height="62" viewBox="0 0 155 62" fill="none" xmlns="http://www.w3.org/2000/svg">
<g clip-path="url(#clip0_154_644)">
<g clip-path="url(#clip1_154_644)">
<g clip-path="url(#clip2_154_644)">
<path d="M136.886 38.2147V26.4602H139.306V29.0114L138.817 29.1544C139.029 28.5027 139.33 27.9702 139.722 27.5569C140.129 27.1278 140.602 26.8019 141.139 26.5793C141.694 26.3568 142.288 26.2456 142.925 26.2456C144.261 26.2456 145.304 26.627 146.054 27.39C146.82 28.1371 147.203 29.2339 147.203 30.6804V38.2147H144.807V31.5387C144.807 30.4101 144.595 29.5836 144.171 29.059C143.764 28.5345 143.128 28.2722 142.264 28.2722C141.613 28.2722 141.066 28.4153 140.626 28.7014C140.202 28.9875 139.876 29.4406 139.648 30.0603C139.42 30.6804 139.306 31.4673 139.306 32.4209V38.2147H136.886Z" fill="#333333" fill-opacity="0.6"/>
<path d="M128.933 38.4294C127.793 38.4294 126.774 38.1671 125.878 37.6426C124.98 37.118 124.272 36.3947 123.75 35.4729C123.245 34.551 122.992 33.5019 122.992 32.3256C122.992 31.1493 123.245 30.1081 123.75 29.202C124.256 28.2801 124.956 27.5569 125.852 27.0324C126.766 26.5079 127.793 26.2456 128.933 26.2456C130.09 26.2456 131.109 26.5079 131.989 27.0324C132.87 27.5569 133.563 28.2801 134.068 29.202C134.59 30.1081 134.85 31.1493 134.85 32.3256C134.85 33.5019 134.59 34.551 134.068 35.4729C133.563 36.3788 132.862 37.102 131.965 37.6426C131.085 38.1671 130.074 38.4294 128.933 38.4294ZM128.933 36.355C129.65 36.355 130.27 36.1883 130.792 35.8543C131.33 35.5205 131.737 35.0516 132.014 34.4476C132.307 33.8435 132.454 33.1362 132.454 32.3256C132.454 31.499 132.307 30.7838 132.014 30.1798C131.737 29.5757 131.33 29.1147 130.792 28.7967C130.27 28.4629 129.65 28.2961 128.933 28.2961C128.2 28.2961 127.564 28.4629 127.026 28.7967C126.505 29.1306 126.097 29.5995 125.804 30.2035C125.527 30.7917 125.388 31.499 125.388 32.3256C125.388 33.1362 125.527 33.8435 125.804 34.4476C126.097 35.0516 126.505 35.5205 127.026 35.8543C127.564 36.1883 128.2 36.355 128.933 36.355Z" fill="#333333" fill-opacity="0.6"/>
<path d="M118.582 38.2148V26.4602H120.978V38.2148H118.582ZM118.411 24.4335V21.5962H121.125V24.4335H118.411Z" fill="#333333" fill-opacity="0.6"/>
<path d="M114.925 38.4293C114.338 38.4293 113.793 38.3182 113.287 38.0955C112.798 37.873 112.407 37.5155 112.113 37.0225C111.836 36.5139 111.698 35.8622 111.698 35.0675V23.4558L114.119 22.1445V34.4475C114.119 35.0993 114.217 35.608 114.412 35.9736C114.623 36.3233 115.007 36.498 115.561 36.498C115.724 36.498 115.911 36.4823 116.123 36.4504C116.351 36.4028 116.596 36.3471 116.856 36.2835V38.0955C116.531 38.2068 116.205 38.2863 115.879 38.3341C115.553 38.3976 115.235 38.4293 114.925 38.4293ZM109.302 28.2722V26.4601H116.856V28.2722H109.302Z" fill="#333333" fill-opacity="0.6"/>
<path d="M97.9395 38.2147V26.4602H100.36V29.0114L99.8709 29.1544C100.083 28.5027 100.385 27.9702 100.775 27.5569C101.183 27.1278 101.656 26.8019 102.194 26.5793C102.748 26.3568 103.343 26.2456 103.978 26.2456C105.315 26.2456 106.358 26.627 107.109 27.39C107.875 28.1371 108.257 29.2339 108.257 30.6804V38.2147H105.861V31.5387C105.861 30.4101 105.65 29.5836 105.226 29.059C104.818 28.5345 104.183 28.2722 103.319 28.2722C102.666 28.2722 102.121 28.4153 101.681 28.7014C101.257 28.9875 100.931 29.4406 100.702 30.0603C100.474 30.6804 100.36 31.4673 100.36 32.4209V38.2147H97.9395Z" fill="#333333" fill-opacity="0.6"/>
<path d="M90.6528 38.4294C89.6745 38.4294 88.8267 38.2704 88.1103 37.9525C87.393 37.6347 86.7981 37.1974 86.3247 36.6412C85.8522 36.0688 85.494 35.4251 85.2492 34.7099C85.0206 33.9787 84.9072 33.2157 84.9072 32.4209C84.9072 31.6262 85.0206 30.8632 85.2492 30.132C85.4778 29.3849 85.8198 28.7253 86.2761 28.153C86.7324 27.5649 87.303 27.1039 87.9879 26.7701C88.6881 26.4204 89.5116 26.2456 90.4566 26.2456C91.4025 26.2456 92.217 26.4045 92.9019 26.7224C93.5868 27.0245 94.1493 27.4536 94.5894 28.01C95.0286 28.5504 95.3553 29.1623 95.5668 29.8458C95.7954 30.5293 95.9088 31.2527 95.9088 32.0157C95.9088 32.0952 95.9007 32.246 95.8845 32.4687C95.8845 32.6752 95.8683 32.874 95.8359 33.0646H87.303C87.3516 34.1138 87.6783 34.9245 88.2813 35.4967C88.9005 36.0531 89.715 36.3312 90.7257 36.3312C91.4106 36.3312 92.0217 36.228 92.5599 36.0212C93.0972 35.7988 93.5949 35.4569 94.0512 34.9959L95.5182 36.4742C95.0457 36.9353 94.5561 37.3088 94.0512 37.595C93.5625 37.881 93.0405 38.0876 92.4861 38.2147C91.9488 38.3579 91.3368 38.4294 90.6528 38.4294ZM93.5373 31.8964C93.5706 31.7692 93.5868 31.6421 93.5868 31.5149C93.603 31.3877 93.6111 31.2606 93.6111 31.1333C93.6111 30.7678 93.5454 30.4101 93.4158 30.0603C93.2853 29.7109 93.0891 29.4008 92.8281 29.1306C92.568 28.8444 92.2413 28.622 91.8507 28.4629C91.4754 28.2882 91.0353 28.2007 90.5304 28.2007C89.8617 28.2007 89.2911 28.3517 88.8186 28.6537C88.3461 28.9398 87.9798 29.3214 87.7188 29.7982C87.474 30.275 87.3273 30.7917 87.2787 31.3479H94.3203L93.5373 31.8964Z" fill="#333333" fill-opacity="0.6"/>
<path d="M82.0266 38.4293C81.4398 38.4293 80.8944 38.3182 80.3886 38.0955C79.8999 37.873 79.5084 37.5155 79.215 37.0225C78.9378 36.5139 78.7992 35.8622 78.7992 35.0675V23.4558L81.2202 22.1445V34.4475C81.2202 35.0993 81.3183 35.608 81.5136 35.9736C81.7251 36.3233 82.1085 36.498 82.6629 36.498C82.8258 36.498 83.013 36.4823 83.2245 36.4504C83.4531 36.4028 83.6979 36.3471 83.958 36.2835V38.0955C83.6322 38.2068 83.3064 38.2863 82.9806 38.3341C82.6548 38.3976 82.3362 38.4293 82.0266 38.4293ZM75.9453 28.2722V26.4601H83.958V28.2722H75.9453Z" fill="#333333" fill-opacity="0.6"/>
<path d="M74.1418 38.4293C73.555 38.4293 73.0096 38.3182 72.5038 38.0955C72.0151 37.873 71.6236 37.5155 71.3302 37.0225C71.053 36.5139 70.9144 35.8622 70.9144 35.0675V23.4558L73.3354 22.1445V34.4475C73.3354 35.0993 73.4326 35.608 73.6288 35.9736C73.8403 36.3233 74.2237 36.498 74.7781 36.498C74.941 36.498 75.1282 36.4823 75.3397 36.4504C75.5683 36.4028 75.8131 36.3471 76.0732 36.2835V38.0955C75.7474 38.2068 75.4216 38.2863 75.0958 38.3341C74.77 38.3976 74.4514 38.4293 74.1418 38.4293ZM68.5186 28.2722V26.4601H76.0732V28.2722H68.5186Z" fill="#333333" fill-opacity="0.6"/>
<path d="M54.6406 38.2148L61.2664 21.5962H63.1979L69.7995 38.2148H67.0851L62.2443 25.125L57.3789 38.2148H54.6406ZM58.5526 34.5192L59.3105 32.3495H65.1293L65.9607 34.5192H58.5526Z" fill="#333333" fill-opacity="0.6"/>
<path fill-rule="evenodd" clip-rule="evenodd" d="M15.2586 12.0962C11.555 12.0962 8.55273 15.0985 8.55273 18.8021V39.5903C8.55273 43.2938 11.555 46.2962 15.2586 46.2962H36.0469C39.7504 46.2962 42.7528 43.2938 42.7528 39.5903V18.8021C42.7528 15.0985 39.7504 12.0962 36.0469 12.0962H15.2586ZM18.2763 30.5746L27.4078 18.4668V27.9487H33.0292L23.8976 40.0566V30.5746H18.2763Z" fill="#333333" fill-opacity="0.6"/>
<path fill-rule="evenodd" clip-rule="evenodd" d="M15.2586 12.0962C11.555 12.0962 8.55273 15.0985 8.55273 18.8021V39.5903C8.55273 43.2938 11.555 46.2962 15.2586 46.2962H36.0469C39.7504 46.2962 42.7528 43.2938 42.7528 39.5903V18.8021C42.7528 15.0985 39.7504 12.0962 36.0469 12.0962H15.2586ZM18.2763 30.5746L27.4078 18.4668V27.9487H33.0292L23.8976 40.0566V30.5746H18.2763Z" fill="white"/>
<path fill-rule="evenodd" clip-rule="evenodd" d="M15.2586 12.0962C11.555 12.0962 8.55273 15.0985 8.55273 18.8021V39.5903C8.55273 43.2938 11.555 46.2962 15.2586 46.2962H36.0469C39.7504 46.2962 42.7528 43.2938 42.7528 39.5903V18.8021C42.7528 15.0985 39.7504 12.0962 36.0469 12.0962H15.2586ZM18.2763 30.5746L27.4078 18.4668V27.9487H33.0292L23.8976 40.0566V30.5746H18.2763Z" fill="white"/>
<path fill-rule="evenodd" clip-rule="evenodd" d="M15.2586 12.0962C11.555 12.0962 8.55273 15.0985 8.55273 18.8021V39.5903C8.55273 43.2938 11.555 46.2962 15.2586 46.2962H36.0469C39.7504 46.2962 42.7528 43.2938 42.7528 39.5903V18.8021C42.7528 15.0985 39.7504 12.0962 36.0469 12.0962H15.2586ZM18.2763 30.5746L27.4078 18.4668V27.9487H33.0292L23.8976 40.0566V30.5746H18.2763Z" fill="#333333" fill-opacity="0.6"/>
</g>
</g>
</g>
<defs>
<clipPath id="clip0_154_644">
<rect width="154.296" height="61.992" fill="white" transform="translate(0.705078)"/>
</clipPath>
<clipPath id="clip1_154_644">
<rect width="154.296" height="61.992" fill="white" transform="translate(0.705078)"/>
</clipPath>
<clipPath id="clip2_154_644">
<rect width="201.6" height="81.0001" fill="white" transform="translate(-22.9473 -9.50391)"/>
</clipPath>
</defs>
</svg>
