<svg width="55" height="55" viewBox="0 0 55 55" fill="none" xmlns="http://www.w3.org/2000/svg">
<g clip-path="url(#clip0_157_885)">
<path d="M7.67578 27.7568C7.67578 30.4161 8.19956 33.0493 9.21722 35.5062C10.2349 37.963 11.7265 40.1954 13.6069 42.0757C15.4873 43.9561 17.7196 45.4477 20.1764 46.4654C22.6333 47.4831 25.2665 48.0068 27.9258 48.0068C30.585 48.0068 33.2183 47.4831 35.6751 46.4654C38.132 45.4477 40.3643 43.9561 42.2447 42.0757C44.1251 40.1954 45.6167 37.963 46.6343 35.5062C47.652 33.0493 48.1758 30.4161 48.1758 27.7568C48.1758 22.3862 46.0423 17.2355 42.2447 13.4379C38.4471 9.64031 33.2964 7.50684 27.9258 7.50684C22.5551 7.50684 17.4045 9.64031 13.6069 13.4379C9.80926 17.2355 7.67578 22.3862 7.67578 27.7568Z" stroke="#AD1518" stroke-width="2" stroke-linecap="round" stroke-linejoin="round"/>
<path d="M9.02539 21.0068H46.8254" stroke="#AD1518" stroke-width="2" stroke-linecap="round" stroke-linejoin="round"/>
<path d="M9.02539 34.5068H46.8254" stroke="#AD1518" stroke-width="2" stroke-linecap="round" stroke-linejoin="round"/>
<path d="M26.8 7.50684C23.0096 13.581 21 20.597 21 27.7568C21 34.9166 23.0096 41.9327 26.8 48.0068" stroke="#AD1518" stroke-width="2" stroke-linecap="round" stroke-linejoin="round"/>
<path d="M29.0508 7.50684C32.8413 13.581 34.8508 20.597 34.8508 27.7568C34.8508 34.9166 32.8413 41.9327 29.0508 48.0068" stroke="#AD1518" stroke-width="2" stroke-linecap="round" stroke-linejoin="round"/>
</g>
<defs>
<clipPath id="clip0_157_885">
<rect width="54" height="54" fill="white" transform="translate(0.925781 0.756836)"/>
</clipPath>
</defs>
</svg>
