<svg width="60" height="61" viewBox="0 0 60 61" fill="none" xmlns="http://www.w3.org/2000/svg">
<rect y="0.5" width="60" height="60" rx="30" fill="#AD1518" fill-opacity="0.1"/>
<path d="M25.9086 15.1597C26.985 15.0514 27.2488 15.9634 26.6297 16.7009C26.1138 17.3155 25.3288 17.637 24.5576 17.7828C24.3606 17.8201 24.145 17.8291 23.9434 17.8487C23.424 18.5424 23.2323 20.1064 23.2451 20.9615C24.8045 20.5968 26.2368 20.5521 27.7811 21.0575C29.8203 21.725 31.5646 23.2407 32.5416 25.1477C33.3646 26.7542 33.7052 28.7401 33.1399 30.4813C32.5807 32.2033 31.3331 33.4826 29.8112 34.403C29.4256 34.6363 29.0461 34.8252 28.6446 35.0291C28.8207 35.7131 28.5772 35.7519 28.2156 36.196C28.158 36.2668 28.3014 36.362 28.4124 36.3958C28.5747 35.8833 28.8791 35.448 29.4898 35.5739C29.7545 34.9275 30.3779 34.5303 30.8949 35.2213C31.6005 34.626 32.3908 34.9169 32.5863 35.8234C33.1531 35.5082 33.5669 35.7208 33.8341 36.2778C33.9579 36.1731 34.1174 36.0776 34.2831 36.0972C34.7039 36.147 34.8032 36.506 34.7854 36.8543C34.9287 36.775 35.0893 36.7057 35.2524 36.7415C35.7253 36.8453 35.7264 37.1379 35.6816 37.5014C35.8132 37.6993 36.0644 37.4731 35.8809 38.0864C35.4314 39.5889 34.919 41.0724 34.4409 42.5661C34.3603 42.8178 34.0889 43.7215 33.9528 43.8904C33.7319 43.9417 33.1548 43.8283 32.9017 43.7904L31.5566 43.5899C30.4801 43.4302 29.3396 43.2798 28.2717 43.1002C28.2519 43.3074 28.2502 43.5342 28.2274 43.7409C28.1602 44.3488 28.092 44.9658 27.9459 45.5597C28.6222 45.6598 29.0821 46.0408 29.5007 46.5352C29.499 46.5332 30.1364 46.541 30.2924 46.6225L30.2805 46.6411C30.0677 46.6959 29.8694 46.6868 29.6557 46.7109C29.1089 46.7727 28.5424 46.7417 27.9988 46.7886C27.975 46.8377 27.9531 46.8944 27.9053 46.9248C27.793 46.9962 23.8859 46.9137 23.405 46.8909C22.9473 46.8691 22.4728 46.8511 22.0214 46.7701C22.2596 46.727 22.5889 46.7102 22.8381 46.6913C23.4786 46.6791 24.1867 46.6469 24.8287 46.6214C24.4917 45.9701 24.2197 45.2225 23.9702 44.5319C23.5539 43.3798 23.3059 42.1631 23.0977 40.958C22.7707 41.4928 22.4324 41.9318 21.8373 42.2003C21.0586 42.5516 19.9309 42.3392 19.5556 41.5041C19.3629 41.0754 19.5389 40.629 19.9928 40.4736C20.4084 40.3313 20.8123 40.3991 21.2049 40.5777C21.1927 39.1789 21.3291 37.9348 22.5471 37.0407C21.9579 36.9329 21.1597 36.668 21.7026 35.9237C20.4971 35.7067 19.6765 35.3524 18.623 34.7463C16.8813 33.7442 14.9243 31.5104 14.4229 29.544C14.909 27.8405 15.8558 25.9134 17.1538 24.682C16.2552 22.9894 16.0241 20.6727 16.7554 18.8798C17.0916 18.0603 17.6773 17.2535 18.5017 16.8777C18.9343 16.6563 19.6788 16.6955 19.7783 17.2859C19.9276 18.1722 19.0674 19.0529 18.3707 19.4649C18.0702 19.6426 17.807 19.7248 17.4975 19.8538C17.2966 19.9376 17.286 20.4815 17.2713 20.6648C17.1928 21.7874 17.3941 22.9851 17.8073 24.0311C18.9155 22.9257 20.8485 21.7681 22.338 21.2687C22.3208 20.7792 22.323 20.367 22.3702 19.8777C22.5509 18.0065 23.8567 15.3899 25.9086 15.1597Z" fill="#441F43"/>
<path d="M18.9208 17.036C19.4691 16.974 19.6346 17.3221 19.4679 17.8036C19.1751 18.6497 18.3737 19.2289 17.5991 19.603C17.3643 19.7164 17.2366 19.831 17.1651 20.0939C16.8405 21.3978 17.049 22.8536 17.5651 24.082C17.6034 24.1731 17.6789 24.2734 17.7721 24.3028C17.8641 24.3001 18.0162 24.1466 18.0903 24.0846C18.8363 23.461 19.6656 22.8738 20.5274 22.4232C21.8602 22.6725 23.022 23.3608 24.1353 24.1135C24.526 24.3929 24.8975 24.7043 25.2772 24.9973C25.4287 25.1142 25.7787 25.4377 25.9547 25.4441C26.0297 25.407 26.0707 25.3223 26.0944 25.2451C26.5458 23.7746 26.2136 22.0213 25.0105 21.0094C25.1643 20.9892 25.3285 20.9897 25.4835 20.9902C28.3545 20.9997 31.0062 22.7966 32.2814 25.3353C32.4249 25.6212 32.5373 25.9031 32.6543 26.2016C32.3707 26.4069 32.5529 26.8294 32.8698 26.8686C32.9543 27.1675 33.0245 27.6008 33.0608 27.9084C32.6107 28.0992 32.8665 28.2061 32.8688 28.3805C32.8727 28.6818 32.7386 28.635 33.0919 28.8048C33.1431 29.038 32.9753 29.912 32.9124 30.1495C32.8582 30.3472 32.8012 30.542 32.7287 30.7339C32.0347 32.5703 30.3526 33.8912 28.6136 34.6785C26.1482 35.7947 22.8874 36.2211 20.3078 35.2459C18.2616 34.4723 16.5524 32.9937 15.4116 31.1329C15.1094 30.6401 14.8597 30.1242 14.6221 29.598C14.7036 29.341 14.8225 29.0646 14.9189 28.8151C15.4307 27.4909 16.1441 26.2563 17.0514 25.1637C17.1654 25.0264 17.2951 24.8808 17.403 24.7393C17.3536 24.5523 17.2021 24.2856 17.124 24.0906C16.39 22.2566 16.3031 19.9144 17.4079 18.2101C17.7277 17.7169 18.3247 17.1519 18.9208 17.036Z" fill="#D1EBE0"/>
<path d="M21.4671 24.6231C22.2553 24.5521 23.1864 24.9439 23.811 25.3976C25.1227 26.3596 25.9149 27.7507 26.1913 29.3435C26.543 31.29 25.7118 33.6275 23.5361 33.9741C22.4684 34.1443 21.4673 33.766 20.613 33.1437C20.4756 33.039 20.3611 32.9498 20.2305 32.8349C20.6816 33.8414 19.5449 34.4515 18.6989 34.2346C18.4644 34.1745 18.2636 34.0411 18.1451 33.8249C17.7128 33.0355 18.5248 32.3569 19.2668 32.3423C19.4922 32.3372 19.5977 32.3513 19.8102 32.4214C18.9115 31.5341 18.3787 30.1666 18.3052 28.9153C18.1873 26.9072 19.2554 24.7729 21.4671 24.6231Z" fill="white"/>
<path d="M22.9267 26.7875C24.38 26.5885 25.5137 28.2344 25.6958 29.498C25.8749 30.7404 25.5484 32.2499 24.1202 32.4854C22.638 32.5876 21.5863 31.0341 21.3447 29.7316C21.1205 28.5223 21.5449 27.0092 22.9267 26.7875Z" fill="#441F43"/>
<path d="M22.9817 26.9914C24.3952 26.8387 25.4478 28.5697 25.5257 29.7867C25.5674 30.4399 25.5113 31.172 25.0717 31.7014C24.8012 32.0272 24.4722 32.2327 24.0536 32.2763C23.6477 32.3275 23.1431 32.1128 22.8258 31.8718C22.116 31.3258 21.6755 30.4469 21.539 29.5756C21.3731 28.5169 21.7673 27.1691 22.9817 26.9914Z" fill="#89496F"/>
<path d="M22.3636 28.0564C23.4352 27.9858 24.0373 30.0794 23.0035 30.3369C21.833 30.3767 21.3511 28.1789 22.3636 28.0564Z" fill="white"/>
<path d="M19.1592 32.5262C20.3954 32.4315 20.5626 33.961 19.1946 34.1034C18.0508 34.2394 17.7658 32.7308 19.1592 32.5262Z" fill="#97CBC2"/>
<path d="M28.5143 22.6243C30.2153 22.386 31.916 24.7964 32.3651 26.2282C32.4954 26.6434 32.6281 27.1462 32.6886 27.5774C32.8807 28.9472 32.6924 31.0541 31.0872 31.458C28.8645 31.7977 27.1856 28.3719 26.957 26.5519C26.8182 25.4473 26.7658 24.2501 27.4554 23.2891C27.7335 22.9016 28.0517 22.6969 28.5143 22.6243Z" fill="white"/>
<path d="M29.5695 24.8556C30.7705 24.799 31.6399 26.2369 31.9078 27.2424C32.1554 28.1718 32.2031 29.8715 31.0151 30.1646C29.8711 30.316 28.9757 28.7686 28.7129 27.8384C28.4438 26.8864 28.3205 25.1581 29.5695 24.8556Z" fill="#441F43"/>
<path d="M29.6378 25.0611C30.7054 25.0151 31.5713 26.5578 31.738 27.4508C31.8686 28.1502 31.9533 28.9138 31.555 29.5557C31.4018 29.8026 31.2099 29.937 30.9318 29.9969C29.7338 30.0274 28.8198 28.037 28.7424 27.0441C28.6878 26.3446 28.7745 25.2118 29.6378 25.0611Z" fill="#89496F"/>
<path d="M29.2072 26.0075C29.3427 25.9933 29.3872 25.9886 29.5166 26.0331C30.1808 26.2615 30.6931 27.8705 29.909 28.1877C29.4693 28.2356 29.2273 27.9456 29.0502 27.5875C28.8283 27.1388 28.6256 26.2739 29.2072 26.0075Z" fill="white"/>
<path d="M29.4201 31.6196C29.4706 31.6261 29.4474 31.6167 29.4884 31.6562C29.5033 31.7109 29.5014 31.7134 29.5009 31.77C29.4946 32.4365 29.1544 33.1633 28.6786 33.6235C28.4413 33.8529 28.1016 34.0377 27.763 34.0155C27.4016 33.9918 27.1958 33.8355 26.964 33.582C26.6637 33.1966 26.3429 32.1849 26.8458 31.8603C27.0271 31.8858 27.2151 31.9292 27.4008 31.9527C28.191 32.0529 28.7197 31.9693 29.4201 31.6196Z" fill="#441F43"/>
<path d="M26.7725 32.5548C27.407 32.5255 28.3528 32.7438 28.7512 33.2771C28.6621 33.3915 28.5952 33.4533 28.4895 33.5531C27.8065 34.1406 27.1393 33.768 26.8701 33.005C26.8153 32.8497 26.7963 32.7182 26.7725 32.5548Z" fill="#EFA7B3"/>
<path d="M29.2902 31.8594C29.2959 31.8647 29.3061 31.8852 29.3105 31.8931C29.2825 32.3115 29.057 32.7744 28.8563 33.1376C28.5365 32.7231 27.928 32.5013 27.4307 32.4069C27.2178 32.3737 26.9749 32.3835 26.7578 32.3862C26.7911 32.2308 26.8115 32.1754 26.8851 32.0428C27.1078 32.0784 27.3321 32.1309 27.5523 32.1606C28.1407 32.2401 28.7678 32.151 29.2902 31.8594Z" fill="#89496F"/>
<path d="M17.6276 30.6304C18.8233 30.5075 18.7217 31.8676 17.4557 32.0854C16.1407 32.2065 16.3991 30.8263 17.6276 30.6304Z" fill="#441F43"/>
<path d="M17.5808 30.7997C18.5864 30.7027 18.45 31.6884 17.4932 31.8983C16.4666 32.0528 16.5897 30.9837 17.5808 30.7997Z" fill="#97CBC2"/>
<path d="M24.9185 37.1172C24.959 37.1223 25.2622 37.4759 25.3364 37.5442C26.1091 38.2556 27.2109 39.3493 28.3377 39.2766C28.5965 39.2599 29.1684 39.3531 29.2358 39.6193C29.3658 40.133 28.3397 39.9851 28.2702 40.0117C28.3172 40.1034 28.8432 40.3138 28.9639 40.3936C30.2604 41.2493 28.7945 41.5032 27.9909 41.0811C26.6243 40.3634 25.6659 39.1802 24.7625 37.9722C24.6675 37.8469 24.5576 37.7022 24.4441 37.5952C24.9292 38.8285 26.1773 40.097 27.1718 40.9343C27.0902 41.2285 27.0189 41.5666 26.9488 41.8666C25.8543 42.3205 24.7831 42.4426 23.6187 42.2308C23.3302 40.88 23.1607 39.4186 23.1641 38.0392C23.1648 37.7563 23.1606 37.4297 23.1808 37.1509C23.7655 37.1738 24.336 37.172 24.9185 37.1172Z" fill="url(#paint0_linear_280_3892)"/>
<path d="M31.1971 37.1719C31.7117 37.2788 32.2905 37.3509 32.8135 37.4347C32.6691 37.9821 31.4485 43.1173 31.3587 43.2143L31.3058 43.2119C30.7583 43.1406 30.1724 43.0615 29.6289 42.9734L30.6829 39.1308C30.8612 38.4708 31.0392 37.8393 31.1971 37.1719Z" fill="#E7879D"/>
<path d="M27.1152 42.9478C27.3092 42.9967 27.7525 43.0461 27.9685 43.0755C27.5828 43.4411 27.1091 43.7512 26.5995 43.9383C26.5107 43.9709 26.4603 43.9622 26.3713 44.0261C26.3161 44.1157 26.3706 45.1608 26.3241 45.338C26.2937 45.4537 26.2767 45.8317 26.2732 45.9635C26.2705 46.062 26.4025 46.0681 26.4692 46.091C26.9683 46.2102 27.1804 46.3555 27.5672 46.6685C27.0687 46.6237 26.3593 46.6378 25.8509 46.6373L25.1526 46.6446C24.6688 45.751 24.0957 44.1334 23.8506 43.1289C24.8241 43.4751 26.178 43.367 27.1152 42.9478Z" fill="#D1EBE0"/>
<path d="M22.7604 37.0884C22.8326 37.0903 22.8478 37.0873 22.9136 37.1118C22.9331 37.1449 22.881 37.8917 22.8796 38.0101C22.87 38.8583 22.9219 39.738 23.0515 40.5769C22.8142 40.9938 22.5595 41.3836 22.1851 41.6922C21.5249 42.2365 20.4656 42.2772 19.8967 41.578C19.4995 40.9886 19.9028 40.6236 20.5128 40.6212C20.7465 40.6203 20.966 40.6847 21.1831 40.7667C21.1725 40.8786 21.1145 41.2143 21.2124 41.273L21.2487 41.255C21.3076 41.1713 21.4509 40.8018 21.451 40.7121C21.4528 39.3113 21.5552 38.0285 22.7604 37.0884Z" fill="#E7879D"/>
<path d="M22.4985 37.6938C22.5754 37.7312 22.5636 37.824 22.5563 37.8991C22.5266 38.2033 22.4724 38.5053 22.435 38.8089C22.3735 39.307 22.328 39.8083 22.2359 40.302C22.1527 40.7414 21.9994 41.3495 21.6044 41.6171C21.498 41.6892 21.3925 41.7455 21.2628 41.7212C21.2111 41.6873 21.1726 41.6656 21.1602 41.6102C21.2083 41.5417 21.3787 41.5103 21.471 41.4299C22.0638 40.9137 22.0269 39.7077 22.1532 38.9915C22.203 38.7096 22.3066 37.8383 22.4985 37.6938Z" fill="#441F43"/>
<path d="M32.9954 37.4624C33.3256 37.5384 33.7217 37.5656 34.0671 37.6406C33.9163 38.5305 33.6413 39.4412 33.4419 40.3237C33.2445 41.1974 33.0478 42.0745 32.8228 42.9411C32.795 43.0483 32.7311 43.3241 32.6806 43.4111L32.6427 43.4164C32.3062 43.3806 31.8746 43.3075 31.5391 43.251C31.6764 42.7768 31.7827 42.2794 31.9103 41.8027C32.2954 40.3641 32.6043 38.8976 32.9954 37.4624Z" fill="#FBE7E9"/>
<path d="M34.2658 37.6626C34.614 37.7462 35.2674 37.8401 35.6223 37.8751L33.8757 43.2074C33.8297 43.3313 33.7873 43.4574 33.7444 43.5825C33.506 43.5191 33.1131 43.4811 32.8564 43.4506C33.0385 42.8566 33.1762 42.2391 33.3193 41.6338L33.9749 38.8746C34.0705 38.4762 34.1585 38.0563 34.2658 37.6626Z" fill="#E7879D"/>
<path d="M23.2374 21.3032C23.4457 21.3865 23.7148 21.5804 23.8905 21.7183C24.9103 22.5186 25.6381 23.8876 25.7907 25.1708C25.3389 24.8129 24.9392 24.4682 24.4694 24.1118C23.5623 23.4579 22.6321 22.8737 21.5735 22.4969C21.3258 22.4087 21.0714 22.3163 20.8096 22.2864C21.5326 21.8695 22.4268 21.5002 23.2374 21.3032Z" fill="#97CBC2"/>
<path d="M25.9071 15.4312C26.7802 15.3136 26.8642 16.0052 26.3757 16.5528C26.0046 16.9935 25.4427 17.2867 24.9022 17.4658C24.0235 17.7569 23.7559 17.5185 23.3928 18.5379C23.1087 19.3357 23.0111 19.962 22.9905 20.8119L22.99 21.0467C22.8493 21.0932 22.7037 21.136 22.5617 21.1795C22.5535 19.6125 22.8732 18.0963 23.8213 16.8163C24.3081 16.1591 25.0811 15.554 25.9071 15.4312Z" fill="#D1EBE0"/>
<path d="M29.8649 36.9585C30.2526 37.0284 30.644 37.0813 31.0299 37.1533L29.8299 41.5608C29.7022 42.0259 29.5844 42.4926 29.451 42.9561C29.2006 42.9121 28.9513 42.8722 28.7001 42.8324L28.335 42.7739C28.4203 42.3747 28.5522 41.9745 28.6279 41.5679C28.9871 41.5994 29.337 41.5638 29.5988 41.3099C29.9752 40.9448 29.7213 40.5894 29.3686 40.3648C29.3064 40.3252 29.2096 40.2315 29.1537 40.1812C29.6341 39.9098 29.6265 39.5933 29.2399 39.2331C29.4617 38.4756 29.6455 37.7167 29.8649 36.9585Z" fill="#FBE7E9"/>
<path d="M28.3155 35.1289C28.7502 35.5683 27.9188 36.0075 27.5967 36.1503C26.309 36.7215 24.8432 36.9297 23.4422 36.8775C22.9548 36.8594 22.4783 36.8229 22.0168 36.6523C21.6763 36.4789 21.7573 36.2784 21.8573 35.9639C23.5788 36.258 25.4773 36.0393 27.1403 35.5431C27.5641 35.4167 27.9083 35.2629 28.3155 35.1289Z" fill="#E7879D"/>
<path d="M29.2589 35.7437C29.6159 35.7512 29.7614 36.0345 29.9058 36.3063C30.0071 36.3141 30.2043 36.1092 30.3068 36.0521C31.0829 35.6197 31.5919 35.9503 31.8915 36.7259C32.1757 36.5488 32.3433 36.3946 32.6789 36.4234C33.1065 36.4602 33.2685 36.6722 33.4778 36.9893C33.5775 37.1404 33.7915 36.7402 34.0695 36.7794C34.4137 36.8278 34.4847 36.9308 34.716 37.1627C34.9677 36.8956 35.1364 36.8219 35.4557 37.0772C35.5612 37.2407 35.5386 37.3482 35.5193 37.5362C35.2195 37.527 34.643 37.433 34.3393 37.3826L32.8924 37.1414C31.467 36.9066 30.0078 36.6963 28.5889 36.4342C28.7183 36.0892 28.857 35.8029 29.2589 35.7437Z" fill="#F2E0BA"/>
<path d="M27.9281 43.4517L27.9418 43.4563C28.0065 43.6216 27.8103 44.8915 27.7638 45.1227C27.7356 45.2628 27.6617 45.5371 27.6474 45.6922C27.7074 45.7895 28.0762 45.8138 28.2186 45.8743C28.5781 46.027 28.8293 46.2243 29.1067 46.497C28.7305 46.5093 28.3642 46.5181 27.9879 46.5215C27.9317 46.5222 27.8717 46.5286 27.8153 46.5333C27.3875 46.1729 27.0799 45.9779 26.5342 45.8468C26.5778 45.3191 26.6214 44.7757 26.5665 44.2469C27.118 44.0373 27.4721 43.8463 27.9281 43.4517Z" fill="#D1EBE0"/>
<path d="M28.2247 36.6694C28.574 36.768 29.3195 36.8752 29.6899 36.927C29.4775 37.6678 29.3096 38.4026 29.1204 39.1485C29.0835 39.1514 28.8112 39.0438 28.7298 39.0383C28.3504 39.0124 28.0541 39.0338 27.6748 38.9505C27.7046 38.8475 27.7307 38.7393 27.756 38.6348C27.9142 37.9809 28.0824 37.3268 28.2247 36.6694Z" fill="#E7879D"/>
<path d="M27.4416 36.5312L27.4606 36.5374C27.5936 36.6878 27.6939 36.7831 27.8717 36.8753L27.3919 38.8397C27.0268 38.6202 26.6178 38.3369 26.2766 38.0832C25.8351 37.7683 25.4728 37.4503 25.0576 37.1028C25.8142 37.0377 26.7438 36.8312 27.4416 36.5312Z" fill="#97CBC2"/>
<path d="M24.6556 21.0356L24.7247 21.0312C24.9461 21.1323 25.3793 21.6739 25.5096 21.8883C26.1043 22.8676 26.1952 23.8775 25.9564 24.9707C25.9326 24.6961 25.8525 24.4033 25.7748 24.1386C25.4331 23.0652 24.5137 21.7155 23.4922 21.2145C23.9016 21.1288 24.2398 21.0742 24.6556 21.0356Z" fill="#97CBC2"/>
<path d="M30.219 35.0629C30.5674 35.0391 30.6304 35.2445 30.8153 35.4583C30.9122 35.4823 31.1043 35.277 31.2085 35.2236C31.5662 35.0406 31.8576 35.0609 32.1554 35.3322C32.3917 35.5474 32.3649 35.7784 32.4923 36.0211C32.5561 36.0374 32.8015 35.8838 32.9994 35.8831C33.3541 35.8497 33.526 36.0802 33.6616 36.3685C33.6724 36.3915 33.7761 36.5687 33.8094 36.5432C33.9212 36.458 34.0377 36.3236 34.1837 36.3031C34.5039 36.2582 34.622 36.5826 34.6528 36.84C34.5449 36.7481 34.4751 36.7001 34.3484 36.64C34.021 36.5819 33.8242 36.5824 33.5486 36.791C33.0938 36.1821 32.6672 36.0825 31.9854 36.4403C31.9281 36.3321 31.8793 36.2436 31.8063 36.1453C31.3409 35.5194 30.5688 35.5908 29.9953 36.0322C29.8737 35.8468 29.8204 35.793 29.6494 35.648C29.746 35.3771 29.9376 35.1477 30.219 35.0629Z" fill="#F2E0BA"/>
<path d="M26.8322 42.1343L26.859 42.1346C26.8695 42.1739 26.7823 42.5598 26.7772 42.6902C26.8008 42.7339 26.8304 42.7813 26.8561 42.8245C26.5879 42.883 26.3241 42.9532 26.0524 43.0028C25.564 43.0918 25.0603 43.1012 24.5665 43.0548C24.3087 43.0306 24.0569 42.973 23.8002 42.9467C23.7411 42.7711 23.6969 42.5478 23.6572 42.3645C24.5466 42.7193 25.9488 42.4706 26.8322 42.1343Z" fill="#E7879D"/>
<path d="M27.4508 41.1196C27.8668 41.3757 28.0292 41.4439 28.4905 41.5488C28.4567 41.6777 28.2015 42.7298 28.1751 42.7607C27.8279 42.7119 27.4513 42.6566 27.1084 42.5881C27.2107 42.0978 27.3234 41.604 27.4508 41.1196Z" fill="#E7879D"/>
<path d="M27.9515 36.2773C28.0615 36.3727 27.9433 36.5848 27.8984 36.6992L27.8838 36.7015L27.8333 36.6368L27.6523 36.45C27.747 36.3869 27.8517 36.3323 27.9515 36.2773Z" fill="#97CBC2"/>
<path d="M33.0451 28.0757C33.1086 28.136 33.1061 28.2431 33.0532 28.311C33.007 28.2656 33.0052 28.2684 32.9844 28.2039C32.99 28.1366 33.0034 28.1279 33.0451 28.0757Z" fill="#E7879D"/>
<path d="M32.6949 26.3853L32.7225 26.4079C32.7425 26.4639 32.8137 26.6363 32.8172 26.6854L32.799 26.6766C32.7306 26.5502 32.6738 26.5139 32.6949 26.3853Z" fill="#EFA7B3"/>
<path d="M44.2757 24.112C44.3627 24.1083 44.4053 24.164 44.4418 24.2358C44.6555 24.6558 44.8397 25.0919 45.0459 25.5159C45.1137 25.6555 45.2978 25.8839 45.0363 25.947C44.2342 26.1404 43.4242 26.2936 42.618 26.4675L37.8309 27.5267C39.4808 27.8971 41.2444 28.631 42.8751 29.1287C43.1751 29.2203 45.7438 30.06 45.9046 30.1927C45.9423 30.414 45.3355 33.1864 45.2582 33.5663L44.9783 34.9488C44.9245 35.2189 44.8722 35.4878 44.8121 35.7567C44.7427 36.0672 44.5321 35.9746 44.3063 35.8971L38.8422 34.0107L36.5305 33.2041C36.1693 33.0768 35.8066 32.9545 35.4474 32.8219C35.2335 32.7429 35.1942 32.6853 35.2461 32.4466C35.6743 30.4763 36.1412 28.5124 36.6634 26.5647C36.7092 26.3942 36.7649 26.1302 36.8496 25.9806C36.9649 25.9004 37.7885 25.699 37.9708 25.6505C40.0597 25.0953 42.1721 24.6127 44.2757 24.112Z" fill="#441F43"/>
<path d="M36.7229 27.5015C37.1506 27.6297 37.5869 27.734 38.0147 27.8644C40.005 28.4707 41.9728 29.1456 43.9485 29.7965C44.5156 29.9834 45.0914 30.1602 45.6517 30.3656C45.5159 30.8987 44.5798 35.6196 44.5316 35.6742L44.4939 35.668L38.7377 33.6781L36.3289 32.8341C36.0694 32.742 35.7793 32.6574 35.5264 32.5609C35.5686 32.2564 35.6437 31.9275 35.7156 31.6273C36.0437 30.2581 36.3444 28.8558 36.7229 27.5015Z" fill="#EFA7B3"/>
<path d="M36.9918 27.9961C37.2497 27.9973 37.6403 28.1451 37.8991 28.219C39.2946 28.6173 40.6596 29.1011 42.0299 29.5771C42.3098 29.6744 42.9563 29.8592 43.1713 29.9899C43.1916 30.0022 43.2159 30.0107 43.2198 30.036C43.2395 30.1613 42.7954 32.3668 42.7259 32.7422C42.6308 33.2563 42.5537 33.7754 42.4449 34.2867C42.4324 34.3454 42.4234 34.4007 42.3881 34.4505C42.3239 34.4828 42.333 34.4708 42.2499 34.4666C42.045 34.4184 41.4913 34.2055 41.2602 34.1264L38.783 33.26L37.0353 32.6491C36.7221 32.5426 36.273 32.4088 35.9885 32.2829C35.9708 32.1169 36.8592 28.2194 36.9918 27.9961Z" fill="#441F43"/>
<path d="M39.4648 32.3575L39.5413 32.3345C39.7916 32.4547 40.2522 32.7391 39.8142 32.9766C39.7679 32.962 39.7539 32.9676 39.736 32.9366C40.193 32.7088 39.7121 32.458 39.4648 32.3575Z" fill="#372A37"/>
<path d="M37.7279 29.2741C37.764 29.2712 37.8257 29.2658 37.8597 29.2735C38.0236 29.3105 38.358 29.5202 38.3001 29.7194C38.1898 29.6778 38.1041 29.4803 37.9869 29.4101C37.9105 29.3643 37.786 29.3667 37.7197 29.3209L37.7279 29.2741Z" fill="#441F43"/>
<path d="M39.1653 29.8028C40.6058 29.7212 41.309 32.1833 39.3875 32.2121C39.0868 32.1903 38.7246 32.0845 38.4778 31.9055C37.48 31.1819 38.0185 29.9215 39.1653 29.8028Z" fill="#D1EBE0"/>
<path d="M38.6361 30.4595C39.1412 30.451 39.1814 31.3585 38.6148 31.5672C38.136 31.4925 38.0219 30.6016 38.6361 30.4595Z" fill="#441F43"/>
<path d="M39.8697 30.7788C40.3756 30.8833 40.317 31.6536 39.8115 31.8486C39.2686 31.8509 39.3417 30.8999 39.8697 30.7788Z" fill="#441F43"/>
<path d="M39.0402 32.2983C39.0613 32.2994 39.1391 32.302 39.1539 32.3163C39.2731 32.4312 39.3898 32.653 39.2798 32.8096C39.2396 32.8667 39.1553 32.8738 39.0903 32.8822C39.0295 32.8695 38.9164 32.8495 38.8651 32.8211C38.6413 32.6972 38.9423 32.402 39.0402 32.2983Z" fill="#E7879D"/>
<path d="M39.4441 28.875C39.4973 28.8924 39.4982 28.8895 39.5408 28.9241C39.4978 29.0682 39.0837 29.4888 38.9454 29.7402C38.9176 29.7442 38.8899 29.7476 38.862 29.751C38.6918 29.5969 39.3217 28.9969 39.4441 28.875Z" fill="#97CBC2"/>
<path d="M40.8367 29.3774C40.9008 29.3893 40.9628 29.3988 41.0152 29.4353L41.0072 29.4582C40.7985 29.575 40.4432 29.7577 40.2256 29.839C40.1716 29.8642 40.1377 29.8858 40.0781 29.8879L40.0674 29.8646C40.0877 29.7684 40.1201 29.729 40.2053 29.6784C40.4013 29.5618 40.6293 29.4698 40.8367 29.3774Z" fill="#97CBC2"/>
<path d="M38.8095 32.3203C38.8279 32.3547 38.7839 32.4074 38.7616 32.4473C38.702 32.5544 38.671 32.643 38.644 32.7616C38.6031 32.7421 38.5535 32.7146 38.5125 32.6932C38.4643 32.6549 38.461 32.6481 38.4238 32.6015C38.3897 32.4126 38.6676 32.3656 38.8095 32.3203Z" fill="#E7879D"/>
<path d="M43.5762 30.3853C43.9121 30.4022 44.7395 30.7771 45.0887 30.9037C45.2061 30.9462 44.9906 31.7583 44.908 31.8668C44.7803 31.8494 43.4485 31.3788 43.3766 31.3149C43.3522 31.1731 43.5048 30.5097 43.5762 30.3853Z" fill="#441F43"/>
<path d="M43.686 30.5562C44.0305 30.7075 44.6153 30.8981 44.9825 31.0293C44.9024 31.2629 44.8637 31.4397 44.8203 31.6794C44.3905 31.5175 43.9677 31.3766 43.5322 31.2311C43.5887 31.06 43.6472 30.7411 43.686 30.5562Z" fill="#EFA7B3"/>
<path d="M43.3253 32.0093C43.605 32.0329 44.4486 32.3967 44.7352 32.5136C44.8407 32.5567 44.6483 33.3374 44.5651 33.4386C44.4023 33.4186 43.197 33.0034 43.1156 32.9131C43.0928 32.7752 43.2438 32.1274 43.3253 32.0093Z" fill="#441F43"/>
<path d="M43.4081 32.1704C43.4685 32.189 43.5487 32.2229 43.608 32.2472C43.9323 32.3803 44.2826 32.4808 44.6019 32.6228C44.5594 32.8361 44.5182 33.0503 44.4703 33.2624C44.0709 33.1311 43.6611 32.9632 43.2549 32.8268C43.3135 32.6336 43.3657 32.3691 43.4081 32.1704Z" fill="#EFA7B3"/>
<path d="M42.9939 33.6343C43.1302 33.6367 44.3524 34.0734 44.4357 34.1783C44.4583 34.3229 44.3158 34.937 44.2444 35.0475C44.091 35.0441 42.8465 34.6305 42.7825 34.5165C42.7662 34.3623 42.9103 33.7652 42.9939 33.6343Z" fill="#441F43"/>
<path d="M43.0835 33.814C43.483 33.9541 43.8765 34.1006 44.2732 34.2483C44.2389 34.4482 44.1911 34.68 44.1344 34.8738C43.7367 34.7119 43.3395 34.595 42.9443 34.442C42.9934 34.2318 43.0391 34.0252 43.0835 33.814Z" fill="#EFA7B3"/>
<path d="M42.9065 24.7212L42.917 24.7292C42.9153 24.8239 42.2562 26.0559 42.1684 26.2603C41.7753 26.3701 41.2711 26.4634 40.8623 26.5495L40.8467 26.5229C41.016 26.1617 41.2295 25.8127 41.3998 25.4504C41.4658 25.3099 41.5381 25.1615 41.6206 25.0305C41.9049 24.9953 42.618 24.8047 42.9065 24.7212Z" fill="#FBE7E9"/>
<path d="M40.329 25.3477L40.3483 25.3602C40.3396 25.4226 39.6997 26.6527 39.6231 26.8075C39.2503 26.9045 38.7702 27.0055 38.3899 27.0825C38.3765 27.0744 38.3853 27.0811 38.3721 27.0544C38.42 26.915 38.5555 26.663 38.628 26.5246C38.7817 26.2311 38.9221 25.9563 39.0617 25.6557C39.4456 25.5466 39.9337 25.4432 40.329 25.3477Z" fill="#FBE7E9"/>
<path d="M44.2063 24.4233C44.2723 24.4698 44.7549 25.5464 44.8393 25.7133C44.5428 25.7845 44.2503 25.8493 43.9525 25.914C43.757 25.9528 43.5531 25.9894 43.3555 26.0116C43.5901 25.5065 43.9322 24.9164 44.2063 24.4233Z" fill="#FBE7E9"/>
<path d="M38.8282 25.7031C38.8412 25.7122 38.8329 25.7049 38.8435 25.7326C38.7495 25.9555 38.5887 26.2472 38.4808 26.4726C38.4002 26.6411 38.2439 26.9899 38.1533 27.1366C37.9008 27.1958 37.6462 27.259 37.3904 27.3002L37.3789 27.2853C37.377 27.2208 37.864 26.0872 37.918 25.9596C38.1873 25.8644 38.5469 25.777 38.8282 25.7031Z" fill="#E7879D"/>
<path d="M43.8915 24.4829L43.9268 24.4849C43.9359 24.5697 43.2422 25.8569 43.1364 26.0614C42.894 26.1009 42.6415 26.1586 42.4035 26.2184L42.3836 26.2186L42.3672 26.2008C42.6046 25.7093 42.9242 25.1944 43.1504 24.6768C43.3842 24.6278 43.6576 24.5466 43.8915 24.4829Z" fill="#E7879D"/>
<path d="M41.3573 25.1094L41.3742 25.1124C41.3734 25.1665 40.7115 26.4267 40.6339 26.5966C40.399 26.6537 40.1184 26.7022 39.8783 26.7495L39.848 26.7459C39.831 26.6969 40.498 25.4613 40.5695 25.2894C40.8248 25.2439 41.1062 25.1729 41.3573 25.1094Z" fill="#E7879D"/>
<path d="M37.7068 26.0078L37.709 26.0096C37.7126 26.0185 37.7162 26.0275 37.7198 26.0365C37.5445 26.4132 37.3064 26.9835 37.1667 27.351C37.0682 27.3344 36.9639 27.3123 36.8653 27.2932L36.8112 27.2628C36.7757 27.1462 37.0173 26.3578 37.0617 26.1718C37.2751 26.1217 37.4939 26.0627 37.7068 26.0078Z" fill="#EFA7B3"/>
<path d="M40.6437 37.2335C41.4421 37.1775 42.1291 37.3947 42.6097 38.0639C42.866 38.0269 43.0589 38.0361 43.1273 38.3266C43.1714 38.5139 43.0916 38.7859 42.9788 38.938C42.4158 39.6973 41.1694 40.1062 40.2774 40.2794C39.6742 40.3944 38.3165 40.5601 37.8744 39.9484C37.7146 39.7272 37.8126 39.3727 38.0695 39.2271C38.145 38.81 38.2489 38.5154 38.5304 38.1846C39.0422 37.5829 39.8776 37.2994 40.6437 37.2335Z" fill="#441F43"/>
<path d="M40.7841 37.4034C41.4066 37.3652 42.1628 37.6412 42.4818 38.2048C41.9662 38.9963 40.846 39.3082 39.9557 39.4622C39.5309 39.5218 39.1082 39.5513 38.6846 39.4604C38.582 39.4383 38.2567 39.3707 38.2731 39.2277C38.4113 38.0196 39.7018 37.4536 40.7841 37.4034Z" fill="#F2E0BA"/>
<path d="M41.1283 37.7749C41.4233 37.7334 41.6967 37.9374 41.7408 38.232C41.7849 38.5267 41.5833 38.8018 41.289 38.8485C40.9911 38.8957 40.7118 38.6911 40.6672 38.3928C40.6225 38.0945 40.8296 37.817 41.1283 37.7749Z" fill="#441F43"/>
<path d="M41.1564 37.9279C41.3715 37.9055 41.564 38.0617 41.5863 38.2768C41.6086 38.4919 41.4522 38.6843 41.237 38.7064C41.0222 38.7285 40.8301 38.5723 40.8078 38.3575C40.7855 38.1426 40.9416 37.9504 41.1564 37.9279Z" fill="#E7879D"/>
<path d="M39.2856 38.2466C39.973 38.2208 40.1877 39.1263 39.4105 39.2916C38.6386 39.3217 38.5607 38.3778 39.2856 38.2466Z" fill="#441F43"/>
<path d="M39.2515 38.3973C39.793 38.3479 39.952 38.9766 39.4295 39.1383C38.9027 39.1562 38.7437 38.6161 39.2515 38.3973Z" fill="#E7879D"/>
<path d="M42.7536 38.2266C43.0723 38.2325 42.9449 38.6448 42.8415 38.8044C42.4471 39.4132 41.5154 39.7644 40.8373 39.9596C40.0851 40.1761 38.8574 40.3625 38.1603 39.9692C38.0073 39.8431 37.9285 39.6424 38.0422 39.4627C38.1617 39.396 38.275 39.5468 38.4168 39.5848C39.6027 39.9032 41.0645 39.4997 42.0874 38.8627C42.2093 38.7868 42.3256 38.6531 42.4177 38.5507C42.5451 38.4092 42.5561 38.2654 42.7536 38.2266Z" fill="#F2E0BA"/>
<path d="M37.3037 20.9155C37.3079 20.9166 37.3493 20.9271 37.3553 20.9308C37.4746 21.005 37.5725 21.4213 37.649 21.5759C37.8724 22.0267 38.0253 21.9695 38.4648 22.1232C38.532 22.1466 38.6062 22.1734 38.6361 22.2379C38.4866 22.3774 37.9517 22.3971 37.7181 22.7166C37.5101 23.0011 37.5193 23.3891 37.3721 23.5734C37.3511 23.5678 37.3094 23.5567 37.2992 23.5388C37.1258 23.233 37.1236 22.9427 36.8911 22.6499C36.692 22.3991 36.138 22.4025 36.0303 22.2235C36.0523 22.075 36.6153 22.0595 36.8001 21.9313C37.1619 21.6803 37.1317 21.183 37.3037 20.9155Z" fill="#441F43"/>
<path d="M35.4018 19.9149C35.6757 19.8386 35.9593 20.0003 36.0331 20.2749C36.1069 20.5495 35.9427 20.8316 35.6674 20.903C35.3956 20.9734 35.1179 20.8117 35.045 20.5405C34.9721 20.2694 35.1313 19.9902 35.4018 19.9149Z" fill="#441F43"/>
<defs>
<linearGradient id="paint0_linear_280_3892" x1="22.9602" y1="40.8505" x2="28.4075" y2="38.0722" gradientUnits="userSpaceOnUse">
<stop stop-color="#78B1AC"/>
<stop offset="1" stop-color="#E6F1E7"/>
</linearGradient>
</defs>
</svg>
