<svg width="31" height="30" viewBox="0 0 31 30" fill="none" xmlns="http://www.w3.org/2000/svg">
<rect x="0.433594" y="0.969238" width="30" height="29" rx="4" fill="#EDC80C" fill-opacity="0.1"/>
<path d="M5.53759 20.9692V9.76924H9.64959C10.4389 9.76924 11.0896 9.89724 11.6016 10.1532C12.1243 10.3986 12.5136 10.7346 12.7696 11.1612C13.0256 11.5879 13.1536 12.0732 13.1536 12.6172C13.1536 13.1932 13.0256 13.6732 12.7696 14.0572C12.5243 14.4412 12.1989 14.7346 11.7936 14.9372C11.3989 15.1399 10.9776 15.2626 10.5296 15.3052L10.7856 15.1452C11.2656 15.1559 11.7029 15.2892 12.0976 15.5452C12.5029 15.7906 12.8283 16.1212 13.0736 16.5372C13.3189 16.9426 13.4416 17.4012 13.4416 17.9132C13.4416 18.4786 13.2976 18.9959 13.0096 19.4652C12.7323 19.9239 12.3216 20.2919 11.7776 20.5692C11.2443 20.8359 10.5829 20.9692 9.79359 20.9692H5.53759ZM6.97759 19.7692H9.63359C10.3803 19.7692 10.9563 19.5986 11.3616 19.2572C11.7669 18.9052 11.9696 18.4199 11.9696 17.8012C11.9696 17.1826 11.7563 16.6919 11.3296 16.3292C10.9029 15.9666 10.3269 15.7852 9.60159 15.7852H6.97759V19.7692ZM6.97759 14.6492H9.52159C10.2149 14.6492 10.7483 14.4839 11.1216 14.1532C11.4949 13.8226 11.6816 13.3692 11.6816 12.7932C11.6816 12.2386 11.5003 11.7959 11.1376 11.4652C10.7749 11.1239 10.2203 10.9532 9.47359 10.9532H6.97759V14.6492ZM18.7965 20.3772V12.3452H15.6125V11.2892L18.1245 11.1132C18.3271 11.0919 18.4871 11.0279 18.6045 10.9212C18.7325 10.8039 18.7965 10.6439 18.7965 10.4412V9.76924H20.2525V20.3772H18.7965ZM15.2285 20.9692V19.7692H23.5485V20.9692H15.2285Z" fill="black"/>
</svg>
