<svg width="33" height="32" viewBox="0 0 33 32" fill="none" xmlns="http://www.w3.org/2000/svg">
<rect x="0.5" width="32" height="32" rx="8" fill="#AD1518" fill-opacity="0.1"/>
<g clip-path="url(#clip0_139_2256)">
<path d="M19.5 16.9001C20.5531 17.1144 21.6472 16.9837 22.6202 16.5273C23.5932 16.071 24.3932 15.3134 24.9018 14.3666C25.4103 13.4199 25.6003 12.3345 25.4436 11.2713C25.2869 10.2082 24.7918 9.22377 24.0317 8.46405C23.2716 7.70434 22.287 7.20975 21.2237 7.05357C20.1604 6.8974 19.0751 7.08796 18.1287 7.59701C17.1822 8.10605 16.425 8.9065 15.9691 9.87971C15.5133 10.8529 15.3832 11.9471 15.598 13.0001" stroke="black" stroke-width="2" stroke-linecap="round" stroke-linejoin="round"/>
<path d="M19.5001 16.9L15.5981 13.001L8.08509 21.585C7.70981 21.9599 7.49882 22.4685 7.49854 22.9989C7.4984 23.2616 7.54999 23.5217 7.65037 23.7644C7.75076 24.0071 7.89796 24.2277 8.08359 24.4135C8.26921 24.5993 8.48962 24.7467 8.73222 24.8474C8.97482 24.948 9.23488 24.9999 9.49753 25C10.028 25.0003 10.5368 24.7899 10.9121 24.415L19.5001 16.9Z" stroke="black" stroke-width="2" stroke-linecap="round" stroke-linejoin="round"/>
</g>
<defs>
<clipPath id="clip0_139_2256">
<rect width="24" height="24" fill="white" transform="translate(4.5 4)"/>
</clipPath>
</defs>
</svg>
