<svg width="156" height="62" viewBox="0 0 156 62" fill="none" xmlns="http://www.w3.org/2000/svg">
<g clip-path="url(#clip0_154_636)">
<g clip-path="url(#clip1_154_636)">
<path d="M56.0557 19.6252L48.1339 39.0553C47.912 39.599 47.5332 40.0643 47.0457 40.3918C46.5583 40.7193 45.9843 40.8941 45.397 40.894H37.3915C36.8047 40.8943 36.2311 40.7198 35.7439 40.3928C35.2566 40.0659 34.8777 39.6012 34.6555 39.058L26.7103 19.6252C26.6954 19.5889 26.6897 19.5494 26.6936 19.5103C26.6975 19.4712 26.711 19.4337 26.7329 19.401C26.7549 19.3684 26.7844 19.3416 26.819 19.3231C26.8538 19.3046 26.8925 19.2949 26.9317 19.2949H34.9507C35.1505 19.2949 35.3296 19.4191 35.4007 19.6063L41.4055 35.6218L47.3626 19.6081C47.3966 19.5162 47.458 19.4369 47.5385 19.3809C47.6189 19.3249 47.7146 19.2949 47.8126 19.2949H55.8334C56.0035 19.2949 56.1196 19.4677 56.0557 19.6252ZM56.7874 19.5352V40.6546C56.7874 40.7869 56.8954 40.8949 57.0277 40.8949H79.0445C79.1759 40.8949 79.2839 40.7869 79.2839 40.6546V35.3887C79.2839 35.3252 79.2587 35.2642 79.2137 35.2192C79.1687 35.1741 79.1084 35.1487 79.0445 35.1484H64.7164C64.6529 35.1482 64.592 35.1228 64.5471 35.0777C64.5022 35.0327 64.477 34.9717 64.477 34.9081V33.1738C64.477 33.0424 64.585 32.9344 64.7173 32.9344H78.7187C78.851 32.9344 78.959 32.8264 78.959 32.6941V27.4687C78.959 27.405 78.9338 27.3439 78.8888 27.2988C78.8438 27.2537 78.7826 27.2284 78.7187 27.2284H64.7173C64.6536 27.2284 64.5925 27.2031 64.5474 27.158C64.5024 27.113 64.477 27.0518 64.477 26.9881V25.2817C64.477 25.1494 64.585 25.0414 64.7173 25.0414H79.0445C79.1759 25.0414 79.2839 24.9334 79.2839 24.8011V19.5352C79.2839 19.4718 79.2587 19.4109 79.2137 19.3659C79.1696 19.3209 79.1084 19.2954 79.0454 19.2949H57.0277C56.964 19.2949 56.9029 19.3202 56.8578 19.3653C56.8128 19.4104 56.7874 19.4715 56.7874 19.5352ZM80.2955 19.5352V40.6546C80.2955 40.7869 80.4035 40.8949 80.5367 40.8949H102.553C102.685 40.8949 102.793 40.7869 102.793 40.6546V35.3887C102.793 35.3252 102.768 35.2644 102.723 35.2194C102.678 35.1744 102.616 35.1489 102.553 35.1484H88.2254C88.1615 35.1482 88.1012 35.1228 88.0562 35.0777C88.0112 35.0327 87.986 34.9717 87.986 34.9081V33.1738C87.986 33.0424 88.094 32.9344 88.2263 32.9344H102.228C102.36 32.9344 102.468 32.8264 102.468 32.6941V27.4687C102.468 27.405 102.443 27.3439 102.398 27.2988C102.353 27.2537 102.292 27.2284 102.228 27.2284H88.2254C88.1615 27.2284 88.1003 27.2031 88.0553 27.158C88.0103 27.113 87.9851 27.0518 87.9851 26.9881V25.2817C87.9851 25.1494 88.0931 25.0414 88.2254 25.0414H102.553C102.685 25.0414 102.793 24.9334 102.793 24.8011V19.5352C102.793 19.4717 102.768 19.4108 102.723 19.3658C102.678 19.3209 102.616 19.2954 102.553 19.2949H80.5358C80.4719 19.2952 80.4116 19.3206 80.3666 19.3657C80.3216 19.4107 80.2955 19.4717 80.2955 19.5352ZM103.806 40.6546C103.806 40.7869 103.914 40.8949 104.046 40.8949H119.13C122.431 40.8949 125.094 40.039 127.132 38.3137C129.169 36.6019 130.188 33.8587 130.188 30.0814C130.188 26.3041 129.169 23.5609 127.132 21.8482C125.094 20.1499 122.432 19.2949 119.13 19.2949H104.046C103.982 19.2952 103.921 19.3206 103.876 19.3657C103.831 19.4107 103.806 19.4717 103.806 19.5352V40.6546ZM111.735 35.1079C111.671 35.1079 111.61 35.0826 111.565 35.0375C111.52 34.9925 111.495 34.9314 111.495 34.8676V25.3222C111.495 25.1899 111.603 25.0819 111.734 25.0819H117.364C119.103 25.0819 120.393 25.4626 121.236 26.2231C122.078 26.9836 122.498 28.2742 122.498 30.0814C122.498 31.8886 122.078 33.2062 121.236 33.9667C120.393 34.7281 119.103 35.1079 117.364 35.1079H111.735Z" fill="#333333" fill-opacity="0.6"/>
</g>
</g>
<defs>
<clipPath id="clip0_154_636">
<rect width="154.278" height="61.974" fill="white" transform="translate(0.852539 0.00878906)"/>
</clipPath>
<clipPath id="clip1_154_636">
<rect width="201.6" height="81.0001" fill="white" transform="translate(-22.8076 -9.50488)"/>
</clipPath>
</defs>
</svg>
