<svg width="155" height="62" viewBox="0 0 155 62" fill="none" xmlns="http://www.w3.org/2000/svg">
<g clip-path="url(#clip0_154_641)">
<g clip-path="url(#clip1_154_641)">
<g clip-path="url(#clip2_154_641)">
<path d="M38.8403 35.6448L38.7655 35.7171C37.5607 36.9447 36.1661 37.5953 34.7291 37.5953C31.7296 37.5953 29.5522 35.3451 29.5522 32.2403C29.5522 29.1411 31.7296 26.8877 34.7291 26.8877C36.1661 26.8877 37.5607 27.541 38.7655 28.7718L38.8403 28.8464L40.7694 26.5138L40.7178 26.4505C39.1136 24.5548 37.1887 23.6318 34.8222 23.6318C32.4476 23.6318 30.2769 24.431 28.7125 25.8722C27.0127 27.433 26.1152 29.634 26.1152 32.2403C26.1152 34.8453 27.0127 37.0517 28.7125 38.6129C30.2769 40.0608 32.4476 40.8555 34.8222 40.8555C37.1887 40.8555 39.1136 39.9332 40.7178 38.0366L40.7694 37.9778L38.8403 35.6448Z" fill="#333333" fill-opacity="0.6"/>
<path d="M42.7197 40.5377H46.1276V23.9019H42.7197V40.5377Z" fill="#333333" fill-opacity="0.6"/>
<path d="M59.4761 36.9205C58.5669 37.4741 57.7207 37.7524 56.9609 37.7524C55.8598 37.7524 55.3623 37.1713 55.3623 35.8769V27.0498H58.833V23.9171H55.3623V18.7407L52.0222 20.5283V23.9171H49.1406V27.0498H52.0222V36.44C52.0222 38.9983 53.5376 40.7461 55.7997 40.7915C57.3359 40.8216 58.2618 40.364 58.8242 40.0295L58.8571 40.005L59.6776 36.7973L59.4761 36.9205Z" fill="#333333" fill-opacity="0.6"/>
<path d="M62.2979 40.5377H65.708V23.9019H62.2979V40.5377Z" fill="#333333" fill-opacity="0.6"/>
<path d="M120.061 17.5723V33.4412L121.123 31.7889C121.122 31.7961 125.892 24.8885 126.503 24.0077H128.629C128.177 24.6158 124.426 29.7774 124.426 29.7774C124.426 29.7774 129.312 39.9581 129.594 40.538H127.506C127.391 40.3005 123.195 31.4154 123.195 31.4154L120.061 35.8058V40.538H118.116V18.683C118.286 18.5853 119.604 17.8303 120.061 17.5723ZM104.083 25.9785C105.087 24.4787 106.659 23.6517 108.498 23.6517C112.165 23.6517 114.108 25.9905 114.108 30.4164V40.538H112.159V30.8354C112.159 27.0701 110.851 25.3222 108.019 25.3222C105.308 25.3222 103.689 27.3841 103.689 30.8354V40.538H101.745V24.0077H103.689V26.5712L104.083 25.9785ZM92.1292 23.6517C95.9029 23.6517 97.7371 25.3773 97.7371 28.9282V40.538H95.7922V38.1264L95.4133 38.5437C93.9823 40.123 92.3389 40.8953 90.3823 40.8953C88.8496 40.8953 85.282 40.3879 85.282 35.6821C85.282 31.8356 88.4572 30.4703 91.4317 30.4703C92.9257 30.4703 94.4008 30.8142 95.4718 31.4142L95.7922 31.5917V29.2185C95.7922 26.5874 94.507 25.2548 91.9672 25.2548C90.4021 25.2548 88.9882 25.6501 87.5392 26.4669C87.4114 26.1731 86.9623 25.1793 86.8372 24.8958C88.3519 24.0976 90.2212 23.6517 92.1292 23.6517ZM87.19 35.5201C87.19 37.9911 88.4698 39.353 90.7963 39.353C92.7763 39.353 94.5349 38.4176 95.7553 36.7166L95.7922 36.6582V33.0341L95.6842 32.9715C94.4422 32.2637 93.1705 31.9782 91.3021 31.9782C88.729 31.9782 87.19 33.3019 87.19 35.5201ZM72.1708 17.5723V26.415L72.547 26.0028C73.9798 24.4206 75.5656 23.6517 77.3881 23.6517C81.0367 23.6517 83.1301 26.6924 83.1301 31.9956C83.1301 37.4017 80.7523 40.8953 77.0704 40.8953C75.2758 40.8953 73.8394 40.1993 72.5497 38.7072L72.1708 38.2666V40.538H70.2295V18.683C70.3951 18.5853 71.7145 17.8303 72.1708 17.5723ZM72.2167 27.8553L72.1708 27.9163V36.5211L72.2059 36.5739C73.2787 38.2343 75.0265 39.2271 76.8868 39.2271C79.7596 39.2271 81.2158 36.8055 81.2158 32.0309C81.2158 27.7654 79.6021 25.3222 76.7896 25.3222C75.0841 25.3222 73.546 26.174 72.2167 27.8553Z" fill="#333333" fill-opacity="0.6"/>
<path fill-rule="evenodd" clip-rule="evenodd" d="M67.7495 20.9499C64.6303 16.5313 59.4496 13.895 54.1787 13.895C48.91 13.895 43.7282 16.5313 40.6138 20.9499L40.4541 21.1774H44.382L44.4255 21.1302C47.099 18.3708 50.5889 16.9116 54.1787 16.9116C57.7689 16.9116 61.2582 18.3708 63.9367 21.1302L63.9802 21.1774H67.907L67.7495 20.9499Z" fill="#333333" fill-opacity="0.6"/>
</g>
</g>
</g>
<defs>
<clipPath id="clip0_154_641">
<rect width="154.278" height="61.974" fill="white" transform="translate(0.426758 0.00878906)"/>
</clipPath>
<clipPath id="clip1_154_641">
<rect width="154.278" height="61.974" fill="white" transform="translate(0.426758 0.00878906)"/>
</clipPath>
<clipPath id="clip2_154_641">
<rect width="201.6" height="81.0001" fill="white" transform="translate(-23.2334 -9.50488)"/>
</clipPath>
</defs>
</svg>
