<svg width="55" height="55" viewBox="0 0 55 55" fill="none" xmlns="http://www.w3.org/2000/svg">
<g clip-path="url(#clip0_157_878)">
<path d="M7.67578 30.0068C7.67578 29.4101 7.91283 28.8378 8.33479 28.4158C8.75675 27.9939 9.32904 27.7568 9.92578 27.7568H18.9258C19.5225 27.7568 20.0948 27.9939 20.5168 28.4158C20.9387 28.8378 21.1758 29.4101 21.1758 30.0068V43.5068C21.1758 44.1036 20.9387 44.6759 20.5168 45.0978C20.0948 45.5198 19.5225 45.7568 18.9258 45.7568H9.92578C9.32904 45.7568 8.75675 45.5198 8.33479 45.0978C7.91283 44.6759 7.67578 44.1036 7.67578 43.5068V30.0068Z" stroke="#AD1518" stroke-width="2" stroke-linecap="round" stroke-linejoin="round"/>
<path d="M34.6758 21.0068C34.6758 20.4101 34.9128 19.8378 35.3348 19.4158C35.7567 18.9939 36.329 18.7568 36.9258 18.7568H45.9258C46.5225 18.7568 47.0948 18.9939 47.5168 19.4158C47.9387 19.8378 48.1758 20.4101 48.1758 21.0068V43.5068C48.1758 44.1036 47.9387 44.6759 47.5168 45.0978C47.0948 45.5198 46.5225 45.7568 45.9258 45.7568H36.9258C36.329 45.7568 35.7567 45.5198 35.3348 45.0978C34.9128 44.6759 34.6758 44.1036 34.6758 43.5068V21.0068Z" stroke="#AD1518" stroke-width="2" stroke-linecap="round" stroke-linejoin="round"/>
<path d="M21.1758 12.0068C21.1758 11.4101 21.4128 10.8378 21.8348 10.4158C22.2567 9.99389 22.829 9.75684 23.4258 9.75684H32.4258C33.0225 9.75684 33.5948 9.99389 34.0168 10.4158C34.4387 10.8378 34.6758 11.4101 34.6758 12.0068V43.5068C34.6758 44.1036 34.4387 44.6759 34.0168 45.0978C33.5948 45.5198 33.0225 45.7568 32.4258 45.7568H23.4258C22.829 45.7568 22.2567 45.5198 21.8348 45.0978C21.4128 44.6759 21.1758 44.1036 21.1758 43.5068V12.0068Z" stroke="#AD1518" stroke-width="2" stroke-linecap="round" stroke-linejoin="round"/>
<path d="M9.92578 45.7568H41.4258" stroke="#AD1518" stroke-width="2" stroke-linecap="round" stroke-linejoin="round"/>
</g>
<defs>
<clipPath id="clip0_157_878">
<rect width="54" height="54" fill="white" transform="translate(0.925781 0.756836)"/>
</clipPath>
</defs>
</svg>
