<?xml version="1.0" encoding="UTF-8"?>
<svg id="Layer_2" data-name="Layer 2" xmlns="http://www.w3.org/2000/svg" viewBox="0 0 936.83 221.55">
  <defs>
    <style>
      .cls-1 {
        fill: #a91f23;
        font-family: ZenMaruGothic-Regular, 'Zen Maru Gothic';
        font-size: 105.99px;
      }

      .cls-2 {
        fill: #a81f24;
      }

      .cls-3 {
        fill: #a91f24;
      }

      .cls-4 {
        fill: #f1d180;
      }
    </style>
  </defs>
  <g id="Layer_4" data-name="Layer 4">
    <text class="cls-1" transform="translate(258.93 148.51)"><tspan x="0" y="0">CASA DE ELE </tspan></text>
    <g>
      <path class="cls-2" d="M149.88,7.04c-.12.31-.25.61-.39.9l-1.96,4.03-.02.02-5.82,11.97-1.8,3.7c-.13.27-.27.53-.42.79-1.83,3.09-3.74,5.04-4.65,4.59-.94-.46-.52-3.3.87-6.78.1-.24.21-.49.32-.73l1.57-3.22.04-.07,6.2-12.74v-.02s1.41-2.9,1.41-2.9l.28-.54c1.97-3.57,4.01-5.7,5.01-5.23.88.43.57,2.99-.64,6.19Z"/>
      <path class="cls-2" d="M175.95,20.12c-.12.31-.25.61-.39.9l-1.96,4.03-.02.02-5.82,11.97-1.8,3.7c-.13.27-.27.53-.42.79-1.83,3.09-3.74,5.04-4.65,4.59-.94-.46-.52-3.3.87-6.78.1-.24.21-.49.32-.73l1.57-3.22.04-.07,6.2-12.74v-.02s1.41-2.9,1.41-2.9l.28-.54c1.97-3.57,4.01-5.7,5.01-5.23.88.43.57,2.99-.64,6.19Z"/>
      <path class="cls-2" d="M162.81,13.41c-.12.31-.25.61-.39.9l-1.96,4.03-.02.02-5.82,11.97-1.8,3.7c-.13.27-.27.53-.42.79-1.83,3.09-3.74,5.04-4.65,4.59-.94-.46-.52-3.3.87-6.78.1-.24.21-.49.32-.73l1.57-3.22.04-.07,6.2-12.74v-.02s1.41-2.9,1.41-2.9l.28-.54c1.97-3.57,4.01-5.7,5.01-5.23.88.43.57,2.99-.64,6.19Z"/>
      <path class="cls-2" d="M182.49,28.21s-.05.09-.07.14l-16.4,33.68-.26.52c-.29.59-1.08.69-1.51.2-.16-.19-.32-.37-.48-.55-11.05-12.49-26.47-20.96-43.82-22.95-.25-.03-.51-.06-.77-.09-.63-.07-1-.74-.72-1.31l.29-.6,15.8-32.41c.22-.51.8-.75,1.29-.53.48.21.7.79.5,1.29,0,0,0,0,0,.02-.02.05-.05.1-.07.14l-15.19,31.17c-.13.27.04.58.34.62,16.83,2.25,31.79,10.43,42.78,22.41.21.23.58.18.71-.1l15.8-32.42c.23-.51.8-.74,1.29-.53.49.21.71.8.48,1.31Z"/>
      <path class="cls-2" d="M214.38,74.87c-.31.1-.63.18-.95.26l-4.37.99h-.03s-12.99,2.92-12.99,2.92l-4.02.9c-.29.07-.59.12-.88.16-3.55.5-6.27.22-6.49-.77-.22-1.02,2.25-2.47,5.84-3.55.25-.08.51-.14.77-.2l3.49-.78h.08s13.83-3.12,13.83-3.12h.02s3.14-.71,3.14-.71l.6-.12c4.02-.69,6.96-.42,7.21.65.21.96-1.98,2.31-5.24,3.37Z"/>
      <path class="cls-2" d="M220.43,103.4c-.31.1-.63.18-.95.26l-4.37.99h-.03s-12.99,2.92-12.99,2.92l-4.02.9c-.29.07-.59.12-.88.16-3.55.5-6.27.22-6.49-.77-.22-1.02,2.25-2.47,5.84-3.55.25-.08.51-.14.77-.2l3.49-.78h.08s13.83-3.12,13.83-3.12h.02s3.14-.71,3.14-.71l.6-.12c4.02-.69,6.96-.42,7.21.65.21.96-1.98,2.31-5.24,3.37Z"/>
      <path class="cls-2" d="M217.48,88.94c-.31.1-.63.18-.95.26l-4.37.99h-.03s-12.99,2.92-12.99,2.92l-4.02.9c-.29.07-.59.12-.88.16-3.55.5-6.27.22-6.49-.77-.22-1.02,2.25-2.47,5.84-3.55.25-.08.51-.14.77-.2l3.49-.78h.08s13.83-3.12,13.83-3.12h.02s3.14-.71,3.14-.71l.6-.12c4.02-.69,6.96-.42,7.21.65.21.96-1.98,2.31-5.24,3.37Z"/>
      <path class="cls-2" d="M218.2,113.56s-.1.02-.15.03l-36.55,8.21-.57.13c-.64.14-1.22-.41-1.1-1.06.05-.24.09-.48.13-.72,2.86-16.43-.15-33.76-9.42-48.56-.13-.22-.27-.44-.41-.66-.34-.53-.04-1.24.57-1.38l.65-.15,35.19-7.88c.53-.15,1.08.15,1.22.67.14.51-.18,1.04-.7,1.2,0,0-.01,0-.02,0-.06.02-.11.03-.15.04l-33.83,7.58c-.29.07-.43.39-.28.65,8.75,14.55,11.69,31.35,9.19,47.42-.05.3.22.56.52.49l35.19-7.89c.54-.14,1.08.16,1.22.68.14.52-.18,1.06-.72,1.2Z"/>
      <path class="cls-2" d="M202.85,166.25c-.28-.18-.55-.37-.81-.57l-3.55-2.73-.02-.02-10.54-8.12-3.26-2.52c-.24-.18-.47-.37-.69-.57-2.65-2.41-4.18-4.68-3.56-5.48.64-.82,3.34.16,6.46,2.22.22.15.44.3.64.46l2.83,2.19.06.05,11.22,8.65h.01s2.55,1.97,2.55,1.97l.47.39c3.1,2.65,4.77,5.08,4.11,5.96-.6.78-3.04-.05-5.94-1.88Z"/>
      <path class="cls-2" d="M184.77,189.13c-.28-.18-.55-.37-.81-.57l-3.55-2.73-.02-.02-10.54-8.12-3.26-2.52c-.24-.18-.47-.37-.69-.57-2.65-2.41-4.18-4.68-3.56-5.48.64-.82,3.34.16,6.46,2.22.22.15.44.3.64.46l2.83,2.19.06.05,11.22,8.65h.01s2.55,1.97,2.55,1.97l.47.39c3.1,2.65,4.77,5.08,4.11,5.96-.6.78-3.04-.05-5.94-1.88Z"/>
      <path class="cls-2" d="M194,177.63c-.28-.18-.55-.37-.81-.57l-3.55-2.73-.02-.02-10.54-8.12-3.26-2.52c-.24-.18-.47-.37-.69-.57-2.65-2.41-4.18-4.68-3.56-5.48.64-.82,3.34.16,6.46,2.22.22.15.44.3.64.46l2.83,2.19.06.05,11.22,8.65h.01s2.55,1.97,2.55,1.97l.47.39c3.1,2.65,4.77,5.08,4.11,5.96-.6.78-3.04-.05-5.94-1.88Z"/>
      <path class="cls-2" d="M175.53,193.9s-.08-.06-.12-.09l-29.66-22.88-.46-.36c-.52-.4-.46-1.2.11-1.52.21-.12.43-.24.64-.36,14.47-8.3,25.88-21.68,31.34-38.27.08-.24.16-.49.24-.74.19-.6.93-.83,1.43-.44l.53.41,28.55,22.03c.45.32.57.93.26,1.37-.31.43-.91.53-1.37.23,0,0,0,0-.01-.01-.05-.03-.09-.06-.13-.1l-27.45-21.18c-.24-.18-.58-.08-.68.2-5.61,16.02-16.65,29.02-30.61,37.36-.26.16-.29.53-.04.72l28.55,22.03c.45.33.56.94.26,1.38-.31.44-.93.53-1.38.21Z"/>
      <path class="cls-2" d="M124.21,215.59c-.03-.33-.05-.66-.06-.98l-.07-4.48v-.03s-.19-13.31-.19-13.31l-.06-4.12c0-.3,0-.6.02-.89.24-3.58,1.07-6.18,2.08-6.2,1.04-.01,1.95,2.71,2.28,6.44.02.26.03.53.04.79l.05,3.58v.08s.2,14.17.2,14.17v.02s.05,3.22.05,3.22v.61c-.16,4.08-1.02,6.9-2.12,6.92-.98,0-1.85-2.41-2.22-5.82Z"/>
      <path class="cls-2" d="M95.05,215.65c-.03-.33-.05-.66-.06-.98l-.07-4.48v-.03s-.19-13.31-.19-13.31l-.06-4.12c0-.3,0-.6.02-.89.24-3.58,1.07-6.18,2.08-6.2,1.04-.01,1.95,2.71,2.28,6.44.02.26.03.53.04.79l.05,3.58v.08s.2,14.17.2,14.17v.02s.05,3.22.05,3.22v.61c-.16,4.08-1.02,6.9-2.12,6.92-.98,0-1.85-2.41-2.22-5.82Z"/>
      <path class="cls-2" d="M109.8,215.73c-.03-.33-.05-.66-.06-.98l-.07-4.48v-.03s-.19-13.31-.19-13.31l-.06-4.12c0-.3,0-.6.02-.89.24-3.58,1.07-6.18,2.08-6.2,1.04-.01,1.95,2.71,2.28,6.44.02.26.03.53.04.79l.05,3.58v.08s.2,14.17.2,14.17v.02s.05,3.22.05,3.22v.61c-.16,4.08-1.02,6.9-2.12,6.92-.98,0-1.85-2.41-2.22-5.82Z"/>
      <path class="cls-2" d="M85.56,211.38c0-.05,0-.1,0-.15l-.53-37.46v-.58c-.02-.66.65-1.11,1.25-.86.23.09.45.19.68.28,15.5,6.17,33.07,6.79,49.46.75.24-.09.48-.18.73-.27.59-.22,1.22.21,1.23.84v.67s.5,36.06.5,36.06c.03.55-.37,1.03-.91,1.05-.53.03-.98-.39-1.03-.93,0,0,0-.01,0-.02,0-.06,0-.11,0-.16l-.48-34.67c0-.3-.3-.5-.58-.4-16.04,5.57-33.08,5-48.29-.74-.29-.11-.59.1-.59.41l.5,36.06c.03.56-.38,1.02-.92,1.06-.53.03-1-.4-1.02-.95Z"/>
      <path class="cls-2" d="M36.4,184.14c.24-.23.49-.44.74-.65l3.49-2.81h.02s10.37-8.36,10.37-8.36l3.21-2.58c.23-.19.47-.37.72-.53,2.97-2.01,5.53-2.96,6.17-2.17.65.82-.94,3.21-3.68,5.76-.19.18-.4.35-.6.52l-2.79,2.24-.06.05-11.05,8.88h-.01s-2.51,2.03-2.51,2.03l-.49.37c-3.31,2.39-6.06,3.45-6.76,2.59-.61-.77.76-2.94,3.22-5.33Z"/>
      <path class="cls-2" d="M18.4,161.19c.24-.23.49-.44.74-.65l3.49-2.81h.02s10.37-8.36,10.37-8.36l3.21-2.58c.23-.19.47-.37.72-.53,2.97-2.01,5.53-2.96,6.17-2.17.65.82-.94,3.21-3.68,5.76-.19.18-.4.35-.6.52l-2.79,2.24-.06.05-11.05,8.88h-.01s-2.51,2.03-2.51,2.03l-.49.37c-3.31,2.39-6.06,3.45-6.76,2.59-.61-.77.76-2.94,3.22-5.33Z"/>
      <path class="cls-2" d="M27.41,172.86c.24-.23.49-.44.74-.65l3.49-2.81h.02s10.37-8.36,10.37-8.36l3.21-2.58c.23-.19.47-.37.72-.53,2.97-2.01,5.53-2.96,6.17-2.17.65.82-.94,3.21-3.68,5.76-.19.18-.4.35-.6.52l-2.79,2.24-.06.05-11.05,8.88h-.01s-2.51,2.03-2.51,2.03l-.49.37c-3.31,2.39-6.06,3.45-6.76,2.59-.61-.77.76-2.94,3.22-5.33Z"/>
      <path class="cls-2" d="M15.93,151.08s.08-.06.12-.09l29.2-23.46.45-.36c.51-.41,1.28-.16,1.45.47.07.24.13.47.2.71,4.67,16.02,15,30.25,29.84,39.45.22.14.44.27.66.41.54.33.59,1.09.09,1.49l-.52.42-28.12,22.57c-.42.37-1.04.34-1.39-.07-.35-.4-.3-1.01.1-1.38,0,0,.01,0,.01-.01.04-.04.08-.07.12-.1l27.03-21.71c.23-.19.21-.54-.04-.71-14.26-9.21-24.3-23-29.13-38.52-.09-.29-.45-.41-.69-.21l-28.12,22.58c-.42.36-1.04.33-1.4-.07-.35-.4-.3-1.03.12-1.39Z"/>
      <path class="cls-2" d="M6.17,96.5c.33.04.65.09.97.16l4.39.89h.03s13.04,2.66,13.04,2.66l4.04.82c.29.06.58.13.87.21,3.44,1,5.81,2.37,5.61,3.36-.21,1.02-3.07,1.33-6.78.85-.26-.03-.52-.08-.78-.13l-3.51-.72-.08-.02-13.89-2.83h-.02s-3.15-.64-3.15-.64l-.59-.14c-3.95-1.02-6.52-2.47-6.31-3.55.2-.96,2.75-1.3,6.16-.92Z"/>
      <path class="cls-2" d="M12.34,67.99c.33.04.65.09.97.16l4.39.89h.03s13.04,2.66,13.04,2.66l4.04.82c.29.06.58.13.87.21,3.44,1,5.81,2.37,5.61,3.36-.21,1.02-3.07,1.33-6.78.85-.26-.03-.52-.08-.78-.13l-3.51-.72-.08-.02-13.89-2.83h-.02s-3.15-.64-3.15-.64l-.59-.14c-3.95-1.02-6.52-2.47-6.31-3.55.2-.96,2.75-1.3,6.16-.92Z"/>
      <path class="cls-2" d="M9.11,82.39c.33.04.65.09.97.16l4.39.89h.03s13.04,2.66,13.04,2.66l4.04.82c.29.06.58.13.87.21,3.44,1,5.81,2.37,5.61,3.36-.21,1.02-3.07,1.33-6.78.85-.26-.03-.52-.08-.78-.13l-3.51-.72-.08-.02-13.89-2.83h-.02s-3.15-.64-3.15-.64l-.59-.14c-3.95-1.02-6.52-2.47-6.31-3.55.2-.96,2.75-1.3,6.16-.92Z"/>
      <path class="cls-2" d="M18.54,59.64s.1.02.15.03l36.7,7.49.57.12c.64.13.94.88.57,1.41-.14.2-.28.4-.41.6-9.34,13.82-13.7,30.86-11.31,48.16.03.25.07.51.11.77.09.62-.47,1.15-1.09,1.02l-.66-.13-35.33-7.23c-.55-.09-.92-.58-.83-1.11.08-.52.59-.88,1.13-.81,0,0,0,0,.02,0,.06,0,.11.02.16.03l33.97,6.94c.29.06.55-.18.52-.48-2.02-16.86,2.18-33.39,11.04-47.02.17-.26.03-.6-.28-.66l-35.33-7.22c-.55-.09-.92-.59-.84-1.12.08-.53.6-.89,1.15-.8Z"/>
      <path class="cls-2" d="M55.55,17.27c.18.28.34.57.49.86l2.05,3.99v.03s6.07,11.85,6.07,11.85l1.87,3.67c.14.26.26.54.38.81,1.37,3.31,1.78,6.02.88,6.48-.93.47-2.95-1.57-4.89-4.77-.14-.23-.26-.46-.38-.7l-1.63-3.19-.03-.07-6.45-12.62v-.02s-1.48-2.86-1.48-2.86l-.26-.55c-1.67-3.72-2.14-6.64-1.17-7.14.88-.44,2.73,1.34,4.56,4.23Z"/>
      <path class="cls-2" d="M81.68,4.3c.18.28.34.57.49.86l2.05,3.99v.03s6.07,11.85,6.07,11.85l1.87,3.67c.14.26.26.54.38.81,1.37,3.31,1.78,6.02.88,6.48-.93.47-2.95-1.57-4.89-4.77-.14-.23-.26-.46-.38-.7l-1.63-3.19-.03-.07-6.45-12.62v-.02s-1.48-2.86-1.48-2.86l-.26-.55c-1.67-3.72-2.14-6.64-1.17-7.14.88-.44,2.73,1.34,4.56,4.23Z"/>
      <path class="cls-2" d="M68.41,10.76c.18.28.34.57.49.86l2.05,3.99v.03s6.07,11.85,6.07,11.85l1.87,3.67c.14.26.26.54.38.81,1.37,3.31,1.78,6.02.88,6.48-.93.47-2.95-1.57-4.89-4.77-.14-.23-.26-.46-.38-.7l-1.63-3.19-.03-.07-6.45-12.62v-.02s-1.48-2.86-1.48-2.86l-.26-.55c-1.67-3.72-2.14-6.64-1.17-7.14.88-.44,2.73,1.34,4.56,4.23Z"/>
      <path class="cls-2" d="M92.07,3.93s.05.09.07.14l17.05,33.35.26.52c.3.58-.1,1.28-.75,1.33-.24.02-.49.03-.73.05-16.63,1.32-32.66,8.55-44.69,21.22-.18.18-.36.37-.53.56-.43.46-1.19.35-1.48-.21l-.3-.6-16.4-32.11c-.27-.48-.12-1.09.35-1.35.46-.26,1.05-.09,1.34.38,0,0,0,.01,0,.02.03.05.05.1.07.14l15.77,30.87c.14.27.49.32.7.11,11.91-12.1,27.45-19.13,43.63-20.72.31-.03.49-.36.35-.63L90.38,4.89c-.27-.49-.11-1.09.35-1.35.47-.27,1.07-.09,1.34.4Z"/>
      <circle class="cls-4" cx="112.59" cy="107.97" r="61.33"/>
      <circle class="cls-3" cx="112.51" cy="107.8" r="55.14"/>
      <circle class="cls-4" cx="112.59" cy="107.66" r="48.04"/>
      <path class="cls-2" d="M117.97,95.15c-.09,0-.19,0-.28-.02-.08-.02-.17-.03-.24-.06h0s-.06-.02-.08-.03c-.05-.02-.1-.04-.14-.06,0,0-.02,0-.03-.02-.02-.02-.03-.02-.05-.03-.05-.02-.09-.05-.13-.08,0,0-.02,0-.02,0-.08-.06-.17-.14-.23-.21-.16-.19-.27-.41-.33-.65-.02-.09-.03-.2-.03-.3v-2.77h21.57c.72,0,1.42.11,2.08.31.65.2,1.27.5,1.82.88h0c.37.26.71.55,1.03.86.95.95,1.62,2.16,1.89,3.51.05.22.08.45.11.68v.03s0,.05,0,.08c.02.2.03.41.03.61v-.35c0,.12,0,.24,0,.36v21c0,.11,0,.23,0,.35v-.36c0,.15,0,.31-.02.46,0,.02,0,.03,0,.05v.02c0,.1-.02.2-.04.3,0,.11-.02.22-.05.33,0,.05-.02.09-.03.14,0,.07-.02.14-.04.21h0s0,.04,0,.05c-.02.12-.06.23-.09.35,0,.03-.02.06-.03.1h0c-.02.05-.03.1-.05.14-.04.11-.08.22-.12.33,0,0,0,0,0,0-.05.12-.1.25-.16.36-.05.11-.1.2-.16.3-.03.08-.07.14-.11.21-.02.04-.05.08-.07.11-.02.03-.03.05-.05.08-.08.14-.17.26-.27.39-.02.03-.05.06-.07.09-.07.09-.14.17-.2.26h-.02s-.03.05-.05.08c-.05.05-.1.11-.15.17-.11.12-.23.24-.35.35-.02.02-.05.05-.07.06-.05.05-.1.09-.15.13-.05.05-.1.09-.15.14h0s-.06.05-.1.08c-.02.02-.04.03-.05.04-.06.05-.12.09-.17.13s-.1.08-.14.1c-.03.02-.05.05-.08.05-.05.04-.1.07-.16.1,0,0,0,0-.02.02-.08.05-.16.1-.24.14-.05.03-.1.06-.14.08-.05.03-.1.05-.15.08-.15.08-.3.14-.45.21-.83.34-1.75.53-2.71.53h.45c-.14,0-.3.02-.45.02h-21.6v-2.74h0s0-.05,0-.08c0-.76.61-1.39,1.39-1.48h.02c.13,0,.27,0,.41.02h.02c2.08.05,4.58.19,7.27.42,1.55.13,3.04.28,4.42.44.2.02.4.03.59.05l1.51.07c.53,0,1.01-.05,1.45-.13,0,0,.02,0,.02,0,2.92-.25,5.36-4.34,6.16-9.88.18-1.26.28-2.6.28-3.99,0-1.27-.08-2.5-.24-3.66-.03-.22-.06-.45-.1-.67-.05-.31-.11-.61-.17-.92-.55-2.8-1.52-5.14-2.76-6.68-.08-.11-.17-.2-.26-.3-.12-.14-.25-.27-.38-.39-.14-.14-.28-.27-.43-.39-.02-.02-.05-.05-.08-.07-.24-.21-.57-.4-.96-.56-.11-.05-.21-.08-.33-.12-.04-.02-.08-.03-.12-.04-.05-.02-.09-.03-.14-.04-.48-.17-1.04-.27-1.64-.32-.09,0-.18-.02-.26-.02h-.02c-.36-.02-.7-.02-1.02,0-.23.02-1.95.22-.53.05,0,0-.18.03-.18.03-1.48.17-3.11.34-4.82.48-2.74.23-5.28.37-7.37.42-.06,0-.06,0-.11,0h-.04Z"/>
      <path class="cls-2" d="M105.05,95.27c.09,0,.19,0,.28-.02.08-.02.17-.03.24-.06h0s.06-.02.08-.03c.05-.02.1-.04.14-.06,0,0,.02,0,.03-.02.02-.02.03-.02.05-.03.05-.02.09-.05.13-.08,0,0,.02,0,.02,0,.08-.06.17-.14.23-.21.16-.19.27-.41.33-.65.02-.09.03-.2.03-.3v-2.77h-21.57c-.72,0-1.42.11-2.08.31-.65.2-1.27.5-1.82.88h0c-.37.26-.71.55-1.03.86-.95.95-1.62,2.16-1.89,3.51-.05.22-.08.45-.11.68v.03s0,.05,0,.08c-.02.2-.03.41-.03.61v-.35c0,.12,0,.24,0,.36v21c0,.11,0,.23,0,.35v-.36c0,.15,0,.31.02.46,0,.02,0,.03,0,.05v.02c0,.1.02.2.04.3,0,.11.02.22.05.33,0,.05.02.09.03.14,0,.07.02.14.04.21h0s0,.04,0,.05c.02.12.06.23.09.35,0,.03.02.06.03.1h0c.02.05.03.1.05.14.04.11.08.22.12.33,0,0,0,0,0,0,.05.12.1.25.16.36.05.11.1.2.16.3.03.08.07.14.11.21.02.04.05.08.07.11.02.03.03.05.05.08.08.14.17.26.27.39.02.03.05.06.07.09.07.09.14.17.2.26h.02s.03.05.05.08c.05.05.1.11.15.17.11.12.23.24.35.35.02.02.05.05.07.06.05.05.1.09.15.13.05.05.1.09.15.14h0s.06.05.1.08c.02.02.04.03.05.04.06.05.12.09.17.13s.1.08.14.1c.03.02.05.05.08.05.05.04.1.07.16.1,0,0,0,0,.02.02.08.05.16.1.24.14.05.03.1.06.14.08.05.03.1.05.15.08.15.08.3.14.45.21.83.34,1.75.53,2.71.53h-.45c.14,0,.3.02.45.02h21.6v-2.74h0s0-.05,0-.08c0-.76-.61-1.39-1.39-1.48h-.02c-.13,0-.27,0-.41.02h-.02c-2.08.05-4.58.19-7.27.42-1.55.13-3.04.28-4.42.44-.2.02-.4.03-.59.05l-1.51.07c-.53,0-1.01-.05-1.45-.13,0,0-.02,0-.02,0-2.92-.25-5.36-4.34-6.16-9.88-.18-1.26-.28-2.6-.28-3.99,0-1.27.08-2.5.24-3.66.03-.22.06-.45.1-.67.05-.31.11-.61.17-.92.55-2.8,1.52-5.14,2.76-6.68.08-.11.17-.2.26-.3.12-.14.25-.27.38-.39.14-.14.28-.27.43-.39.02-.02.05-.05.08-.07.24-.21.57-.4.96-.56.11-.05.21-.08.33-.12.04-.02.08-.03.12-.04.05-.02.09-.03.14-.04.48-.17,1.04-.27,1.64-.32.09,0,.18-.02.26-.02h.02c.36-.02.7-.02,1.02,0,.23.02.31.01.53.05,0,0,.18.03.18.03,1.48.17,3.11.34,4.82.48,2.74.23,5.28.37,7.37.42.06,0,.06,0,.11,0h.04Z"/>
      <path class="cls-2" d="M130.34,103.54v.45s-.02,1.11-.28,2.19c-.61,2.59-2.04,4.19-2.04,4.19-.42.48-.89.87-1.35,1.19h0c-2.07,1.44-4.38,1.54-4.93,1.57-1.62.08-3.07-.41-4.29-.79-.33-.11-.58-.19-1.04-.38-.33-.12-.76-.3-1.43-.57-.53-.21-1.06-.43-1.59-.64-1.09-.44-2.19-.88-3.28-1.33-.05-.02-.08-.04-.13-.05-1.6-.64-2.57-1.04-3.28-1.3-.68-.26-1.11-.41-1.6-.57-2.45-.79-3.27-.83-3.84-.8-.7.03-2.25.11-3.68,1.19-.4.3-.72.62-.98.94-.44.54-.7,1.06-.9,1.44-.58,1.12-.78,2.15-.86,2.81h-1.55c.04-.83.17-2,.6-3.34.36-1.13.79-2.51,2.02-3.84.12-.13.3-.33.55-.55.61-.56,1.63-1.32,3.05-1.7.3-.08,1.36-.34,3.41-.09,1.08.14,2.02.36,3.79.99.49.17,1.05.39,1.7.63.52.2,1.04.4,1.58.61,1.04.41,2.13.84,3.41,1.39.39.16.79.33,1.22.52.63.27,1.2.53,1.8.78.66.27,1.36.53,2.23.8,2.15.67,3.12.7,3.6.7.9,0,2.2-.02,3.51-.83.28-.17.52-.36.74-.55.92-.81,1.36-1.75,1.6-2.26.53-1.13.67-2.15.7-2.79h1.56Z"/>
      <polygon class="cls-2" points="113.41 76.64 113.41 105.79 110 104.42 110 76.64 113.41 76.64"/>
      <path class="cls-2" d="M122.12,134.82v3.26h-12.09v-27.55l3.41,1.41v22.38s0,0,.01,0c.04.46.33.84.73.98.09.03.19.05.29.05.02,0,.04.02.05,0,.97.17,2.4.16,3.98-.05,1.23-.17,2.35-.43,3.2-.73.02,0,.05-.02.06-.02.02-.02.05-.02.07-.02.16,0,.3.14.3.3Z"/>
    </g>
  </g>
</svg>