<svg width="49" height="49" viewBox="0 0 49 49" fill="none" xmlns="http://www.w3.org/2000/svg">
<g clip-path="url(#clip0_123_559)">
<path d="M30.5 38.543C29.4391 38.543 28.4217 38.1215 27.6716 37.3714C26.9214 36.6213 26.5 35.6038 26.5 34.543V22.543C26.5 16.283 29.8 12.157 36.014 10.603C36.2695 10.537 36.5355 10.5223 36.7967 10.5596C37.0579 10.5969 37.3091 10.6855 37.5359 10.8204C37.7627 10.9552 37.9606 11.1336 38.1181 11.3452C38.2757 11.5568 38.3898 11.7975 38.4539 12.0535C38.518 12.3094 38.5309 12.5755 38.4917 12.8364C38.4525 13.0974 38.3621 13.3479 38.2257 13.5738C38.0892 13.7996 37.9094 13.9962 37.6967 14.1522C37.4839 14.3083 37.2424 14.4207 36.986 14.483C32.532 15.597 30.5 18.137 30.5 22.543V24.543H36.5C37.5092 24.5426 38.4811 24.9238 39.2211 25.61C39.9611 26.2961 40.4143 27.2367 40.49 28.243L40.5 28.543V34.543C40.5 35.6038 40.0786 36.6213 39.3284 37.3714C38.5783 38.1215 37.5609 38.543 36.5 38.543H30.5Z" fill="#AD1518"/>
<path d="M12.5 38.543C11.4391 38.543 10.4217 38.1215 9.67157 37.3714C8.92143 36.6213 8.5 35.6038 8.5 34.543V22.543C8.5 16.283 11.8 12.157 18.014 10.603C18.2695 10.537 18.5355 10.5223 18.7967 10.5596C19.0579 10.5969 19.3091 10.6855 19.5359 10.8204C19.7627 10.9552 19.9606 11.1336 20.1181 11.3452C20.2757 11.5568 20.3898 11.7975 20.4539 12.0535C20.518 12.3094 20.5309 12.5755 20.4917 12.8364C20.4525 13.0974 20.3621 13.3479 20.2257 13.5738C20.0892 13.7996 19.9094 13.9962 19.6967 14.1522C19.4839 14.3083 19.2424 14.4207 18.986 14.483C14.532 15.597 12.5 18.137 12.5 22.543V24.543H18.5C19.5092 24.5426 20.4811 24.9238 21.2211 25.61C21.9611 26.2961 22.4143 27.2367 22.49 28.243L22.5 28.543V34.543C22.5 35.6038 22.0786 36.6213 21.3284 37.3714C20.5783 38.1215 19.5609 38.543 18.5 38.543H12.5Z" fill="#AD1518"/>
</g>
<defs>
<clipPath id="clip0_123_559">
<rect width="48" height="48" fill="white" transform="matrix(-1 0 0 -1 48.5 48.543)"/>
</clipPath>
</defs>
</svg>
