<svg width="31" height="30" viewBox="0 0 31 30" fill="none" xmlns="http://www.w3.org/2000/svg">
<rect x="0.433594" y="0.969238" width="30" height="29" rx="4" fill="#57F900" fill-opacity="0.1"/>
<path d="M4.92959 20.9692L9.05759 9.76924H10.5936L14.7216 20.9692H13.2016L9.50559 10.6492H10.1456L6.44959 20.9692H4.92959ZM6.84959 18.1212L7.24959 16.9692H12.4016L12.8016 18.1212H6.84959ZM16.5108 20.9692V20.2812C16.5108 19.3532 16.6495 18.5906 16.9268 17.9932C17.2042 17.3959 17.5882 16.9052 18.0788 16.5212C18.5802 16.1266 19.1615 15.7799 19.8228 15.4812L20.6868 15.0972C21.3908 14.7772 21.9295 14.4572 22.3028 14.1372C22.6762 13.8066 22.8628 13.3586 22.8628 12.7932C22.8628 12.4519 22.7882 12.1319 22.6388 11.8332C22.4895 11.5239 22.2442 11.2786 21.9028 11.0972C21.5722 10.9052 21.1295 10.8092 20.5748 10.8092C20.0202 10.8092 19.5615 10.9159 19.1988 11.1292C18.8362 11.3426 18.5642 11.6252 18.3828 11.9772C18.2015 12.3186 18.1108 12.7026 18.1108 13.1292H16.7188C16.7188 12.3719 16.8895 11.7319 17.2308 11.2092C17.5722 10.6759 18.0308 10.2706 18.6068 9.99324C19.1935 9.7159 19.8548 9.57724 20.5908 9.57724C21.3055 9.57724 21.9348 9.6999 22.4788 9.94524C23.0335 10.1799 23.4708 10.5319 23.7908 11.0012C24.1215 11.4706 24.2868 12.0466 24.2868 12.7292C24.2868 13.5186 24.0468 14.1852 23.5668 14.7292C23.0868 15.2626 22.4202 15.7319 21.5668 16.1372L20.1428 16.7932C19.5562 17.0599 19.1082 17.3479 18.7988 17.6572C18.4895 17.9666 18.2762 18.2972 18.1588 18.6492C18.0415 19.0012 17.9828 19.3746 17.9828 19.7692H24.4628V20.9692H16.5108Z" fill="black"/>
</svg>
