<svg width="31" height="30" viewBox="0 0 31 30" fill="none" xmlns="http://www.w3.org/2000/svg">
<rect x="0.433594" y="0.969238" width="30" height="29" rx="4" fill="#EDC80C" fill-opacity="0.1"/>
<path d="M5.53759 20.9692V9.76924H9.64959C10.4389 9.76924 11.0896 9.89724 11.6016 10.1532C12.1243 10.3986 12.5136 10.7346 12.7696 11.1612C13.0256 11.5879 13.1536 12.0732 13.1536 12.6172C13.1536 13.1932 13.0256 13.6732 12.7696 14.0572C12.5243 14.4412 12.1989 14.7346 11.7936 14.9372C11.3989 15.1399 10.9776 15.2626 10.5296 15.3052L10.7856 15.1452C11.2656 15.1559 11.7029 15.2892 12.0976 15.5452C12.5029 15.7906 12.8283 16.1212 13.0736 16.5372C13.3189 16.9426 13.4416 17.4012 13.4416 17.9132C13.4416 18.4786 13.2976 18.9959 13.0096 19.4652C12.7323 19.9239 12.3216 20.2919 11.7776 20.5692C11.2443 20.8359 10.5829 20.9692 9.79359 20.9692H5.53759ZM6.97759 19.7692H9.63359C10.3803 19.7692 10.9563 19.5986 11.3616 19.2572C11.7669 18.9052 11.9696 18.4199 11.9696 17.8012C11.9696 17.1826 11.7563 16.6919 11.3296 16.3292C10.9029 15.9666 10.3269 15.7852 9.60159 15.7852H6.97759V19.7692ZM6.97759 14.6492H9.52159C10.2149 14.6492 10.7483 14.4839 11.1216 14.1532C11.4949 13.8226 11.6816 13.3692 11.6816 12.7932C11.6816 12.2386 11.5003 11.7959 11.1376 11.4652C10.7749 11.1239 10.2203 10.9532 9.47359 10.9532H6.97759V14.6492ZM15.2765 20.9692V20.2812C15.2765 19.3532 15.4151 18.5906 15.6925 17.9932C15.9698 17.3959 16.3538 16.9052 16.8445 16.5212C17.3458 16.1266 17.9271 15.7799 18.5885 15.4812L19.4525 15.0972C20.1565 14.7772 20.6951 14.4572 21.0685 14.1372C21.4418 13.8066 21.6285 13.3586 21.6285 12.7932C21.6285 12.4519 21.5538 12.1319 21.4045 11.8332C21.2551 11.5239 21.0098 11.2786 20.6685 11.0972C20.3378 10.9052 19.8951 10.8092 19.3405 10.8092C18.7858 10.8092 18.3271 10.9159 17.9645 11.1292C17.6018 11.3426 17.3298 11.6252 17.1485 11.9772C16.9671 12.3186 16.8765 12.7026 16.8765 13.1292H15.4845C15.4845 12.3719 15.6551 11.7319 15.9965 11.2092C16.3378 10.6759 16.7965 10.2706 17.3725 9.99324C17.9591 9.7159 18.6205 9.57724 19.3565 9.57724C20.0711 9.57724 20.7005 9.6999 21.2445 9.94524C21.7991 10.1799 22.2365 10.5319 22.5565 11.0012C22.8871 11.4706 23.0525 12.0466 23.0525 12.7292C23.0525 13.5186 22.8125 14.1852 22.3325 14.7292C21.8525 15.2626 21.1858 15.7319 20.3325 16.1372L18.9085 16.7932C18.3218 17.0599 17.8738 17.3479 17.5645 17.6572C17.2551 17.9666 17.0418 18.2972 16.9245 18.6492C16.8071 19.0012 16.7485 19.3746 16.7485 19.7692H23.2285V20.9692H15.2765Z" fill="black"/>
</svg>
