<svg width="33" height="32" viewBox="0 0 33 32" fill="none" xmlns="http://www.w3.org/2000/svg">
<rect x="0.5" width="32" height="32" rx="8" fill="#AD1518" fill-opacity="0.1"/>
<g clip-path="url(#clip0_139_2249)">
<path d="M19.5 14.0001L24.053 11.7241C24.2054 11.648 24.3748 11.612 24.545 11.6197C24.7152 11.6273 24.8806 11.6784 25.0256 11.7679C25.1706 11.8575 25.2902 11.9826 25.3733 12.1314C25.4563 12.2802 25.4999 12.4477 25.5 12.6181V19.3821C25.4999 19.5525 25.4563 19.7201 25.3733 19.8688C25.2902 20.0176 25.1706 20.1428 25.0256 20.2323C24.8806 20.3219 24.7152 20.3729 24.545 20.3806C24.3748 20.3882 24.2054 20.3523 24.053 20.2761L19.5 18.0001V14.0001Z" stroke="black" stroke-width="2" stroke-linecap="round" stroke-linejoin="round"/>
<path d="M7.5 12C7.5 11.4696 7.71071 10.9609 8.08579 10.5858C8.46086 10.2107 8.96957 10 9.5 10H17.5C18.0304 10 18.5391 10.2107 18.9142 10.5858C19.2893 10.9609 19.5 11.4696 19.5 12V20C19.5 20.5304 19.2893 21.0391 18.9142 21.4142C18.5391 21.7893 18.0304 22 17.5 22H9.5C8.96957 22 8.46086 21.7893 8.08579 21.4142C7.71071 21.0391 7.5 20.5304 7.5 20V12Z" stroke="black" stroke-width="2" stroke-linecap="round" stroke-linejoin="round"/>
</g>
<defs>
<clipPath id="clip0_139_2249">
<rect width="24" height="24" fill="white" transform="translate(4.5 4)"/>
</clipPath>
</defs>
</svg>
