<svg width="31" height="30" viewBox="0 0 31 30" fill="none" xmlns="http://www.w3.org/2000/svg">
<rect x="0.433594" y="0.969238" width="30" height="29" rx="4" fill="#AD1518" fill-opacity="0.1"/>
<path d="M10.3376 21.1612C9.23893 21.1612 8.28959 20.9212 7.48959 20.4412C6.68959 19.9506 6.07093 19.2732 5.63359 18.4092C5.19626 17.5346 4.97759 16.5212 4.97759 15.3692C4.97759 14.2279 5.19626 13.2199 5.63359 12.3452C6.07093 11.4706 6.68959 10.7932 7.48959 10.3132C8.28959 9.82257 9.23893 9.57724 10.3376 9.57724C11.6389 9.57724 12.6896 9.88657 13.4896 10.5052C14.3003 11.1239 14.8176 11.9932 15.0416 13.1132H13.4416C13.2816 12.4306 12.9403 11.8866 12.4176 11.4812C11.9056 11.0652 11.2069 10.8572 10.3216 10.8572C9.54293 10.8572 8.86026 11.0386 8.27359 11.4012C7.69759 11.7639 7.24959 12.2812 6.92959 12.9532C6.60959 13.6252 6.44959 14.4306 6.44959 15.3692C6.44959 16.3079 6.60959 17.1186 6.92959 17.8012C7.24959 18.4732 7.69759 18.9906 8.27359 19.3532C8.86026 19.7052 9.54293 19.8812 10.3216 19.8812C11.2069 19.8812 11.9109 19.6839 12.4336 19.2892C12.9563 18.8946 13.3083 18.3239 13.4896 17.5772H15.0736C14.8389 18.7292 14.3163 19.6146 13.5056 20.2332C12.6949 20.8519 11.6389 21.1612 10.3376 21.1612ZM20.5308 20.3772V12.3452H17.3468V11.2892L19.8588 11.1132C20.0615 11.0919 20.2215 11.0279 20.3388 10.9212C20.4668 10.8039 20.5308 10.6439 20.5308 10.4412V9.76924H21.9868V20.3772H20.5308ZM16.9628 20.9692V19.7692H25.2828V20.9692H16.9628Z" fill="black"/>
</svg>
