<svg width="31" height="30" viewBox="0 0 31 30" fill="none" xmlns="http://www.w3.org/2000/svg">
<rect x="0.433594" y="0.969238" width="30" height="29" rx="4" fill="#AD1518" fill-opacity="0.1"/>
<path d="M10.3376 21.1612C9.23893 21.1612 8.28959 20.9212 7.48959 20.4412C6.68959 19.9506 6.07093 19.2732 5.63359 18.4092C5.19626 17.5346 4.97759 16.5212 4.97759 15.3692C4.97759 14.2279 5.19626 13.2199 5.63359 12.3452C6.07093 11.4706 6.68959 10.7932 7.48959 10.3132C8.28959 9.82257 9.23893 9.57724 10.3376 9.57724C11.6389 9.57724 12.6896 9.88657 13.4896 10.5052C14.3003 11.1239 14.8176 11.9932 15.0416 13.1132H13.4416C13.2816 12.4306 12.9403 11.8866 12.4176 11.4812C11.9056 11.0652 11.2069 10.8572 10.3216 10.8572C9.54293 10.8572 8.86026 11.0386 8.27359 11.4012C7.69759 11.7639 7.24959 12.2812 6.92959 12.9532C6.60959 13.6252 6.44959 14.4306 6.44959 15.3692C6.44959 16.3079 6.60959 17.1186 6.92959 17.8012C7.24959 18.4732 7.69759 18.9906 8.27359 19.3532C8.86026 19.7052 9.54293 19.8812 10.3216 19.8812C11.2069 19.8812 11.9109 19.6839 12.4336 19.2892C12.9563 18.8946 13.3083 18.3239 13.4896 17.5772H15.0736C14.8389 18.7292 14.3163 19.6146 13.5056 20.2332C12.6949 20.8519 11.6389 21.1612 10.3376 21.1612ZM17.0108 20.9692V20.2812C17.0108 19.3532 17.1495 18.5906 17.4268 17.9932C17.7042 17.3959 18.0882 16.9052 18.5788 16.5212C19.0802 16.1266 19.6615 15.7799 20.3228 15.4812L21.1868 15.0972C21.8908 14.7772 22.4295 14.4572 22.8028 14.1372C23.1762 13.8066 23.3628 13.3586 23.3628 12.7932C23.3628 12.4519 23.2882 12.1319 23.1388 11.8332C22.9895 11.5239 22.7442 11.2786 22.4028 11.0972C22.0722 10.9052 21.6295 10.8092 21.0748 10.8092C20.5202 10.8092 20.0615 10.9159 19.6988 11.1292C19.3362 11.3426 19.0642 11.6252 18.8828 11.9772C18.7015 12.3186 18.6108 12.7026 18.6108 13.1292H17.2188C17.2188 12.3719 17.3895 11.7319 17.7308 11.2092C18.0722 10.6759 18.5308 10.2706 19.1068 9.99324C19.6935 9.7159 20.3548 9.57724 21.0908 9.57724C21.8055 9.57724 22.4348 9.6999 22.9788 9.94524C23.5335 10.1799 23.9708 10.5319 24.2908 11.0012C24.6215 11.4706 24.7868 12.0466 24.7868 12.7292C24.7868 13.5186 24.5468 14.1852 24.0668 14.7292C23.5868 15.2626 22.9202 15.7319 22.0668 16.1372L20.6428 16.7932C20.0562 17.0599 19.6082 17.3479 19.2988 17.6572C18.9895 17.9666 18.7762 18.2972 18.6588 18.6492C18.5415 19.0012 18.4828 19.3746 18.4828 19.7692H24.9628V20.9692H17.0108Z" fill="black"/>
</svg>
