<svg width="50" height="50" viewBox="0 0 50 50" fill="none" xmlns="http://www.w3.org/2000/svg">
<rect x="0.418945" y="0.767578" width="48.6451" height="48.6451" rx="24.3226" fill="#AD1518"/>
<path d="M16.6816 32.143C16.6816 32.6774 16.8939 33.1899 17.2718 33.5678C17.6497 33.9457 18.1622 34.158 18.6967 34.158C19.2311 34.158 19.7436 33.9457 20.1215 33.5678C20.4994 33.1899 20.7117 32.6774 20.7117 32.143C20.7117 31.6085 20.4994 31.096 20.1215 30.7181C19.7436 30.3402 19.2311 30.1279 18.6967 30.1279C18.1622 30.1279 17.6497 30.3402 17.2718 30.7181C16.8939 31.096 16.6816 31.6085 16.6816 32.143Z" stroke="white" stroke-width="1.73976" stroke-linecap="round" stroke-linejoin="round"/>
<path d="M27.7637 32.143C27.7637 32.6774 27.976 33.1899 28.3539 33.5678C28.7317 33.9457 29.2443 34.158 29.7787 34.158C30.3131 34.158 30.8256 33.9457 31.2035 33.5678C31.5814 33.1899 31.7937 32.6774 31.7937 32.143C31.7937 31.6085 31.5814 31.096 31.2035 30.7181C30.8256 30.3402 30.3131 30.1279 29.7787 30.1279C29.2443 30.1279 28.7317 30.3402 28.3539 30.7181C27.976 31.096 27.7637 31.6085 27.7637 32.143Z" stroke="white" stroke-width="1.73976" stroke-linecap="round" stroke-linejoin="round"/>
<path d="M29.7793 30.1276H18.6967V16.0225H16.6816" stroke="white" stroke-width="1.73976" stroke-linecap="round" stroke-linejoin="round"/>
<path d="M18.6963 18.0381L32.8015 19.0456L31.7939 26.0982H18.6963" stroke="white" stroke-width="1.73976" stroke-linecap="round" stroke-linejoin="round"/>
</svg>
