<svg width="23" height="23" viewBox="0 0 23 23" fill="none" xmlns="http://www.w3.org/2000/svg">
<path d="M12.4005 11.1123V19.1743C12.4005 19.4532 12.2897 19.7207 12.0925 19.9179C11.8953 20.1151 11.6278 20.2259 11.3489 20.2259C11.07 20.2259 10.8025 20.1151 10.6053 19.9179C10.4081 19.7207 10.2973 19.4532 10.2973 19.1743V11.1123C10.2973 10.8334 10.4081 10.5659 10.6053 10.3687C10.8025 10.1715 11.07 10.0607 11.3489 10.0607C11.6278 10.0607 11.8953 10.1715 12.0925 10.3687C12.2897 10.5659 12.4005 10.8334 12.4005 11.1123ZM17.6583 17.0712C17.3794 17.0712 17.112 17.182 16.9148 17.3792C16.7175 17.5764 16.6068 17.8439 16.6068 18.1227V19.1743C16.6068 19.4532 16.7175 19.7207 16.9148 19.9179C17.112 20.1151 17.3794 20.2259 17.6583 20.2259C17.9372 20.2259 18.2047 20.1151 18.4019 19.9179C18.5991 19.7207 18.7099 19.4532 18.7099 19.1743V18.1227C18.7099 17.8439 18.5991 17.5764 18.4019 17.3792C18.2047 17.182 17.9372 17.0712 17.6583 17.0712ZM19.7615 13.5659H18.7099V3.75128C18.7099 3.47238 18.5991 3.20491 18.4019 3.0077C18.2047 2.8105 17.9372 2.69971 17.6583 2.69971C17.3794 2.69971 17.112 2.8105 16.9148 3.0077C16.7175 3.20491 16.6068 3.47238 16.6068 3.75128V13.5659H15.5552C15.2763 13.5659 15.0088 13.6767 14.8116 13.8739C14.6144 14.0711 14.5036 14.3386 14.5036 14.6175C14.5036 14.8964 14.6144 15.1639 14.8116 15.3611C15.0088 15.5583 15.2763 15.6691 15.5552 15.6691H19.7615C20.0404 15.6691 20.3078 15.5583 20.505 15.3611C20.7022 15.1639 20.813 14.8964 20.813 14.6175C20.813 14.3386 20.7022 14.0711 20.505 13.8739C20.3078 13.6767 20.0404 13.5659 19.7615 13.5659ZM5.03948 14.267C4.76058 14.267 4.49311 14.3778 4.2959 14.575C4.0987 14.7722 3.98791 15.0397 3.98791 15.3186V19.1743C3.98791 19.4532 4.0987 19.7207 4.2959 19.9179C4.49311 20.1151 4.76058 20.2259 5.03948 20.2259C5.31837 20.2259 5.58584 20.1151 5.78305 19.9179C5.98026 19.7207 6.09105 19.4532 6.09105 19.1743V15.3186C6.09105 15.0397 5.98026 14.7722 5.78305 14.575C5.58584 14.3778 5.31837 14.267 5.03948 14.267ZM7.14262 10.7617H6.09105V3.75128C6.09105 3.47238 5.98026 3.20491 5.78305 3.0077C5.58584 2.8105 5.31837 2.69971 5.03948 2.69971C4.76058 2.69971 4.49311 2.8105 4.2959 3.0077C4.0987 3.20491 3.98791 3.47238 3.98791 3.75128V10.7617H2.93634C2.65744 10.7617 2.38997 10.8725 2.19276 11.0697C1.99556 11.267 1.88477 11.5344 1.88477 11.8133C1.88477 12.0922 1.99556 12.3597 2.19276 12.5569C2.38997 12.7541 2.65744 12.8649 2.93634 12.8649H7.14262C7.42151 12.8649 7.68898 12.7541 7.88619 12.5569C8.0834 12.3597 8.19419 12.0922 8.19419 11.8133C8.19419 11.5344 8.0834 11.267 7.88619 11.0697C7.68898 10.8725 7.42151 10.7617 7.14262 10.7617ZM13.452 6.55547H12.4005V3.75128C12.4005 3.47238 12.2897 3.20491 12.0925 3.0077C11.8953 2.8105 11.6278 2.69971 11.3489 2.69971C11.07 2.69971 10.8025 2.8105 10.6053 3.0077C10.4081 3.20491 10.2973 3.47238 10.2973 3.75128V6.55547H9.24576C8.96687 6.55547 8.6994 6.66626 8.50219 6.86346C8.30498 7.06067 8.19419 7.32814 8.19419 7.60704C8.19419 7.88593 8.30498 8.1534 8.50219 8.35061C8.6994 8.54782 8.96687 8.65861 9.24576 8.65861H13.452C13.7309 8.65861 13.9984 8.54782 14.1956 8.35061C14.3928 8.1534 14.5036 7.88593 14.5036 7.60704C14.5036 7.32814 14.3928 7.06067 14.1956 6.86346C13.9984 6.66626 13.7309 6.55547 13.452 6.55547Z" fill="#333333" fill-opacity="0.6"/>
</svg>
