<svg width="23" height="24" viewBox="0 0 23 24" fill="none" xmlns="http://www.w3.org/2000/svg">
<path d="M20.2532 12.0895C20.2532 12.3686 20.1423 12.6363 19.945 12.8337C19.7476 13.031 19.4799 13.1419 19.2008 13.1419H12.5355V19.8072C12.5355 20.0863 12.4246 20.354 12.2272 20.5514C12.0299 20.7488 11.7622 20.8596 11.483 20.8596C11.2039 20.8596 10.9362 20.7488 10.7389 20.5514C10.5415 20.354 10.4306 20.0863 10.4306 19.8072V13.1419H3.76531C3.48619 13.1419 3.2185 13.031 3.02114 12.8337C2.82377 12.6363 2.71289 12.3686 2.71289 12.0895C2.71289 11.8104 2.82377 11.5427 3.02114 11.3453C3.2185 11.148 3.48619 11.0371 3.76531 11.0371H10.4306V4.37175C10.4306 4.09264 10.5415 3.82495 10.7389 3.62758C10.9362 3.43022 11.2039 3.31934 11.483 3.31934C11.7622 3.31934 12.0299 3.43022 12.2272 3.62758C12.4246 3.82495 12.5355 4.09264 12.5355 4.37175V11.0371H19.2008C19.4799 11.0371 19.7476 11.148 19.945 11.3453C20.1423 11.5427 20.2532 11.8104 20.2532 12.0895Z" fill="black"/>
</svg>
