<svg width="60" height="61" viewBox="0 0 60 61" fill="none" xmlns="http://www.w3.org/2000/svg">
<g clip-path="url(#clip0_290_6295)">
<path d="M0 0.5H60V60.5H0V0.5Z" fill="#AD1518" fill-opacity="0.1"/>
<path d="M23.0114 11.5036C23.8989 11.4382 25.0992 12.2666 24.8187 13.2258C24.882 13.3212 24.9516 13.4222 25.0204 13.5136C25.5935 14.2751 25.9563 15.1813 26.121 16.1159C26.7839 16.1287 27.7972 16.3046 28.43 16.482C31.5966 17.3699 34.4234 19.6014 36.0186 22.4784C36.997 24.2288 37.6807 26.5292 37.1005 28.5245C36.2858 31.3257 33.5073 33.2466 31.0276 34.4812C30.6653 34.6616 30.2993 34.8198 29.9478 35.0178C29.9351 35.2346 29.9261 35.4492 29.9174 35.6661C30.2253 35.7326 30.6201 35.9381 30.9486 36.0405C31.1155 35.7205 31.2492 35.3537 31.4177 35.0491C32.4093 35.6504 33.3595 36.3474 34.2763 37.0563C34.6384 37.3363 34.9814 37.6507 35.3338 37.9447C35.4548 37.6693 35.6645 37.1563 35.8008 36.909C36.0604 36.4382 37.3748 34.2196 37.6584 34.0091C37.7326 34.0507 38.1098 34.9502 38.179 35.1074C38.424 34.8675 38.6422 34.6364 38.9419 34.4662C39.0686 34.6992 39.1664 35.1074 39.2397 35.3712C39.4099 35.2419 39.6243 35.1085 39.8052 34.9897L39.8332 35.0006C40.5499 35.2852 40.4499 35.5467 40.2023 36.1548C39.7099 37.3642 39.0896 38.5504 38.5934 39.7522C39.3241 40.5011 39.258 41.2527 38.5291 42.0024C38.2062 42.3346 37.9334 42.4106 37.4715 42.4076C37.2816 42.8597 36.9464 43.6619 36.6682 44.0648C36.6136 44.1438 35.6983 44.6742 35.5398 44.7799C35.1159 45.0625 34.702 45.3214 34.2944 45.653C34.7652 46.0946 35.3116 46.4447 35.7532 46.9243C35.9026 47.0867 36.1603 47.3701 36.1425 47.6056C36.1375 47.6726 36.1097 47.7337 36.058 47.7774C35.6784 48.0981 32.6592 47.7599 32.0372 47.6973C32.2105 47.9592 32.5401 48.333 32.5447 48.6565C32.5458 48.7328 32.5252 48.794 32.4672 48.847C32.3127 48.9882 31.2805 48.9126 31.0294 48.9106C29.1344 48.9239 23.5747 48.3059 22.1842 47.0526C21.2325 46.9917 19.9926 46.7206 19.1812 46.2084C18.9394 46.0557 18.7642 45.7043 18.9853 45.4801C19.4155 45.044 20.4506 44.9882 21.0312 44.9361C20.5033 43.0027 20.9653 40.5814 21.6003 38.7298C21.8589 37.9759 22.1546 37.2236 22.568 36.5393C20.0244 36.6228 17.5143 35.7904 15.7997 33.8434C12.4483 30.0379 13.2243 24.2058 16.3627 20.5298C16.8756 19.929 17.3675 19.4626 17.9516 18.9394C17.826 18.7533 17.7006 18.5368 17.5646 18.3623C17.1094 17.7783 16.4649 17.2192 15.7821 16.9266C15.4028 17.5796 14.4201 17.5435 13.8582 17.2017C11.9776 16.0578 13.5435 14.431 15.1555 15.333C15.5775 15.5691 15.7496 15.843 15.8737 16.3115C16.9979 16.746 17.7907 17.5343 18.4481 18.5199C20.0576 17.3832 21.9313 16.578 23.8811 16.2578C24.4224 16.1689 24.9907 16.1375 25.5384 16.1061C25.3141 15.2296 25.0319 14.4554 24.4423 13.7465C22.8554 14.6458 20.9647 11.8084 23.0114 11.5036Z" fill="#5D4071"/>
<path d="M25.158 16.743C25.7723 16.6939 26.4018 16.7374 27.0121 16.813C29.958 17.178 32.7047 18.9698 34.5058 21.2876C35.8836 23.0606 36.9941 25.4109 36.6981 27.7103C36.3128 30.7046 33.1149 32.9612 30.5947 34.1628C29.7005 34.5891 28.7719 34.9296 27.8254 35.2195C27.4747 35.3268 25.2686 35.8274 25.1535 35.941C25.1111 35.9828 25.113 36.0035 25.1124 36.0585C25.2077 36.254 25.6003 36.2355 25.795 36.2323C26.9904 36.2122 28.5168 36.1015 29.6423 35.7042C29.6866 36.164 29.5865 36.2147 29.4724 36.6697C29.3461 36.6347 29.1066 36.5687 28.9837 36.6203C28.7678 36.7109 27.6849 40.3238 27.5348 40.827C26.4396 40.4593 25.2746 39.5599 24.5653 38.6453C24.4567 38.5052 24.1313 37.9868 24.0672 37.951C23.9935 37.9608 24.0274 37.9469 23.9676 38.0057C23.9501 38.0467 23.9441 38.0803 23.9568 38.1248C24.3227 39.388 25.3452 40.2754 26.5104 40.8034C27.1799 41.1068 27.5256 41.196 28.2353 41.0583C28.3385 40.8122 28.7524 39.9426 29.0557 39.968C29.2769 40.1499 29.0145 40.8375 29.1138 41.0305C29.1661 41.0724 29.164 41.0776 29.2397 41.0818C29.4753 41.0952 30.555 40.295 30.7001 40.6156C30.6466 41.0576 29.3973 41.6579 29.5193 41.9201C29.823 42.1802 30.415 41.6037 30.7641 41.6823C30.798 41.7206 30.8039 41.7271 30.7966 41.7821C30.766 42.0096 30.3605 42.2886 30.1768 42.4094C28.9616 43.2091 26.3722 43.2822 24.9674 42.9858C24.1344 42.81 23.2368 42.3607 22.7642 41.6218C22.6071 41.3761 22.517 41.0741 22.3584 40.8421C22.3142 40.7775 22.271 40.732 22.1919 40.7173C22.0194 40.8128 22.1376 41.1845 22.1839 41.3406C22.8155 43.2807 25.0625 43.7641 26.8678 43.6619C26.8325 43.7754 26.7953 43.8864 26.7574 43.999C25.895 43.7961 24.6126 44.0185 23.87 44.5175C23.6628 44.6568 22.7622 45.4111 22.9669 45.6555C23.083 45.6617 23.2081 45.4848 23.2907 45.3983C24.1387 44.5098 25.497 44.2467 26.6781 44.3538C26.4618 45.0589 26.2659 45.3836 27.2162 45.5433C27.8817 45.6551 28.557 45.7565 29.2245 45.8606C29.5861 45.8997 29.8549 46.1895 30.1167 46.4162C30.7992 47.0069 31.342 47.6766 31.8587 48.4101C31.1685 48.3615 30.4844 48.3452 29.7851 48.2876C28.3429 48.1689 26.9152 47.9906 25.4954 47.7039C24.7107 47.5454 23.6989 47.3142 22.984 46.9446C22.3136 46.5979 21.8369 45.7489 21.6307 45.0316C20.9388 42.6258 21.6268 39.9707 22.5538 37.726C22.6912 37.3934 22.8673 37.0991 23.0262 36.7843C23.128 36.5825 23.3543 36.3558 23.4134 36.1944C23.398 36.0676 23.3128 36.0418 23.1903 36.0445C20.8575 36.0973 18.5646 35.6091 16.7826 34.0118C15.1671 32.5637 14.3552 30.5026 14.2446 28.3602C13.961 22.212 19.0951 17.0289 25.158 16.743Z" fill="#CFE5D9"/>
<path d="M23.381 22.5494L23.4145 22.5493C24.8607 22.5498 26.2018 23.2792 27.2247 24.3283C29.1078 26.2594 29.7754 29.9307 27.8155 32.0331C27.1217 32.7772 26.0194 32.9969 25.0231 32.9862C22.0443 32.8123 19.602 30.2002 19.4141 27.2535C19.2927 25.3486 20.1976 23.5079 22.0441 22.8012C22.4867 22.6318 22.911 22.5738 23.381 22.5494Z" fill="#5D4071"/>
<path d="M26.8128 32.244C25.4711 32.9218 23.8046 32.5556 22.5792 31.7986C20.3 30.4235 18.9329 27.0513 20.4034 24.6409C21.5609 22.7436 23.9991 22.5085 25.7779 23.6783C27.3423 24.7071 28.1183 25.9268 28.5293 27.7286L28.5031 27.7506C28.0414 26.1994 26.9438 24.4552 25.1361 24.383C23.6923 24.3253 22.7865 25.5393 22.7996 26.9113C22.8146 28.4805 23.5709 30.0895 24.6616 31.2103C25.2822 31.8449 25.9118 32.2387 26.8128 32.244Z" fill="white"/>
<path d="M25.4438 24.9668C25.723 24.9578 26.0104 25.0628 26.2514 25.197C27.0199 25.6248 27.5949 26.4859 27.8307 27.3176C27.9312 27.6721 28.0068 28.2092 27.8053 28.5384C27.6755 28.7503 27.5145 28.8112 27.2916 28.8672C25.2553 28.965 23.8604 25.1933 25.4438 24.9668Z" fill="white"/>
<path d="M23.439 27.5205C23.4481 27.5241 23.5085 27.5522 23.51 27.559C23.8129 28.9589 24.4446 30.0835 25.4905 31.0697C25.5066 31.1256 25.4904 31.1281 25.4612 31.1972C25.4112 31.1645 25.3483 31.1219 25.3 31.0792C24.316 30.2118 23.6441 28.9562 23.3864 27.6756C23.3714 27.6006 23.3944 27.5719 23.439 27.5205Z" fill="white"/>
<path d="M28.5301 27.7285C28.5602 27.8333 28.5777 28.0008 28.5785 28.1104C28.5343 27.9812 28.5137 27.8884 28.5039 27.7505L28.5301 27.7285Z" fill="#816592"/>
<path d="M31.0142 20.2289C31.7118 20.162 32.5676 20.57 33.1179 20.9836C34.5388 22.0738 35.5801 23.7453 35.8857 25.511C36.1485 27.0293 35.783 29.2621 33.9547 29.5375C31.3687 29.6752 29.2578 26.0812 29.0021 23.8178C28.8365 22.3522 29.3003 20.4313 31.0142 20.2289Z" fill="#5D4071"/>
<path d="M31.0939 20.6254C31.6784 20.5962 32.3532 20.9114 32.8195 21.2505C34.1585 22.2241 35.1871 23.894 35.4893 25.5176C35.6593 26.4311 35.5771 27.6616 35.028 28.4351C34.7295 28.8555 34.3883 29.0544 33.8914 29.1398C33.0631 29.1956 32.4916 28.827 31.8652 28.3162C30.5183 27.1951 29.5685 25.3758 29.3778 23.6406C29.2473 22.454 29.6726 20.7437 31.0939 20.6254Z" fill="white"/>
<path d="M31.759 22.0918C32.4056 22.033 33.0329 22.3135 33.5203 22.7268C34.515 23.5706 35.214 24.9848 35.3302 26.2824C35.3907 26.9593 35.2783 27.8511 34.815 28.376C34.5272 28.702 34.2668 28.8058 33.8438 28.8368C31.9878 28.74 30.4501 26.012 30.2518 24.3464C30.1235 23.2686 30.5984 22.2206 31.759 22.0918Z" fill="#5D4071"/>
<path d="M32.3316 22.645C33.6383 22.5665 35.2694 25.6159 33.965 26.0882C33.7119 26.1219 33.4807 26.0444 33.2651 25.9142C32.6078 25.5173 32.1035 24.7288 31.9168 23.996C31.8361 23.6789 31.7869 23.1758 31.9721 22.8926C32.0717 22.7406 32.162 22.6854 32.3316 22.645Z" fill="white"/>
<path d="M30.7354 24.2915C30.7467 24.2944 30.8009 24.3116 30.8034 24.3185C30.8657 24.4936 30.9017 24.7558 30.9548 24.9378C31.2016 25.7842 31.6268 26.6466 32.2616 27.2691C32.4149 27.4193 32.6245 27.5827 32.7932 27.7197C32.7986 27.7845 32.79 27.7708 32.7383 27.8404C31.8034 27.3392 31.0763 25.9466 30.8055 24.9562C30.7573 24.7801 30.7 24.595 30.6831 24.4124C30.6766 24.3418 30.6908 24.3382 30.7354 24.2915Z" fill="white"/>
<path d="M31.0407 30.2164C31.3319 30.1926 31.5771 30.3348 31.6321 30.6412C31.8725 31.9801 30.4348 33.8319 29.0195 32.9239C28.7756 32.7412 28.6414 32.5728 28.5211 32.2472C28.3001 31.6491 28.6023 30.4268 29.4391 30.6021C29.5311 30.6213 29.8023 30.7987 29.9119 30.8623C30.3151 30.6138 30.5356 30.3299 31.0407 30.2164Z" fill="#5D4071"/>
<path d="M29.254 31.7668C29.8059 31.6963 30.4591 31.8699 30.8681 32.2557C30.6933 32.532 30.5238 32.6537 30.232 32.7842C29.4507 33.0465 28.8504 32.7526 28.7061 31.9089C28.9136 31.8266 29.0329 31.7957 29.254 31.7668Z" fill="#F7A1A8"/>
<path d="M20.7494 20.3246C20.8566 20.3158 20.9919 20.3512 21.084 20.4026C21.4331 20.5975 21.2032 21.1783 21.0464 21.4295C20.7847 21.8487 20.3474 22.2658 19.8619 22.3892C18.7253 22.5396 19.5113 20.5476 20.7494 20.3246Z" fill="#5D4071"/>
<path d="M28.5074 17.9073C29.5259 17.8479 30.7508 18.8557 29.4385 19.1066C29.0645 19.1379 28.6602 19.0283 28.3378 18.8308C28.1396 18.7168 27.82 18.3765 27.9948 18.1346C28.1007 17.9883 28.3372 17.9313 28.5074 17.9073Z" fill="#5D4071"/>
<path d="M23.4336 33.4095C23.827 33.3122 24.2255 33.5495 24.3275 33.9417C24.4295 34.3339 24.1971 34.7352 23.8062 34.8419C23.549 34.9122 23.274 34.8387 23.0861 34.6495C22.8983 34.4604 22.8266 34.1849 22.8986 33.9283C22.9705 33.6716 23.1749 33.4735 23.4336 33.4095Z" fill="#F7A1A8"/>
<path d="M21.6189 33.1508C22.0005 33.0995 22.3514 33.3675 22.4025 33.7491C22.4535 34.1308 22.1854 34.4815 21.8037 34.5324C21.4223 34.5832 21.0719 34.3153 21.0209 33.934C20.9699 33.5526 21.2375 33.202 21.6189 33.1508Z" fill="#F7A1A8"/>
<path d="M26.8358 21.3623C27.2005 21.3891 27.7293 22.6618 27.7779 22.9979C27.8037 23.1768 27.8153 23.2237 27.7302 23.3784C27.6963 23.3769 27.6965 23.3738 27.6633 23.3635C27.6097 23.2876 27.5666 23.1821 27.5306 23.0947C27.3067 22.5501 27.0238 22.036 26.7752 21.5045C26.7539 21.4589 26.8109 21.3976 26.8358 21.3623Z" fill="#5D4071"/>
<path d="M25.292 18.9824C25.6719 19.0253 26.4752 20.1168 26.2343 20.3637C26.076 20.2325 25.2994 19.2863 25.2158 19.1078C25.2263 19.0357 25.2339 19.0484 25.292 18.9824Z" fill="#5D4071"/>
<path d="M23.5217 17.4847C23.8988 17.4692 24.7621 18.019 24.6021 18.3858C24.5609 18.3838 24.4827 18.3797 24.45 18.361C24.2839 18.2659 23.528 17.6521 23.4912 17.5435L23.5217 17.4847Z" fill="#5D4071"/>
<path d="M27.9175 36.5239C28.3065 36.632 28.0628 37.694 27.9253 37.9689C27.89 38.0026 27.8892 37.9992 27.8417 38.0141L27.8084 37.9915C27.8038 37.9422 27.8083 37.7603 27.8209 37.7141C27.889 37.4647 27.8257 36.7109 27.9175 36.5239Z" fill="#5D4071"/>
<path d="M29.5494 37.5181C29.9063 37.5827 30.3508 37.7282 30.7205 37.8104C32.0543 38.1069 33.4109 38.5124 34.7451 38.7913C34.2632 39.8807 33.793 41.2047 33.3733 42.3287L32.0557 45.775C31.3321 45.6584 30.6617 45.5452 29.9386 45.4138L27.3691 45.015C27.5344 44.5468 27.6879 44.0382 27.8311 43.5626C28.9465 43.4435 30.1231 43.2226 30.9258 42.3811C31.2816 42.0081 31.5708 41.4095 30.8626 41.2454C31.0927 40.9283 31.4329 40.2724 30.8038 40.1276C30.4178 40.0388 29.8955 40.2719 29.5698 40.4772C29.5607 40.2397 29.5212 39.7958 29.3348 39.6354C29.1807 39.5029 29.0459 39.521 28.8628 39.5343C29.0465 38.8914 29.4101 38.1399 29.5494 37.5181Z" fill="#F1C9BB"/>
<path d="M39.3616 36.437L39.3771 36.4528C39.3665 36.54 39.1941 36.8643 39.1494 36.9748C38.827 37.7705 38.4233 38.6024 38.1455 39.4128C37.4644 39.2547 37.2528 39.7998 37.2016 40.3763C37.1915 40.4889 37.2185 40.6186 37.2387 40.7302C36.672 40.9952 36.4693 41.6744 36.9339 42.1566L36.285 43.6615C36.2125 43.7109 36.1328 43.7603 36.0576 43.806C35.3783 44.2198 34.7324 44.6759 34.079 45.1289L33.7969 45.3333C33.9801 44.9124 34.1238 44.4741 34.2925 44.0471C34.6297 43.1934 34.9773 42.3424 35.3046 41.4851C35.4239 41.1727 36.3169 38.7544 36.3998 38.6687C36.5984 38.4632 37.0968 38.1369 37.3443 37.9552C38.0224 37.4573 38.7044 36.9625 39.3616 36.437Z" fill="#F1C9BB"/>
<path d="M35.0699 38.8647L35.8378 38.971C35.5842 39.6377 35.3017 40.3152 35.0395 40.9816L33.8854 43.9463C33.6258 44.6052 33.3292 45.2639 33.0944 45.9315C33.0738 45.978 33.0869 45.956 33.0545 45.9971C32.9178 46.0148 32.5751 45.8938 32.4287 45.8481C32.6831 45.1714 32.9988 44.4852 33.2356 43.8049C33.8129 42.1467 34.4883 40.5187 35.0699 38.8647Z" fill="#F1C9BB"/>
<path d="M39.8844 35.2637C39.9568 35.2774 40.001 35.2937 40.0507 35.3493C40.0432 35.3983 40.0075 35.4314 39.9666 35.4612C38.797 36.3138 37.6075 37.1401 36.4635 38.028C36.2505 38.1933 35.9938 38.3268 35.9126 38.5921C34.7833 38.425 33.9767 38.2127 32.8776 37.941L30.9714 37.4873C30.4844 37.3706 29.8926 37.2158 29.4033 37.129C29.2429 37.3618 29.1404 37.6969 29.0397 37.9628C28.8094 38.5711 28.6079 39.1895 28.4033 39.8065C28.3533 39.9571 28.2062 40.1623 28.1293 40.3071C28.0526 40.4515 27.9743 40.5927 27.9 40.74L27.8696 40.7871L27.8486 40.7825C27.8491 40.6906 27.8937 40.5852 27.9205 40.496C28.229 39.4696 28.5525 38.4455 28.907 37.4341C28.9791 37.2283 29.0644 37.001 29.165 36.809C29.6309 36.8703 30.1955 37.0432 30.6647 37.1501C32.074 37.4711 33.475 37.8309 34.8706 38.2066C35.1425 38.2799 35.4321 38.2914 35.7122 38.3107C36.0043 38.1535 36.4249 37.7337 36.7159 37.522C37.3669 37.0485 38.0232 36.5828 38.6822 36.1203C39.0744 35.8451 39.4821 35.5154 39.8844 35.2637Z" fill="#F1C9BB"/>
<path d="M33.7886 45.9712C34.0413 46.0493 35.2001 47.1382 35.4118 47.4179C34.2624 47.3214 33.2004 47.2875 32.0416 47.157L31.5542 47.1045C31.1834 46.6855 30.9004 46.4249 30.4971 46.038C31.2471 46.2097 32.043 46.3139 32.8012 46.4543C33.2028 46.5287 33.4929 46.2062 33.7886 45.9712Z" fill="#CFE5D9"/>
<path d="M30.0139 35.8804C31.0975 36.333 32.1982 36.7457 33.2614 37.2447C33.6025 37.4048 34.2689 37.7023 34.5569 37.9394L34.2951 37.8549C32.7637 37.4015 31.238 37.0852 29.6992 36.6879C29.7775 36.4624 29.8997 36.0753 30.0139 35.8804Z" fill="#FBF4CD"/>
<path d="M31.4964 35.2959C31.9659 35.551 32.8585 36.2571 33.299 36.5849C33.6503 36.8466 34.5793 37.5318 34.8369 37.8235L34.5739 37.6731C33.6757 37.1355 32.1131 36.4972 31.1133 36.1026C31.2528 35.8396 31.3576 35.5642 31.4964 35.2959Z" fill="#FBF4CD"/>
<path d="M14.0118 15.6257C15.051 15.5511 16.0344 16.6411 14.922 16.9101C14.5976 16.9197 14.3048 16.8617 14.0252 16.6876C13.5336 16.3815 13.1606 15.7773 14.0118 15.6257Z" fill="#CFE5D9"/>
<path d="M37.6274 34.3281C37.6777 34.3766 37.991 35.1287 38.0548 35.2563C37.3001 35.9289 36.4898 36.8014 35.8683 37.5989L35.6465 37.8922C35.8275 37.2067 36.6309 35.9582 37.0004 35.3281C37.1679 35.0425 37.4391 34.6004 37.6274 34.3281Z" fill="#FBF4CD"/>
<path d="M22.955 12.0356C23.6089 11.9908 24.2148 12.3353 24.3606 13.0021C24.3019 13.2309 24.2538 13.3106 24.0385 13.4087C23.8371 13.4387 23.6561 13.4233 23.4412 13.3292C23.0941 13.1772 22.5021 12.6837 22.6517 12.2493C22.6888 12.1414 22.8445 12.0686 22.955 12.0356Z" fill="#CFE5D9"/>
<path d="M38.8271 34.7324C38.8659 34.7801 39.0435 35.3841 39.0808 35.4937C38.5397 35.93 37.8716 36.3711 37.3125 36.7954C36.9822 37.046 36.5823 37.2858 36.276 37.5697C36.2072 37.6363 36.1302 37.7052 36.0596 37.7707C36.3572 37.3143 36.7743 36.8602 37.1378 36.4521C37.6772 35.8465 38.2424 35.294 38.8271 34.7324Z" fill="#FBF4CD"/>
<path d="M20.9237 45.5111C21.0064 45.5033 21.0978 45.5013 21.1815 45.4976C21.321 45.8272 21.486 46.1583 21.6844 46.4559C21.2466 46.3781 20.966 46.3225 20.5414 46.2005C20.1393 46.0718 19.8667 45.9755 19.4971 45.7574C19.9337 45.6272 20.4705 45.5562 20.9237 45.5111Z" fill="#CFE5D9"/>
<path d="M37.8494 39.8008C38.2308 39.8034 38.8216 40.6124 38.6247 40.9755C38.568 41.0285 38.5278 41.0249 38.45 41.0353C38.3493 41.0287 38.2496 41.0233 38.1525 40.9932C37.5906 40.8186 37.4604 40.2269 37.8494 39.8008Z" fill="#CFE5D9"/>
<path d="M37.4023 41.0688C37.4458 41.0782 37.6165 41.2297 37.7015 41.2793C37.9474 41.4226 38.0896 41.4609 38.3646 41.5062C38.2281 41.6707 38.1685 41.7073 37.9892 41.8153C37.2301 42.1289 36.7739 41.6609 37.4023 41.0688Z" fill="#CFE5D9"/>
<path d="M27.3567 43.6035C27.4308 43.5952 27.4413 43.5976 27.5131 43.6038C27.5133 43.6449 27.028 45.0223 26.9604 45.224C26.85 45.1674 26.8143 45.1425 26.7168 45.0708C26.7846 44.8202 26.8867 44.5502 26.9633 44.2979C27.0239 44.0987 27.087 43.8333 27.1615 43.6466C27.2127 43.6045 27.2872 43.6087 27.3567 43.6035Z" fill="#F1C9BB"/>
<path d="M39.035 14.5948C39.8816 14.5093 40.733 15.3016 41.2812 15.8655L41.2982 15.8574C42.0844 15.4817 42.9716 15.4612 43.7841 15.7609C45.6707 16.4569 46.4919 18.4348 45.8277 20.2833C46.5326 20.82 48.1082 22.7724 47.0807 23.5517C46.9242 23.6502 46.7668 23.7198 46.5821 23.7419C45.1034 23.9191 43.5769 22.9823 42.446 22.1627C42.3078 22.1618 42.1735 22.1595 42.0349 22.1502C40.5372 22.0492 39.2757 20.7972 39.1772 19.2963C39.1598 19.0295 39.1876 18.7583 39.2072 18.4935C38.9906 18.12 38.8104 17.7681 38.668 17.3585C38.4015 16.5917 37.9818 14.9421 39.035 14.5948Z" fill="#5D4071"/>
<path d="M42.5298 15.8276C45.4378 15.7622 46.8636 19.265 44.7936 21.2559C44.5293 21.5102 44.232 21.6651 43.9104 21.8311C43.7579 21.7512 43.5957 21.653 43.4456 21.5662C41.8406 20.5803 40.8446 19.3644 39.9521 17.726C40.0522 17.3941 40.2262 17.0503 40.4609 16.7973C41.0757 16.1347 41.6496 15.8793 42.5298 15.8276Z" fill="#FBF4CD"/>
<path d="M39.0687 14.9101C39.7835 14.8108 40.5363 15.6378 41.0249 16.0021C40.9046 16.0939 40.7372 16.2009 40.6094 16.2879C40.3721 16.037 39.7276 15.3589 39.3095 15.6271C39.2232 15.6825 39.146 15.9119 39.1493 16.0139C39.1976 17.4824 40.2245 18.9009 41.1189 20.0058C41.3973 20.3381 41.9059 20.8474 42.226 21.1037C43.14 21.8195 44.2291 22.5332 45.4055 22.6762C45.7647 22.7199 46.2052 22.6099 46.1988 22.1731C46.1929 21.7726 45.8189 21.2829 45.5526 21.0069C45.4554 20.8897 45.6366 20.6812 45.7109 20.5625C46.1786 20.9798 47.2816 22.3295 47.0927 23.0282C46.9139 23.6896 45.5908 23.425 45.1016 23.2508C42.6413 22.3746 40.5161 20.2958 39.3132 18.0062C38.9825 17.3784 38.1743 15.3164 39.0687 14.9101Z" fill="#FBF4CD"/>
<path d="M39.4453 18.9043C39.4664 18.9165 40.2406 20.0254 40.3692 20.1798C40.8769 20.7891 41.4441 21.3225 42.0317 21.8518C41.8939 21.8491 41.743 21.8131 41.6097 21.7789C40.2765 21.4371 39.454 20.2731 39.4453 18.9043Z" fill="#FBF4CD"/>
<path d="M45.3549 21.106C45.4296 21.1527 45.6013 21.3808 45.6567 21.4599C46.3094 22.391 45.9075 22.5271 44.9883 22.2902C44.7188 22.204 44.4773 22.1181 44.2119 22.0191C44.7404 21.7729 44.9795 21.5395 45.3549 21.106Z" fill="#AD1518" fill-opacity="0.1"/>
<path d="M39.4894 15.8222C39.9021 15.7868 40.1953 16.1485 40.4634 16.4195C40.2675 16.6166 40.1711 16.7228 40.0195 16.9535C39.9431 17.0817 39.8632 17.2512 39.7947 17.3869C39.6287 16.959 39.349 16.2833 39.4894 15.8222Z" fill="#AD1518" fill-opacity="0.1"/>
<path d="M40.7713 24.2622C40.845 24.2648 40.911 24.2738 40.9478 24.3517C41.1369 24.7529 41.2001 25.2526 41.3821 25.6546C41.5956 25.805 42.4012 26.1384 42.4396 26.3337C42.3812 26.4954 41.585 26.8485 41.3889 26.9471C41.2068 27.2696 41.0919 27.7897 40.9733 28.1423C40.939 28.2441 40.9086 28.3685 40.813 28.4173C40.7351 28.4259 40.7226 28.414 40.6527 28.3809C40.5107 27.9535 40.4467 27.5316 40.2442 27.1232C39.9857 26.6018 39.0637 26.5631 38.919 26.3067C38.9103 26.0233 39.8 25.8997 40.0859 25.651C40.5193 25.2741 40.4734 24.5855 40.7713 24.2622Z" fill="#5D4071"/>
<path d="M40.8162 24.7959C40.8587 24.8519 40.963 25.2566 40.9827 25.3401C41.13 25.9634 41.4851 26.0346 42.0053 26.323C41.7524 26.451 41.3273 26.6357 41.1646 26.8563C40.986 27.0987 40.9101 27.5091 40.791 27.7861L40.771 27.7706C40.5118 26.8454 40.3977 26.6378 39.502 26.2704C39.8459 26.0695 40.2977 26.0176 40.5045 25.6102C40.6393 25.3448 40.7252 25.0783 40.8162 24.7959Z" fill="#FBF4CD"/>
<path d="M43.6442 28.4006C43.6966 28.3999 43.7755 28.3989 43.8023 28.442C43.9804 28.762 43.9541 29.1327 44.0937 29.4826C44.2337 29.8333 44.8985 29.7953 44.9061 30.0939C44.8338 30.1835 44.3487 30.2872 44.1431 30.4018L44.118 30.416C43.9317 30.7417 44.0141 31.2473 43.764 31.4242C43.7367 31.4106 43.6733 31.3787 43.6611 31.3529C43.5256 31.065 43.4951 30.7408 43.3852 30.4376C43.1508 30.2876 42.527 30.2237 42.4775 30.0128C42.5374 29.8584 42.9964 29.8008 43.2648 29.6036L43.2858 29.5879C43.4107 29.2875 43.5124 28.5923 43.6442 28.4006Z" fill="#5D4071"/>
<path d="M43.7118 29.0952C43.8751 29.2454 43.7093 29.7436 44.2977 30.0173C43.7684 30.2734 43.9906 30.2491 43.7368 30.6513C43.6592 30.2311 43.4742 30.1451 43.1045 30.0164C43.5635 29.7873 43.5913 29.5496 43.7118 29.0952Z" fill="#F1C9BB"/>
<path d="M16.9171 36.9492C17.1018 36.967 17.1137 37.1038 17.1521 37.2735C17.2033 37.4994 17.246 37.7182 17.3073 37.9422C17.4639 38.0043 17.8795 38.1169 17.8326 38.3137C17.729 38.4415 17.4171 38.5543 17.2469 38.6396C17.1993 38.8569 17.1711 39.1228 17.0791 39.3234C17.0443 39.3994 17.0043 39.4082 16.9375 39.431C16.8002 39.2706 16.7353 38.8464 16.685 38.6223C16.4871 38.5714 16.1182 38.5028 15.9799 38.382C15.9684 38.3506 15.9544 38.3357 15.9694 38.3137C16.0692 38.1669 16.4927 38.034 16.6664 37.955C16.7503 37.6791 16.7785 37.1533 16.9171 36.9492Z" fill="#5D4071"/>
<path d="M16.9649 37.6826C16.9921 37.7085 17.0352 37.8511 17.0536 37.8991C17.1449 38.1379 17.1978 38.1791 17.4208 38.2787C17.1696 38.4019 17.1166 38.4257 16.9848 38.6704L16.9703 38.6901C16.8738 38.4312 16.8345 38.4282 16.5898 38.2975C16.9024 38.1295 16.8947 38.008 16.9649 37.6826Z" fill="#F1C9BB"/>
</g>
<defs>
<clipPath id="clip0_290_6295">
<rect y="0.5" width="60" height="60" rx="30" fill="white"/>
</clipPath>
</defs>
</svg>
