<svg width="956" height="538" viewBox="0 0 956 538" fill="none" xmlns="http://www.w3.org/2000/svg">
<g clip-path="url(#clip0_280_4513)">
<path d="M0 0H956V538H0V0Z" fill="white"/>
<path d="M373.516 91.2068C404.831 89.3291 403.135 140.413 367.156 131.882C355.173 146.971 352.669 156.462 350.452 175.382C358.802 175.885 370.722 179.179 378.489 182.067C389.776 166.353 403.173 153.208 421.906 147.413C415.457 127.53 432.561 111.882 449.125 119.27C472.171 129.548 460.463 169.975 429.806 156.801C415.411 166.682 407.565 177.489 399.842 193.01L400.725 193.693C423.611 211.52 438.314 234.414 441.874 263.933C446.115 299.108 434.807 335.018 413.853 363.412C410.65 367.753 406.477 370.791 402.232 373.904C388.452 384.009 377.375 385.011 361.07 386.974C373.857 404.487 388.217 422.515 401.886 439.412C404.825 443.044 408.906 446.957 412.241 450.311L430.512 422.107C443.365 401.974 439.165 402.435 463.411 399.131L484.967 396.098C504.762 393.295 524.661 390.394 544.505 387.891C553.414 386.767 558.582 389.334 565.369 394.936C574.598 403.19 566.031 412.213 561.056 420.204C549.411 438.894 537.172 457.224 525.574 475.939C523.467 479.341 523.472 484.469 520.947 487.794C515.851 494.995 507.755 494.93 499.888 496.135C492.964 497.133 486.1 498.011 479.214 499.006L432.001 506.026C418.793 507.889 404.116 509.606 391.096 512.087C386.048 510.319 380.348 507.919 375.116 506.006L323.876 487.397C311.953 499.526 295.083 513.588 276.947 508.042C259.005 502.556 258.927 478.958 259.65 463.836C260.677 442.363 265.048 420.824 271.737 400.422C274.117 393.162 277.657 388.4 284.479 385.016C286.976 377.674 287.969 376.734 295.571 375.246C243.439 348.549 214.972 281.037 247.929 229.08C263.943 203.835 295.169 182.388 324.195 175.767C330.374 154.146 339.089 137.413 357.555 124.16C350.019 109.027 356.577 94.1322 373.516 91.2068Z" fill="#6A4F62"/>
<path d="M350.079 180.525C363.651 181.321 383.869 188.705 395.095 196.439C416.472 211.166 430.583 232.233 435.571 257.628C424.826 282.346 419.592 309.562 423.919 336.37C422.348 340.254 419.994 343.912 418.188 347.453C409.113 365.234 394.802 376.41 375.034 380.128C369.065 381.25 362.745 381.358 356.786 382.787C347.985 384.898 346.676 392.422 342.519 399.839C336.211 391.642 334.67 389.194 325.917 383.608C314.92 377.23 302.532 373.511 290.759 366.486C246.318 339.968 222.734 278.373 252.01 232.438C266.682 209.417 296.523 187.642 323.065 181.481C322.936 182.518 322.442 185.684 322.599 186.588C324.002 194.428 332.761 197.813 339.914 196.61C344.731 195.799 347.306 193.88 350.097 190.045C350.342 187.173 350.147 183.466 350.079 180.525Z" fill="#DBF7EA"/>
<path d="M358.423 226.217C387.198 222.567 413.467 242.986 417.044 271.783C420.621 300.579 400.145 326.81 371.353 330.316C342.662 333.809 316.557 313.413 312.993 284.718C309.429 256.023 329.751 229.855 358.423 226.217Z" fill="#6A4F62"/>
<path d="M362.568 228.096C371.352 227.064 383.273 230.195 390.626 235.004C403.534 243.446 410.136 254.503 413.58 269.113C390.157 221.251 318.256 253.702 337.77 304.806C345.062 319.789 354.564 325.1 370.514 327.925C299.745 332.264 298.419 233.573 362.568 228.096Z" fill="white"/>
<path d="M394.96 266.33C401.363 265.558 407.19 270.098 408.011 276.497C408.832 282.897 404.339 288.762 397.949 289.633C391.488 290.513 385.547 285.959 384.717 279.488C383.888 273.017 388.487 267.109 394.96 266.33Z" fill="white"/>
<path d="M387.498 291.661C389.258 290.915 391.286 291.206 392.765 292.416C394.244 293.627 394.933 295.557 394.552 297.431C394.171 299.304 392.785 300.813 390.95 301.349C388.333 302.115 385.572 300.705 384.656 298.135C383.74 295.564 384.987 292.725 387.498 291.661Z" fill="white"/>
<path d="M363.815 338.93C377.655 342.519 389.998 347.174 404.693 347.325C406.962 347.348 410.75 346.776 411.616 349.013C411.054 352.461 406.146 357.389 403.548 359.685C397.659 364.672 390.133 367.682 382.262 366.569C370.762 364.944 361.733 349.981 363.815 338.93Z" fill="#6A4F62"/>
<path d="M365.691 342.04C380.346 347.562 393.529 349.089 408.884 350.229C406.46 353.25 405.293 354.621 402.449 357.23C384.762 371.929 369.669 363.13 365.691 342.04Z" fill="white"/>
<path d="M318.817 330.261C321.76 330.033 323.836 329.939 326.731 330.567C334.608 332.275 346.183 340.56 333.672 346.405C326.029 347.06 317.563 344.787 313.582 337.707C311.521 334.043 316.18 331.39 318.817 330.261Z" fill="#E78B94"/>
<path d="M406.483 326.463C411.707 327.141 416.053 332.453 413.156 337.042C410.456 336.658 412.891 333.163 408.995 329.49L408.647 329.166C403.166 328.814 403.594 331.232 399.201 334.845L398.644 334.077C398.334 330.348 403.376 327.403 406.483 326.463Z" fill="#6A4F62"/>
<path d="M559.56 399.025C564.093 398.116 565.994 402.408 563.814 406.218C559.449 413.847 554.648 421.245 549.947 428.678L519.47 475.955C494.173 478.968 468.938 483.36 443.714 486.947C432.532 488.537 421.342 490.067 410.203 491.94L403.312 492.99C420.788 467.778 436.784 441.109 453.985 415.679C455.172 413.924 456.681 413.093 458.762 412.701C469.381 410.697 480.278 409.47 491.012 408.023L559.56 399.025Z" fill="#FBF0BD"/>
<path d="M505.406 425.12C521.551 424.913 510.246 451.227 491.656 454.309C474.359 453.501 489.727 427.81 505.406 425.12Z" fill="#6A4F62"/>
<path d="M503.922 427.845C511.957 427.502 512.029 432.459 508.933 438.416C505.569 444.886 500.578 449.36 493.677 451.611C477.485 453.574 491.692 432.14 503.922 427.845Z" fill="white"/>
<path d="M481.743 457.256C493.392 455.866 491.134 466.889 482.272 470.884C471.753 473.025 472.973 461.819 481.743 457.256Z" fill="#6A4F62"/>
<path d="M482.339 459.527C484.315 459.406 485.114 459.382 486.579 460.677C488.074 464.479 484.608 467.021 481.681 468.643C479.998 468.854 479.634 468.961 478.11 468.13C475.983 464.526 479.489 461.323 482.339 459.527Z" fill="#FBF0BD"/>
<path d="M289.891 389.123C298.901 388.768 305.246 394.639 305.313 403.816C305.353 409.345 302.451 414.258 301.116 419.392C297.106 434.816 288.144 457.585 292.362 473.38C289.36 475.117 283.598 476.708 281.867 479.087L282.141 479.665C293.691 482.169 320.344 456.759 333.436 452.881C344.255 449.676 360.016 449.822 369.06 458.939C373.457 463.372 369.489 469.659 364.912 473.122C354.819 478.503 339.683 476.043 329.219 472.751C321.133 484.207 305.29 500.44 291.665 503.402C247.757 512.948 268.358 432.146 274.165 410.019C276.795 399.996 279.22 391.551 289.891 389.123Z" fill="#DBF7EA"/>
<path d="M347.139 416.572C348.927 422.188 350.405 427.053 351.662 432.867C352.52 437.651 353.123 441.363 353.548 446.194C344.749 445.959 336.84 446.016 328.526 449.401C321.572 452.882 314.385 458.457 308.556 461.312C304.355 464.193 300.488 466.843 296.103 469.469C295.962 466.726 296.274 463.187 296.438 460.387C296.891 456.563 297.684 452.857 298.435 449.082C299.443 444.051 301.157 438.432 302.559 433.438C304.071 428.028 305.522 422.682 307.309 417.351C320.302 417.817 334.204 418.183 347.139 416.572Z" fill="#E78B94"/>
<path d="M347.139 416.572C348.927 422.188 350.405 427.053 351.663 432.867C345.158 433.226 306.631 435.116 302.56 433.438C304.071 428.028 305.523 422.682 307.309 417.351C320.302 417.817 334.205 418.183 347.139 416.572Z" fill="#FBF0BD"/>
<path d="M298.435 449.082C301.839 449.214 328.041 449.196 328.526 449.401C321.572 452.881 314.385 458.457 308.556 461.312C304.355 464.192 300.488 466.843 296.103 469.468C295.962 466.726 296.274 463.186 296.438 460.386C296.891 456.563 297.684 452.856 298.435 449.082Z" fill="#FBF0BD"/>
<path d="M296.438 460.387C300.854 460.977 304.489 460.879 308.556 461.312C304.355 464.193 300.488 466.843 296.103 469.469C295.962 466.726 296.274 463.187 296.438 460.387Z" fill="#E78B94"/>
<path d="M517.459 478.886C518.168 478.72 518.016 478.805 518.808 478.965C519.981 482.358 514.535 488.482 510.996 489.25C501.181 491.379 491.045 492.39 481.083 493.9L400.63 505.589C400.001 505.701 400.165 505.631 399.459 505.386C400.002 502.021 400.179 501.015 399.912 497.546C403.524 495.525 407.484 495.057 411.529 494.483C446.859 489.47 482.072 483.503 517.459 478.886Z" fill="#FBF0BD"/>
<path d="M310.56 401.461C309.714 395.512 308.067 391.9 303.52 388.036C299.281 384.435 293.049 384.659 290.973 383.311C291.727 379.584 299.998 379.77 303.434 379.073C318.754 385.466 327.308 387.868 337.464 401.508C343.808 408.759 344.248 406.836 347.139 416.572C334.204 418.183 320.301 417.818 307.309 417.351C309.359 410.836 310.406 408.167 310.56 401.461Z" fill="#E78B94"/>
<path d="M310.56 401.461C309.714 395.512 308.067 391.9 303.52 388.036C299.281 384.435 293.049 384.659 290.973 383.311C291.727 379.584 299.998 379.77 303.434 379.073C318.754 385.466 327.308 387.868 337.464 401.508C332.396 402.025 314.768 404.122 311.046 402.645L310.56 401.461Z" fill="#FBF0BD"/>
<path d="M359.85 127.827C361.253 127.999 361.517 127.991 362.627 128.84C362.767 129.703 362.78 130.281 362.183 130.946C351.341 143.021 347.129 159.499 346.328 175.365C346.107 179.736 347.486 188.707 343.495 190.831C339.797 192.799 335.61 192.414 331.777 191.351C329.35 189.986 328.741 189.382 326.688 187.451C326.734 186.925 326.796 186.197 326.894 185.678C331.209 162.758 340.751 141.662 359.85 127.827Z" fill="#DBF7EA"/>
<path d="M373.574 96.0473C382.448 95.1657 390.365 101.625 391.288 110.499C392.21 119.373 385.79 127.324 376.924 128.287C368.001 129.257 359.99 122.783 359.062 113.851C358.134 104.919 364.642 96.9352 373.574 96.0473Z" fill="#DBF7EA"/>
<path d="M437.723 122.821C446.445 121.066 454.939 126.713 456.701 135.437C458.462 144.161 452.826 152.664 444.108 154.435C435.378 156.208 426.865 150.561 425.101 141.825C423.337 133.089 428.99 124.578 437.723 122.821Z" fill="#DBF7EA"/>
<path d="M445.484 407.901C446.85 408.03 447.811 408.134 448.915 409.1C451.292 411.178 451.5 413.944 449.862 416.565C446.637 421.724 443.288 426.837 439.961 431.947L421.219 460.653C417.398 466.488 402.148 490.397 398.078 494.593C396.054 492.072 395.313 491.358 392.522 489.767C400.842 476.253 410.004 463.016 418.59 449.655C427.517 435.764 436.265 421.595 445.484 407.901Z" fill="#FBF0BD"/>
<path d="M349.961 416.678C355.993 416.106 362.363 415.242 368.416 414.546C370.241 420.221 371.665 425.174 373.175 430.942C373.959 435.222 374.99 440.205 375.465 444.468C376.102 449.784 376.944 457.828 376.801 463.186C372.023 452.472 368.531 450.534 357.546 447.093L356.616 446.675C356.062 445.292 354.678 435.173 354.103 432.531C353.37 427.667 351.431 421.439 349.961 416.678Z" fill="#E78B94"/>
<path d="M349.961 416.678C355.993 416.106 362.363 415.242 368.416 414.546C370.241 420.221 371.665 425.174 373.175 430.942C366.848 431.627 360.453 432.055 354.103 432.531C353.37 427.667 351.431 421.439 349.961 416.678Z" fill="#FBF0BD"/>
<path d="M357.546 447.093C359.306 446.016 372.395 444.782 375.465 444.468C376.102 449.784 376.944 457.828 376.801 463.185C372.023 452.472 368.531 450.534 357.546 447.093Z" fill="#FBF0BD"/>
<path d="M372.373 410.338C374.09 411.442 386.752 428.555 388.971 431.752C395.055 440.515 402.617 446.752 409.131 454.667C408.871 455.897 408.271 456.199 407.286 457.025C400.642 457.39 389.174 459.329 382.011 460.231C380.638 440.226 378.624 429.489 372.373 410.338Z" fill="#DBF7EA"/>
<path d="M545.025 392.463C550.467 391.279 555.163 393.868 559.917 396.136C528.384 399.689 494.422 404.765 462.932 409.252C459.156 409.755 457.121 410.342 453.564 411.523C452.164 408.397 451.87 407.918 449.108 405.848C481.024 401.761 513.104 396.841 545.025 392.463Z" fill="#FBF0BD"/>
<path d="M423.6 151.263C424.502 151.37 424.834 151.874 425.494 152.529C425.744 154.719 421.444 157.559 419.547 159.049C408.987 167.341 401.834 178.688 395.652 190.371C393.463 189.195 391.227 188.054 389.02 186.906L382.956 183.942C393.272 168.868 406.437 157.525 423.6 151.263Z" fill="#DBF7EA"/>
<path d="M331.044 478.946C338.635 480.276 345.383 481.366 352.731 483.78C362.397 486.956 372.116 490.029 381.796 493.168C380.576 497.628 380.661 498.266 381.622 502.687L381.095 502.903C363.484 496.466 344.799 490.146 327.446 483.388C328.299 482.153 330.033 480.172 331.044 478.946Z" fill="#FBF0BD"/>
<path d="M354.567 388.612C358.978 391.862 360.781 395.11 363.127 399.826C364.659 404.141 366.683 410.482 368.416 414.546C362.363 415.242 355.993 416.106 349.961 416.678C348.73 412.846 346.982 409.149 346.195 405.207C345.843 403.444 346.491 403.014 347.449 401.652C349.55 397.681 351.998 391.889 354.567 388.612Z" fill="#E78B94"/>
<path d="M354.567 388.612C358.979 391.862 360.781 395.11 363.128 399.826C360.411 400.708 349.755 402.393 347.449 401.652C349.55 397.681 351.998 391.889 354.567 388.612Z" fill="#FBF0BD"/>
<path d="M367.756 477.257C371.666 479.243 385.243 483.815 389.693 485.417L387.043 488.85L382.32 490.383L377.869 488.935C372.111 486.565 360.148 483.143 353.896 481.349C359.508 480.794 362.84 479.948 367.756 477.257Z" fill="#FBF0BD"/>
<path d="M397.34 470.461C397.813 470.37 398.1 470.48 398.62 470.559C398.252 472.424 392.395 481.172 391.063 483.289C387.123 481.364 381.939 479.584 377.751 478.027C374.953 477.045 372.264 475.99 369.506 474.91C375.426 473.387 390.555 471.489 397.34 470.461Z" fill="white"/>
<path d="M387.291 492.212C396.273 492.49 401.355 501.333 393.823 507.187C385.894 507.756 380.109 497.554 387.291 492.212Z" fill="#FBF0BD"/>
<path d="M402.873 462.528C403.727 462.385 403.444 462.427 404.341 462.61C404.281 463.874 402.544 465.661 401.639 466.773C393.265 468.333 384.259 469.629 375.801 470.984L374.87 470.855C374.524 469.588 375.351 467.459 375.746 465.989L402.873 462.528Z" fill="#FBF0BD"/>
<path d="M436.633 261.999C437.248 266.757 437.879 271.381 438.213 276.175C434.613 282.192 431.128 287.663 428.495 294.191L427.168 293.649C428.802 285.211 432.805 269.704 436.633 261.999Z" fill="white"/>
<path d="M427.168 293.648L428.495 294.191L425.859 301.712C426.172 298.809 426.616 296.499 427.168 293.648Z" fill="white"/>
<path d="M116.714 249.216C121.317 250.89 179.78 300.303 187.191 307.022L187.811 323.434C197.746 324.866 210.447 327.597 220.521 329.494C225.972 335.456 236.293 349.164 241.133 355.823C240.741 360.116 239.365 366.991 238.628 371.385L233.706 400.793L220.64 481.769C223.954 481.839 238.041 480.139 238.485 484.159C237.706 485.487 235.447 486.789 233.918 486.762C228.316 486.661 222.743 486.615 217.137 486.615L175.749 486.641L88.1747 486.603L61.2954 486.619C56.3972 486.632 48.209 488.054 44.7772 484.219C44.3746 480.006 63.6103 481.661 66.9363 481.714C66.1899 464.96 64.5952 447.032 63.4117 430.215L54.761 306.849C75.3717 288.296 96.5702 268.301 116.714 249.216Z" fill="#6A4F62"/>
<path d="M123.492 300.984L124.053 300.938C125.357 302.882 127.49 360.566 127.867 368.426L133.566 481.927L93.8698 481.922C87.36 481.914 78.7271 482.147 72.3645 481.804L71.8755 481.033L59.1812 309.425C80.3823 307.192 102.157 303.365 123.492 300.984Z" fill="white"/>
<path d="M116.085 314.492C117.412 314.301 117.118 314.131 118.033 314.674C118.707 317.627 118.993 325.055 119.175 328.297L120.469 352.364L79.4601 358.617L77.7278 358.674C76.5764 357.261 74.7432 325.004 74.5215 320.501C88.3483 318.903 102.262 316.33 116.085 314.492Z" fill="#6A4F62"/>
<path d="M113.269 317.742C114.412 317.467 114.351 317.479 115.507 317.73C116.431 320.69 117.446 345.485 117.686 350.088C105.937 352.177 93.7203 353.455 81.8669 355.588C80.6094 355.69 80.8059 355.873 79.9134 355.35C78.7273 349.538 77.7834 329.718 77.2949 322.842L113.269 317.742Z" fill="#DBF7EA"/>
<path d="M119.295 366.316C119.818 366.184 120.378 366.236 120.934 366.239C121.308 366.743 123.161 400.269 123.294 403.758C110.869 405.241 94.7427 408.158 82.186 410.145L81.0603 409.93C79.9951 407.752 78.4975 377.459 78.0127 372.41L119.295 366.316Z" fill="#6A4F62"/>
<path d="M115.868 369.579C117.464 369.373 117.243 369.146 118.432 369.742C119.529 375.382 120.292 394.61 120.8 401.445C109.468 403.062 97.3558 404.836 86.115 406.828C84.7965 407.046 84.7072 407.086 83.415 406.844C82.1743 403.348 81.3696 380.434 80.7388 374.888L115.868 369.579Z" fill="#DBF7EA"/>
<path d="M121.995 418.606C122.735 418.447 122.982 418.515 123.736 418.546C124.209 419.161 125.979 453.01 126.137 456.582C112.903 458.041 98.9208 460.85 85.5378 462.575L84.7652 462.655C84.5656 462.456 84.3654 462.257 84.1658 462.059C83.6274 452.155 82.5475 433.932 81.6587 424.84L121.995 418.606Z" fill="#6A4F62"/>
<path d="M118.388 421.862C119.688 421.604 120.076 421.39 121.225 421.887C122.059 424.851 123.08 448.962 123.605 454.204C114.156 455.104 100.725 457.545 90.963 459.044C89.434 459.327 88.3645 459.722 87.0004 459.1C86.3112 456.302 86.1421 449.9 85.9514 446.775L84.6172 427.244L118.388 421.862Z" fill="#DBF7EA"/>
<path d="M127.44 300.736L182.902 309.878C183.913 351.268 186.511 393.129 188.122 434.532L189.267 462.001C189.563 468.141 190.128 475.59 189.922 481.626C172.218 482.035 154.046 481.877 136.304 481.906C134.382 421.907 129.601 360.974 127.44 300.736Z" fill="white"/>
<path d="M139.553 419.688C151.366 421.21 163.709 423.686 175.458 424.802C175.625 435.887 176.564 449.966 177.402 461.094C168.071 460.453 151.202 457.443 141.482 455.977C140.514 444.547 140.129 431.276 139.553 419.688Z" fill="#6A4F62"/>
<path d="M142.313 422.978C150.617 423.668 164.013 426.23 172.845 427.453C173.069 436.493 173.836 448.766 174.619 457.763C167.994 457.441 150.347 454.577 143.815 453.279C143.679 443.707 142.703 432.749 142.313 422.978Z" fill="#DBF7EA"/>
<path d="M134.509 316.177L169.891 322.025C170.093 333.85 170.898 346.58 171.438 358.444C160.388 357.313 147.318 355.066 136.334 353.245C136.343 341.467 134.74 328.208 134.509 316.177Z" fill="#6A4F62"/>
<path d="M137.161 319.631C147.065 320.934 157.193 322.758 167.066 324.416C167.686 334.752 168.156 345.056 168.564 355.401C160.092 353.885 147.525 351.844 139.057 351.027C138.28 340.901 138.322 329.518 137.161 319.631Z" fill="#DBF7EA"/>
<path d="M136.85 367.876C147.963 370.154 161.037 371.364 172.543 373.326C173.007 385.081 173.766 397.628 174.557 409.378C164.705 408.452 148.747 405.532 138.724 403.862C138.363 391.977 137.126 379.815 136.85 367.876Z" fill="#6A4F62"/>
<path d="M139.498 371.149C147.043 372.82 162.058 374.643 169.862 375.679C170.036 385.311 170.911 396.689 171.382 406.425C162.533 404.323 150.622 403.235 141.238 401.411L139.498 371.149Z" fill="#DBF7EA"/>
<path d="M188.665 347.969C204.094 350.553 220.516 354.23 235.948 357.217C231.129 390.088 224.903 422.819 220.025 455.694C218.748 464.307 217.542 473.052 215.958 481.604L193.775 481.663C193.701 473.706 193.384 464.814 192.932 456.872L192.19 432.592C197.553 433.959 207.358 435.872 212.782 436.596C214.477 428.131 215.907 418.82 217.279 410.272C210.304 408.344 198.423 406.309 190.861 404.68C190.452 399.559 190.393 393.858 190.043 388.592C199.644 390.839 209.803 392.654 219.552 394.852C221.263 388.357 222.952 375.238 223.844 368.326C212.382 365.875 200.584 363.405 189.08 361.231C189.018 356.862 188.81 352.348 188.665 347.969Z" fill="white"/>
<path d="M115.665 254.588C115.841 254.838 123.7 294.127 124.518 297.809L67.7958 305.265L59.7061 306.328C77.0028 289.454 97.6976 271.363 115.665 254.588Z" fill="#8DB9B1"/>
<path d="M118.862 254.293C120.425 255.055 133.746 266.344 135.856 268.085L182.382 306.41C176.046 305.893 167.657 304.275 161.288 303.233L127.296 297.76C124.899 283.682 121.603 268.415 118.862 254.293Z" fill="#8DB9B1"/>
<path d="M187.638 327.693C195.55 328.504 210.047 331.737 218.467 333.346C223.577 339.726 229.843 347.17 234.535 353.728C232.911 353.639 231.221 353.292 229.617 352.988C215.933 350.399 202.349 347.517 188.631 345.088C188.511 339.509 188.126 333.214 187.638 327.693Z" fill="#8DB9B1"/>
<path d="M189.072 364.188C199.402 366.018 210.599 368.376 220.864 370.589C219.737 375.687 218.554 383.393 217.815 388.577C217.501 390.172 217.761 390.34 216.709 391.204C212.036 390.854 195.16 387.055 189.988 386.031L189.072 364.188Z" fill="#8DB9B1"/>
<path d="M190.942 407.612C198.303 409.222 206.671 411.086 214.073 412.141C212.77 418.21 211.827 425.309 210.889 431.493L210.494 432.828C208.711 433.729 195.066 430.504 191.907 429.857C191.831 422.651 191.309 414.857 190.942 407.612Z" fill="#8DB9B1"/>
<path d="M161.451 38.4934C187.551 36.1823 215.394 42.8082 238.274 55.6394C276.836 77.2666 294.801 121.121 271.31 161.046C256.509 186.202 232.92 200.48 204.921 207.903C207.283 213.043 209.767 216.856 213.839 220.835C216.029 222.975 221.316 226.222 221.67 228.992C219.61 234.177 201.54 233.211 196.851 232.432C183.265 229.545 176.106 224.939 169.24 212.548C119.562 212.683 64.4098 184.143 59.1014 129.359C57.1836 109.566 64.8952 90.4922 77.9304 75.7078C98.8894 51.9356 130.387 40.5938 161.451 38.4934Z" fill="#6A4F62"/>
<path d="M161.348 43.6264C167.8 42.8203 176.502 43.3957 182.953 43.9096C226.49 47.3783 278.359 76.5821 276.373 126.2C274.929 162.3 243.85 190.989 210.818 200.8C207.941 201.655 198.883 202.507 199.413 207.273C201.313 215.591 207.331 221.798 213.179 227.539C206.345 228.261 201.593 228.163 194.945 226.765C183.868 224.427 177.014 217.619 173.049 207.306C142.996 207.26 117.908 201.5 94.0084 182.292C61.7692 156.383 53.1 112.157 81.4549 79.8642C101.748 56.7528 131.251 46.0226 161.348 43.6264Z" fill="white"/>
<path d="M113.468 107.992C117.368 107.669 121.665 107.404 125.488 108.198C143.876 112.013 148.882 124.196 149.32 140.705L102.905 140.852C107.195 152.546 121.031 157.324 131.401 150.285L133.15 149.037C135.756 148.911 141.065 154.282 143.399 156.257C129.186 169.164 103.423 168.585 93.8348 151.061C83.6796 132.501 93.2349 112.584 113.468 107.992Z" fill="#6A4F62"/>
<path d="M115.157 119.168C126.061 118.061 131.656 120.667 135.918 130.749L123.934 130.783L102.97 130.728C105.458 123.809 108.208 121.316 115.157 119.168Z" fill="white"/>
<path d="M222.137 107.607C242.542 106.581 252.424 121.922 252.52 140.667L207.254 140.581L207.331 141.001C209.303 151.483 219.112 154.256 228.509 152.229C231.69 151.543 233.982 149.776 236.702 148.048C238.007 147.993 237.98 148.315 239.231 149.232C241.836 151.29 244.528 153.637 247.084 155.791C235.043 166.164 216.487 167.976 203.516 157.947C191.754 148.853 190.484 128.508 200.086 117.445C206.094 110.523 213.286 108.289 222.137 107.607Z" fill="#6A4F62"/>
<path d="M219.653 119.193C230.088 117.958 235.198 121.018 238.389 130.79L227.446 130.792L207.387 130.839C210.006 123.78 212.531 121.522 219.653 119.193Z" fill="white"/>
<path d="M162.643 85.252L175.83 85.2956C175.941 107.271 175.629 129.297 176.03 151.261C176.03 151.261 176.598 152.07 176.654 152.149C178.982 153.415 182.301 152.515 184.897 152.052C184.925 154.47 185.313 161.916 184.591 163.574C175.794 166.503 168.122 164.046 162.668 156.587C162.494 149.2 162.775 140.887 162.774 133.406L162.643 85.252Z" fill="#6A4F62"/>
<path d="M827.087 146.966C828.28 147.024 829.11 147.171 830.129 147.821C840.702 154.584 851.297 161.655 861.845 168.429L887.625 185.206C890.913 187.379 897.595 191.509 900.253 194.035L900.316 220.447C900.337 225.163 901.177 237.191 898.372 240.506C895.084 241.892 872.46 241.11 867.202 241.098L867.155 480.581C874.556 480.556 904.749 479.254 909.025 481.536C910.222 482.172 910.669 482.805 911.063 484.034L910.464 485.053C908.946 486.059 907.418 486.592 905.59 486.608C896.723 486.681 887.72 486.622 878.864 486.607L825.748 486.55L799.153 486.559C795.87 486.56 784.708 488.108 786.883 482.401C790.197 479.251 809.995 480.522 815.715 480.581C816.209 431.516 815.825 381.189 815.705 332.059C815.699 301.866 815.999 271.257 815.642 241.115C813.041 241.176 802.851 242.19 801.013 240.443C798.644 238.195 799.699 202.873 799.673 197.163C753.948 196.548 706.815 197.096 661.027 197.218L661.058 238.686C662.33 239.491 663.816 240.809 664.924 241.494C672.184 245.982 671.926 247.511 672.247 255.594C674.6 255.524 677.489 255.148 679.501 256.25C680.651 257.769 680.325 257.061 680.557 259.162C680.063 260.664 680.021 260.96 678.744 261.854C674.264 262.445 637.122 262.755 635.262 261.479C634.075 260.669 633.686 259.609 633.439 258.255C634.453 253.965 640.415 255.4 644.092 255.523C644.528 250.85 644.88 248.99 646.771 244.764C649.917 242.559 651.698 240.932 655.149 238.835L654.934 197.18C645.127 197.041 635.309 197.197 625.503 197.182C622.519 197.178 619.472 197.266 619.026 193.523C619.451 190.153 648.357 163.24 652.896 158.8C657.844 158.492 666.059 158.773 671.228 158.784L706.6 158.796L819.676 158.829C821.519 155.272 824.151 149.528 827.087 146.966Z" fill="#CDC2C7"/>
<path d="M805.393 197.619L894.396 197.673L894.427 235.386C864.939 235.707 835.108 235.479 805.593 235.461C805.351 222.686 805.299 210.388 805.393 197.619Z" fill="white"/>
<path d="M816.235 203.73C823.421 203.639 862.811 202.738 866.95 204.68C867.87 205.112 868.022 205.309 868.337 206.277C868.978 208.247 868.605 224.296 867.617 225.951C866.935 227.098 866.278 227.232 865.091 227.608C850.861 227.573 836.642 227.683 822.412 227.745C820.668 227.83 814.901 227.448 813.829 226.111C811.082 222.698 812.232 211.962 812.353 207.861C812.401 207.783 812.453 207.705 812.5 207.627L812.763 207.245C814.108 205.241 814.197 205.081 816.235 203.73Z" fill="#CDC2C7"/>
<path d="M817.538 209.663L863.063 209.596C862.806 213.666 862.696 217.762 862.564 221.84C847.757 222.127 832.393 221.918 817.543 221.898C817.48 217.867 817.538 213.706 817.538 209.663Z" fill="white"/>
<path d="M829.004 154.084L887.536 191.823C880.192 191.584 872.25 191.741 864.86 191.763C845.95 191.795 826.83 191.969 807.941 191.724C814.376 180.526 822.381 164.286 829.004 154.084Z" fill="white"/>
<path d="M860.778 276.02C861.734 277.327 861.298 307.264 861.288 311.173C848.251 321.207 835.36 330.723 822.123 340.479L821.761 340.131C821.356 337.721 821.519 331.381 821.525 328.71L821.624 305.569C833.7 295.733 848.156 285.458 860.778 276.02Z" fill="white"/>
<path d="M860.684 361.441C861.724 362.927 861.293 391.507 861.288 395.583C848.261 405.576 835.292 415.296 822.008 424.947C821.157 423.741 821.483 394.263 821.477 390.089C825.391 387.584 830.869 383.344 834.741 380.52L860.684 361.441Z" fill="white"/>
<path d="M860.573 319.317C861.739 320.383 861.267 349.59 861.267 353.406C851.26 362.03 833.38 374.384 822.212 382.568C822.186 382.542 822.155 382.519 822.128 382.489C820.973 381.048 821.54 352.13 821.54 348.124C834.162 338.379 847.72 328.971 860.573 319.317Z" fill="white"/>
<path d="M850.383 241.164L861.225 241.348L861.261 268.049C853.34 274.964 837.13 286.647 828.285 293.11L821.535 298.186L821.524 262.478C824.923 259.794 847.678 242.425 850.383 241.164Z" fill="white"/>
<path d="M860.421 403.895L860.778 404.026C861.477 405.423 861.204 434.072 861.198 437.749L822.375 466.473L822.023 466.407C821.356 465.52 821.561 436.036 821.551 432.446C834.105 423.858 848.082 413.014 860.421 403.895Z" fill="white"/>
<path d="M660.917 164.822L693.368 164.778C700.942 172.641 711.201 182.975 718.224 191.179C709.074 191.705 695.805 191.363 686.266 191.42C677.736 182.687 669.641 173.341 660.917 164.822Z" fill="white"/>
<path d="M741.499 164.852C751.831 164.638 763.188 164.851 773.588 164.859C781.047 173.617 791.222 182.266 798.56 191.311L766.665 191.41C758.061 182.707 750.056 173.449 741.499 164.852Z" fill="white"/>
<path d="M701.468 164.839C712.099 164.616 723.02 164.746 733.672 164.754C737.601 169.437 756.427 188.21 758.066 191.262L726.781 191.229C718.119 182.783 709.862 173.616 701.468 164.839Z" fill="white"/>
<path d="M860.41 445.923L861.088 446.436C860.857 457.554 861.125 469.405 861.188 480.575L822.507 480.556L821.96 480.285C821.377 478.929 821.614 475.847 821.645 474.205C825.306 471.936 830.848 467.602 834.546 464.907L860.41 445.923Z" fill="white"/>
<path d="M653.452 166.081C655.732 166.789 675.041 188.092 678.119 191.403C669.804 191.471 661.436 191.316 653.116 191.209C644.916 191.008 636.286 191.222 628.05 191.311C636.754 183.126 645.032 174.561 653.452 166.081Z" fill="white"/>
<path d="M781.609 164.927C793.154 164.706 804.873 164.822 816.429 164.837L808.524 178.741C806.88 181.705 805.33 184.722 803.76 187.73C796.033 180.548 789.21 172.29 781.609 164.927Z" fill="white"/>
<path d="M821.351 241.346C827.57 241.213 834.205 241.328 840.45 241.333L831.652 247.524C828.316 250.143 824.897 252.706 821.519 255.272C821.351 250.705 821.383 245.932 821.351 241.346Z" fill="white"/>
<path d="M656.945 245.076C662.392 244.944 664.688 251.218 666.174 255.486L660.633 255.571L650.18 255.567C651.735 250.105 652.039 248.234 656.945 245.076Z" fill="white"/>
<path d="M738.221 358.858C755.146 357.917 776.052 367.734 782.297 384.428C786.242 394.973 782.076 401.684 777.732 410.92C781.514 416.078 789.793 426.304 788.443 432.658C785.627 445.931 757.488 443.358 748.574 441.963C748.706 452.319 742.465 450.257 741.872 453.121C741.32 455.779 743.984 457.843 742.213 462.072C741.173 464.562 739.119 466.215 736.645 467.167C731.592 469.109 727.001 468.08 722.258 465.973C721.827 466.494 720.682 468.335 720.241 468.997C721.292 469.694 722.736 470.631 723.545 471.473C739.75 488.358 726.907 486.66 712.115 486.426C709.604 486.387 706.521 486.399 703.984 486.141C698.91 484.949 695.774 482.738 691.892 479.576C686.902 479.462 684.79 479.766 680.042 480.993C676.134 482.004 670.398 486.908 667.178 486.218C665.513 485.169 666.054 485.748 665.124 484.035C665.76 476.736 684.564 473.81 690.679 473.473C694.046 467.553 697.308 461.764 700.512 455.754C691.204 451.579 685.615 440.598 696.451 434.42C698.794 426.517 693.526 426.933 704.236 421.305L703.947 421.086C697.155 415.871 687.259 405.777 685.92 397.075C684.16 385.636 703.816 383.315 711.495 382.601C718.03 368.338 720.278 360.2 738.221 358.858Z" fill="#CDC2C7"/>
<path d="M739.035 364.914C753.065 364.112 771.161 372.226 776.666 385.839C780.637 395.663 774.539 403.29 770.583 411.915C774.822 416.472 779.208 422.509 781.882 428.121C783.642 432.171 782.155 433.831 778.205 435.058C766.066 438.825 746.426 437.589 735.059 432.008L735.379 431.746C737.533 431.025 738.925 430.367 740.212 428.492C741.304 422.743 732.044 420.842 728.204 418.476C724.574 416.241 719.71 414.999 718.145 420.482C718.444 422.48 718.303 421.851 719.668 423.545C718.113 423.733 715.02 421.913 713.764 421.027C704.603 414.553 693.609 405.869 691.314 394.278C698.762 389.945 706.636 389.225 714.972 388.46C723.456 374.991 719.826 366.585 739.035 364.914Z" fill="white"/>
<path d="M705.638 427.445C716.338 426.84 721.707 433.289 731.256 437.118C733.914 438.181 742.077 441.286 742.833 443.22C742.035 449.484 736.309 445.889 733.315 449.527C730.794 452.584 737.003 455.394 737.097 459.076C736.787 460.005 736.556 460.436 735.784 461.007C729.097 465.956 725.468 458.399 721.255 457.929C717.982 459.024 716.328 464.102 714.411 467.682C711.831 471.851 709.268 476.439 706.784 480.696C701.568 479.597 700.06 478.805 696.31 475.086C699.708 468.751 703.648 462.318 707.209 456.148C712.661 446.699 699.808 451.933 697.481 446.715C693.489 437.749 701.494 441.205 704.635 439.971C708.428 435.597 701.977 434.777 702.292 429.88C703.248 428.375 704.047 428.166 705.638 427.445Z" fill="white"/>
<path d="M717.278 474.696C718.844 475.547 722.815 478.509 722.631 480.441L721.318 480.554L713.99 480.553C714.888 478.685 716.223 476.522 717.278 474.696Z" fill="white"/>
<path d="M496.628 284.775C497.392 281.847 499.115 274.164 500.859 272.294L501.608 272.357C501.984 273.646 501.364 275.09 500.971 276.465C499.626 280.991 498.288 285.449 496.845 289.947C495.132 285.878 493.366 280.801 491.773 276.586C489.955 280.799 488.234 285.327 486.528 289.608C485.273 287.067 480.724 274.843 480.525 272.11L481.872 272.395C483.347 274.197 485.819 282.814 486.59 285.299C488.282 280.569 489.742 276.502 491.796 271.895C493.625 276.039 495.116 280.491 496.628 284.775Z" fill="#281424"/>
<path d="M633.424 278.599C633.345 275.883 633.124 273.687 633.933 271.07L634.422 271.305C635.856 275.957 635.383 282.428 634.784 287.258L634.28 287.961L633.319 287.755C622.971 291.899 622.818 275.031 633.424 278.599Z" fill="#281424"/>
<path d="M632.573 286.671C626.154 287.348 625.86 281.479 630.24 279.533C631.884 279.529 632.163 279.843 633.439 280.838C633.318 283.169 633.361 284.486 632.573 286.671Z" fill="white"/>
<path d="M633.424 278.599C633.345 275.883 633.124 273.687 633.933 271.07L634.422 271.305C635.856 275.957 635.383 282.428 634.784 287.258L634.28 287.961L633.319 287.755L632.573 286.671C633.361 284.486 633.319 283.17 633.439 280.838L633.424 278.599Z" fill="#281424"/>
<path d="M530.706 279.244L531.242 278.13L531.993 278.216C532.66 280.044 532.886 286.76 531.815 288.299C531.037 288.017 531.252 288.221 530.759 287.657C519.336 292.562 519.392 273.537 530.706 279.244Z" fill="#281424"/>
<path d="M530.049 286.155C528.521 286.828 528.211 287.026 526.525 286.74C524.034 285.137 523.698 283.623 524.889 280.848C527.313 278.668 528.584 279.472 530.895 281.37C530.68 282.802 530.448 284.831 530.049 286.155Z" fill="white"/>
<path d="M530.706 279.244L531.242 278.13L531.993 278.216C532.66 280.044 532.886 286.76 531.814 288.299C531.037 288.017 531.252 288.221 530.758 287.657L529.766 287.045L530.049 286.154C530.449 284.831 530.68 282.801 530.895 281.369L530.706 279.244Z" fill="#281424"/>
<path d="M755.876 278.209C758.66 277.265 761.68 278.741 762.652 281.516C763.623 284.291 762.179 287.33 759.416 288.329C756.611 289.342 753.517 287.872 752.535 285.058C751.553 282.243 753.05 279.166 755.876 278.209Z" fill="#281424"/>
<path d="M757.089 279.094C762.215 280.686 761.632 284.414 758.281 287.567C753.296 285.82 752.923 282.165 757.089 279.094Z" fill="white"/>
<path d="M679.643 277.799C687.432 277.525 688.031 284.149 683.036 288.686C675.141 288.709 673.917 281.893 679.643 277.799Z" fill="#281424"/>
<path d="M680.499 278.995C685.457 280.373 685.42 284.167 682.043 287.353C676.832 286.286 677.132 282.212 680.499 278.995Z" fill="white"/>
<path d="M507.367 277.866C510.32 277.837 514.812 279.19 512.77 282.875C511.149 284.05 508.235 284.366 506.177 284.751L505.845 285.403L505.77 285.148L506.226 284.823L506.501 285.959C508.944 287.601 509.506 287.355 512.13 286.482L512.456 286.105L513.118 286.329C512.968 287.521 513.034 287.134 512.048 288.192C505.454 291.142 499.792 282.778 507.367 277.866Z" fill="#281424"/>
<path d="M507.188 279.476C508.914 279.448 509.869 279.554 511.22 280.592C511.579 281.901 511.636 281.342 511.02 282.578C509.35 282.638 507.756 282.887 506.295 282.205C506.087 280.802 506.352 280.919 507.188 279.476Z" fill="white"/>
<path d="M618.884 304.012C625.765 303.618 627.33 308.384 623.328 313.34C616.562 314.414 615.622 308.408 618.884 304.012Z" fill="#281424"/>
<path d="M619.719 305.122C624.468 305.67 624.147 308.48 622.671 312.184C617.849 311.992 618.579 308.488 619.719 305.122Z" fill="white"/>
<path d="M547.494 277.85C550 278.101 554.018 279.426 552.684 282.639C550.74 284.098 548.082 283.859 545.498 284.892L545.603 285.625C548.266 287.606 548.434 287.488 551.67 286.677L551.996 286.394L552.694 286.59C552.474 288.722 549.191 289.219 547.604 288.713C541.616 286.801 542.262 280.315 547.494 277.85Z" fill="#281424"/>
<path d="M546.916 279.509C548.718 279.565 550.766 279.855 550.992 282.002L549.874 282.312C548.387 282.533 546.99 282.913 545.614 282.459C545.556 280.967 545.939 280.941 546.916 279.509Z" fill="white"/>
<path d="M569.944 303.921C576.552 303.663 577.471 308.98 573.894 313.494C566.955 314.473 567.202 308.277 569.944 303.921Z" fill="#281424"/>
<path d="M570.743 305.061C575.207 305.931 574.477 309.035 573.238 312.304C568.741 311.793 569.781 308.21 570.743 305.061Z" fill="white"/>
<path d="M693.426 278.121C694.471 278.077 695.59 278.929 695.8 278.886C696.478 278.744 698.883 278.241 699.629 278.085L700.265 278.804L700.302 278.727C699.093 279.659 697.969 280.384 697.092 281.625C698.742 282.794 699.776 283.426 701.069 284.994C701.788 288.698 697.864 290.131 695.07 287.459L695.133 286.832C696.373 286.479 696.861 286.839 698.085 287.356L698.537 287.55C699.256 286.386 699.12 286.994 699.036 285.679C696.929 283.668 694.749 280.185 692.212 279.718C690.132 281.325 690.574 285.131 689.843 288.272L689.224 288.515C688.294 287.379 687.958 279.776 689.444 278.491C691.13 278.735 691.435 278.698 693.032 278.237L693.426 278.121Z" fill="#281424"/>
<path d="M679.732 303.558C682.805 303.282 687.637 304.266 685.762 308.355C684.265 309.168 681.265 308.829 679.096 309.051L678.634 309.689C679.306 311.58 680.21 312.063 682.095 312.581C682.836 312.333 683.577 312.109 684.323 311.878L684.811 312.428C680.099 316.901 672.141 310.452 679.732 303.558Z" fill="#281424"/>
<path d="M641.87 277.81C644.727 278.115 646.634 278.694 646.976 281.926C645.452 284.734 642.112 282.72 639.632 284.315C639.879 285.662 640.2 285.651 641.213 286.774C642.579 287.39 643.53 287.122 644.995 286.928L645.505 286.533L645.815 287.115L645.016 288.14C638.818 291.321 633.644 282.02 641.87 277.81Z" fill="#281424"/>
<path d="M697.386 303.093C698.742 303.33 698.925 303.395 700.134 304.054C701.515 305.696 701.909 310.426 702.13 312.636C700.596 313.734 695.369 314.034 693.61 312.951C693.032 305.931 697.365 309.654 699.456 306.444L699.141 305.398C697.691 304.717 696.43 305.634 694.335 305.314C695.086 304.01 696.005 303.764 697.386 303.093Z" fill="#281424"/>
<path d="M696.703 308.464C698.342 308.682 698.232 308.418 699.44 309.384C699.382 311.03 699.214 310.771 698.19 312.343C696.272 312.097 696.519 312.441 695.464 311.294C695.443 309.95 695.905 309.567 696.703 308.464Z" fill="white"/>
<path d="M614.918 277.569C618.527 279.478 617.802 277.107 621.321 278.232C624.147 280.115 623.743 285.16 622.372 287.817L621.82 287.753C621.169 285.754 621.326 282.926 621.326 280.758C620.307 279.597 619.467 279.474 618.085 279.508C615.601 281.517 617.198 285.441 616.142 288.427L615.386 288.375C614.246 286.446 614.823 280.258 614.918 277.569Z" fill="#281424"/>
<path d="M592.552 268.609L593.744 269.188C595.026 271.422 593.813 282.72 594.364 286.715C595 287.233 595.268 287.19 596.077 287.282L596.35 287.311L596.565 288.503C594.317 288.634 594.559 288.957 592.841 288.03C591.601 285.861 591.964 271.307 592.552 268.609Z" fill="url(#paint0_linear_280_4513)"/>
<path d="M562.438 301.668C564.445 302.109 565.049 302.229 566.157 303.912C564.86 304.901 563.746 302.873 561.277 304.45C562.113 307.637 567.076 307.474 566.477 311.669C565.5 313.2 564.818 313.359 563.189 314.067C561.829 313.674 560.2 313.322 559.533 311.949C560.799 311.191 563.578 312.205 564.912 311.056C563.688 308.059 558.861 308.305 559.223 304.353C560.227 302.717 560.752 302.558 562.438 301.668Z" fill="#281424"/>
<path d="M562.989 277.849C565.29 277.701 566.451 277.49 568.127 279.335C566.582 280.665 564.455 278.435 562.89 280.679C564.523 283.221 568.095 282.359 568.872 285.884C568.394 287.485 567.853 287.763 566.577 288.767C563.798 288.759 563.016 288.818 560.762 287.3L561.035 286.919C563.22 286.936 564.644 286.975 566.803 286.659L567.213 285.962C565.658 283.379 562.207 284.364 560.941 281.319C561.261 279.554 561.807 279.138 562.989 277.849Z" fill="#281424"/>
<path d="M704.078 303.414L705.523 303.971C706.983 305.919 707.986 309.009 708.884 311.347C709.509 309.036 710.003 306.143 711.731 304.533L712.272 304.829C712.456 307.016 711.322 309.215 710.481 311.285C709.699 313.263 708.548 317.751 706.016 317.032C706.395 316.362 708.102 313.403 707.865 312.845C706.778 310.341 704.357 306.095 704.078 303.414Z" fill="#281424"/>
<path d="M591.774 303.721C592.263 303.778 592.946 303.967 593.445 304.084C594.684 305.589 595.352 308.209 595.982 310.132C596.623 308.016 597.143 305.57 598.871 304.177C599.879 305.953 597.594 310.499 596.828 312.318C596.181 314.234 594.774 317.378 592.536 317.606C591.885 316.896 592.132 317.318 591.974 316.205C593.261 315.6 593.419 315.513 594.269 314.377C595.246 311.038 593.051 307.256 591.774 303.721Z" fill="#281424"/>
<path d="M718.912 277.895C722.841 278.576 719.148 284.034 721.638 286.767C725.331 286.69 724.874 281.713 725.315 278.676L726.066 278.228L726.923 278.806C726.828 282.555 727.033 286.446 723.183 288.437C717.804 288.327 718.77 281.599 718.912 277.895Z" fill="#281424"/>
<path d="M653.946 302.388C656.021 303.269 656.31 303.604 657.954 305.181C658.558 308.372 653.626 307.247 652.265 310.344L652.854 311.571C654.435 312.721 653.883 312.398 656.1 312.418L656.625 311.85C655.932 313.131 656.357 312.7 654.792 313.374C648.709 313.004 650.5 305.48 653.946 302.388Z" fill="#292628"/>
<path d="M653.983 303.433C655.411 304.1 655.842 304.211 656.64 305.596C656.572 307.287 656.819 306.655 655.679 307.96C653.815 307.844 653.21 308.1 652.149 306.667C652.318 305.235 653.063 304.584 653.983 303.433Z" fill="white"/>
<path d="M608.273 270.962C609.313 271.185 609.277 271.138 610.001 271.892C610.873 275.763 609.156 284.546 611.183 286.618L613.51 286.533L613.988 287.357C613.079 288.002 612.733 288.104 611.693 288.528C610.7 288.388 610.001 288.479 609.366 287.608C607.244 284.683 608.158 274.613 608.273 270.962Z" fill="url(#paint1_linear_280_4513)"/>
<path d="M671.58 296.658C671.974 296.814 672.452 297.002 673.019 297.224C674.889 300.582 672.236 308.349 673.964 311.524C674.668 311.905 675.12 312.084 675.903 312.251L675.824 313.53C673.628 313.761 674.012 314.065 672.446 313.106C670.44 309.989 671.196 300.554 671.58 296.658Z" fill="#281424"/>
<path d="M704.167 274.197C705.36 274.474 704.824 274.218 705.791 275.085L705.696 276.986C706.941 279.226 707.046 277.116 709.052 278.812C708.27 280.61 707.834 278.681 705.796 280.387C704.903 283.112 705.67 286.09 707.808 287.94L707.876 288.397C706.647 288.944 707.172 288.848 705.67 288.465C702.255 285.688 704.934 284.173 703.721 280.041L702.292 279.5L702.192 278.601L703.474 278.214C704.188 277.305 704.057 275.586 704.167 274.197Z" fill="#281424"/>
<path d="M733.268 277.844C734.686 277.888 735.28 278.104 736.624 278.465L736.982 279.154C732.68 280.546 726.944 282.643 733.551 286.932C735.043 287.332 735.91 286.936 737.37 286.51L737.916 287.516L737.502 288.274C730.221 290.012 723.934 281.696 733.268 277.844Z" fill="#281424"/>
<path d="M572.618 274.81C574.173 276.004 573.758 275.931 574.446 278.187C575.869 278.378 576.384 278.392 577.75 278.94L577.45 279.642C576.457 279.773 575.491 279.884 574.498 279.989C573.238 281.584 573.674 285.552 574.939 287.002L576.704 287.047C576.72 287.309 576.589 287.898 576.536 288.188C575.223 288.747 575.06 288.789 573.647 288.573C570.984 286.294 573.206 283.506 572.024 280.16C571.131 279.954 570.942 279.947 570.128 279.45L570.27 278.657L571.914 278.097C572.245 276.948 572.408 275.978 572.618 274.81Z" fill="#281424"/>
<path d="M612.896 299.251C614.309 299.262 614.887 299.134 616.084 299.878C614.44 301.338 613.742 301.269 612.933 303.062C613.873 304.966 613.647 302.982 615.827 304.509C615.26 305.83 615.202 305.527 613.658 306.277C612.849 307.461 613.159 309.57 613.211 311.148C613.185 312.642 613.4 312.223 612.644 313.285L611.982 312.987C610.537 308.271 609.881 303.42 612.896 299.251Z" fill="#281424"/>
<path d="M586.511 270.039C590.125 271.166 587.173 283.09 588.308 286.328C588.675 287.392 589.447 286.375 590.167 288.529C588.665 288.69 588.434 288.726 586.989 288.328C585.833 286.243 586.28 272.99 586.511 270.039Z" fill="#281424"/>
<path d="M740.9 274.22C741.93 274.516 741.872 274.504 742.565 275.337C742.439 276.74 742.344 276.886 743.054 278.015C744.162 278.155 744.461 278.14 745.47 278.592L745.381 279.391C744.472 279.536 743.931 279.673 743.038 279.916C741.525 283.422 741.856 286.615 745.922 287.595C745.286 288.708 744.188 289.175 742.985 288.945C740.411 286.782 741.278 283.44 740.527 280.078L739.282 279.542L739.104 278.821C741.357 277.549 740.816 276.635 740.9 274.22Z" fill="#281424"/>
<path d="M669.773 277.888L672.898 277.877C673.707 278.35 674.222 278.523 674.611 279.367C672.347 279.766 670.697 279.864 668.932 281.301C667.666 283.625 668.664 285.93 670.844 287.215C671.69 287.061 672.515 286.962 673.366 286.853L673.922 287.417C669.815 291.805 662.261 284.352 669.773 277.888Z" fill="#281424"/>
<path d="M689.029 297.112L689.964 297.472C692.67 300.87 687.937 309.282 692.848 313.637C690.705 313.802 691.467 314.026 689.865 312.976C687.995 310.103 688.882 301.044 689.029 297.112Z" fill="#281424"/>
<path d="M766.539 278.758C768.388 279.286 769.953 277.073 772.784 278.625C773.74 280.41 773.688 286.701 772.632 288.25L771.917 288.358C770.872 284.886 772.726 281.671 770.289 279.749C768.881 279.674 768.072 280.349 766.948 281.21L766.539 278.758Z" fill="#281424"/>
<path d="M710.886 277.541C712.015 277.872 712.257 278.537 712.493 278.629C713.906 279.187 714.831 277.503 716.916 278.513C715.298 280.516 714.248 279.318 712.561 282.018C712.677 284.559 712.772 285.452 712.241 287.906L711.789 288.179C710.318 285.281 710.749 280.772 710.886 277.541Z" fill="#281424"/>
<path d="M539.867 277.72C540.981 277.926 541.038 278.022 541.979 278.709L541.958 279.421C539.342 281.343 539.174 279.753 538.071 280.824C536.805 282.056 537.083 286.842 537.109 288.673C536.195 288.371 536.201 288.425 535.602 287.607C535.323 284.767 534.788 281.367 535.765 278.709C536.589 278.834 537.398 278.964 538.223 279.107L539.867 277.72Z" fill="#281424"/>
<path d="M653.914 277.776C654.965 278.573 654.776 278.181 654.975 279.249C653.62 279.729 653.095 279.881 651.876 280.695C650.39 283.867 653.237 286.568 649.996 288.982C649.575 286.042 648.336 280.605 650.679 278.746C652.06 278.867 652.396 278.634 653.568 277.976L653.914 277.776Z" fill="#281424"/>
<path d="M643.776 299.682C645.032 301.681 644.086 301.847 644.685 304.694C646.734 304.193 647.206 304.01 648.751 304.92C649.702 306.572 650.6 310.621 649.381 312.186C648.604 310.747 648.782 308.29 648.777 306.574C647.569 305.279 647.7 305.156 646.109 305.17C644.36 306.986 644.37 309.923 644.034 312.588C643.65 307.859 643.677 304.45 643.776 299.682Z" fill="#292628"/>
<path d="M584.962 303.638C585.618 303.867 586.06 304.199 586.653 304.567C588.04 304.106 589.19 304.144 590.635 304.093L590.787 304.776C589.201 306.219 588.649 304.897 586.538 307.363C586.585 309.421 586.758 310.938 586.039 312.894L585.529 312.489C584.536 309.387 584.841 306.879 584.962 303.638Z" fill="#281424"/>
<path d="M577.566 303.678L579.178 304.503C580.991 304.25 581.353 304.148 583.139 304.668L583.255 305.241C580.886 305.458 580.334 305.65 579.068 307.693C579.226 310.089 579.294 310.639 578.637 312.917L578.144 312.648C577.151 309.348 577.429 307.097 577.566 303.678Z" fill="#281424"/>
<path d="M631.296 303.63C631.575 303.732 631.759 304.017 632 304.277C631.317 305.334 630.193 306.006 629.148 306.764C627.593 309.585 630.503 310.998 627.577 313.806C627.057 310.802 626.07 306.795 628.092 304.621C629.395 304.503 629.768 304.297 630.934 303.792L631.296 303.63Z" fill="#281424"/>
<path d="M580.77 278.033C581.332 278.273 581.516 278.476 582.004 278.845C582.692 281.359 581.947 282.442 582.088 284.878C582.272 288.173 583.029 286.228 584.878 287.919L582.74 288.656C579.036 287.921 580.555 281.145 580.77 278.033Z" fill="url(#paint2_linear_280_4513)"/>
<path d="M747.886 277.947L749.042 278.289C750.439 280.324 749.719 286.241 749.567 288.902L748.353 288.431C747.324 286.488 747.797 280.424 747.886 277.947Z" fill="#281424"/>
<path d="M766.949 281.21C767.017 282.615 767.232 287.575 766.313 288.354C764.842 286.079 764.217 281.101 765.399 278.709L766.539 278.758L766.949 281.21Z" fill="#281424"/>
<path d="M776.456 285.536C780.464 286.318 777.885 290.406 776.561 292.49L776.146 292.013C776.178 290.433 776.141 286.66 776.456 285.536Z" fill="#281424"/>
</g>
<defs>
<linearGradient id="paint0_linear_280_4513" x1="596.014" y1="278.926" x2="592.447" y2="278.77" gradientUnits="userSpaceOnUse">
<stop stop-color="#352A34"/>
<stop offset="1" stop-color="#442639"/>
</linearGradient>
<linearGradient id="paint1_linear_280_4513" x1="613.344" y1="280.19" x2="607.769" y2="279.515" gradientUnits="userSpaceOnUse">
<stop stop-color="#31232D"/>
<stop offset="1" stop-color="#4B2940"/>
</linearGradient>
<linearGradient id="paint2_linear_280_4513" x1="580.641" y1="283.852" x2="583.147" y2="283.609" gradientUnits="userSpaceOnUse">
<stop stop-color="#1C0D1F"/>
<stop offset="1" stop-color="#2C1E21"/>
</linearGradient>
<clipPath id="clip0_280_4513">
<rect width="956" height="538" fill="white"/>
</clipPath>
</defs>
</svg>
