<svg width="60" height="38" viewBox="0 0 60 38" fill="none" xmlns="http://www.w3.org/2000/svg">
<g clip-path="url(#clip0_314_2230)">
<path d="M55.7692 0H4.23077C1.89792 0 0 1.87515 0 4.18V33.896C0 36.2009 1.89792 38.076 4.23077 38.076H55.7692C58.1019 38.076 60 36.2009 60 33.896V4.18C60 1.87515 58.1019 0 55.7692 0Z" fill="white"/>
<path d="M12.9528 12.9088C12.3067 12.4699 11.4636 12.25 10.4235 12.25H6.3969C6.07806 12.25 5.9019 12.4075 5.86844 12.7223L4.23267 22.8667C4.21567 22.9664 4.2409 23.0575 4.30813 23.1403C4.37498 23.2234 4.45906 23.2647 4.55975 23.2647H6.47237C6.80783 23.2647 6.99221 23.1075 7.02606 22.7923L7.47898 20.0574C7.49552 19.9249 7.55452 19.8171 7.65521 19.7341C7.75583 19.6513 7.88167 19.597 8.03267 19.5722C8.18367 19.5476 8.32606 19.5352 8.46052 19.5352C8.5946 19.5352 8.7539 19.5436 8.93875 19.5601C9.12313 19.5766 9.24067 19.5847 9.29106 19.5847C10.7338 19.5847 11.8663 19.183 12.6885 18.3789C13.5104 17.575 13.9218 16.4603 13.9218 15.0346C13.9218 14.0566 13.5985 13.348 12.9528 12.9085V12.9088ZM10.8766 15.9548C10.7924 16.5351 10.5746 16.9162 10.2223 17.0986C9.8699 17.2812 9.3666 17.3719 8.71237 17.3719L7.88183 17.3969L8.30975 14.7363C8.34314 14.5542 8.45214 14.463 8.63683 14.463H9.11513C9.7859 14.463 10.2728 14.5585 10.5748 14.7488C10.8766 14.9396 10.9773 15.3418 10.8766 15.9548Z" fill="#003087"/>
<path d="M55.4452 12.25H53.583C53.398 12.25 53.2891 12.3412 53.2559 12.5235L51.62 22.8671L51.5947 22.9168C51.5947 23.0001 51.6283 23.0785 51.6956 23.1531C51.7623 23.2275 51.8466 23.2649 51.9472 23.2649H53.6083C53.9266 23.2649 54.1029 23.1077 54.1369 22.7926L55.7726 12.623V12.5983C55.7725 12.3663 55.6631 12.2502 55.4452 12.2502V12.25Z" fill="#009CDE"/>
<path d="M32.9466 16.2534C32.9466 16.1707 32.9129 16.0918 32.8462 16.0173C32.7789 15.9427 32.7033 15.9053 32.6196 15.9053H30.6819C30.4969 15.9053 30.346 15.9886 30.2288 16.1539L27.5612 20.0329L26.4539 16.3032C26.3696 16.0381 26.1852 15.9053 25.9002 15.9053H24.0125C23.9285 15.9053 23.8529 15.9427 23.7862 16.0173C23.7189 16.0918 23.6855 16.1707 23.6855 16.2534C23.6855 16.2868 23.8492 16.7755 24.1762 17.7204C24.5033 18.6654 24.8557 19.6848 25.2332 20.7789C25.6108 21.8729 25.8077 22.4533 25.8246 22.5192C24.4488 24.3759 23.7611 25.3705 23.7611 25.5029C23.7611 25.7186 23.8701 25.8262 24.0882 25.8262H26.026C26.2105 25.8262 26.3615 25.7435 26.4791 25.5776L32.8965 16.4272C32.9299 16.3943 32.9466 16.3366 32.9466 16.2533V16.2534Z" fill="#003087"/>
<path d="M50.9913 15.9056H49.0786C48.8435 15.9056 48.7013 16.1791 48.6509 16.7261C48.2143 16.0634 47.4178 15.7314 46.2599 15.7314C45.0519 15.7314 44.0242 16.1791 43.1771 17.0742C42.3297 17.9694 41.9062 19.0222 41.9062 20.2321C41.9062 21.2103 42.1956 21.9893 42.7743 22.5692C43.3531 23.1498 44.129 23.4395 45.1025 23.4395C45.5889 23.4395 46.0838 23.3399 46.5871 23.1411C47.0905 22.9422 47.4844 22.6772 47.7701 22.3455C47.7701 22.3621 47.753 22.4365 47.7198 22.5691C47.6859 22.7019 47.6694 22.8017 47.6694 22.8675C47.6694 23.133 47.7782 23.2653 47.9966 23.2653H49.7333C50.0516 23.2653 50.2364 23.1081 50.2866 22.7928L51.3185 16.3033C51.335 16.2038 51.3099 16.1127 51.243 16.0297C51.1756 15.9471 51.0919 15.9056 50.9913 15.9056ZM47.7071 20.8039C47.2793 21.2183 46.7633 21.4255 46.1594 21.4255C45.6726 21.4255 45.2787 21.2931 44.9766 21.0277C44.6744 20.763 44.5234 20.3983 44.5234 19.9336C44.5234 19.3208 44.7332 18.8025 45.1527 18.3797C45.5716 17.957 46.0923 17.7457 46.713 17.7457C47.1824 17.7457 47.5726 17.8825 47.8832 18.1558C48.1933 18.4294 48.3489 18.8066 48.3489 19.2873C48.3489 19.884 48.1349 20.3897 47.7071 20.8039Z" fill="#009CDE"/>
<path d="M22.4025 15.9056H20.4899C20.2547 15.9056 20.1124 16.1791 20.062 16.7261C19.609 16.0634 18.812 15.7314 17.6712 15.7314C16.4632 15.7314 15.4354 16.1791 14.5882 17.0742C13.7408 17.9694 13.3174 19.0222 13.3174 20.2321C13.3174 21.2103 13.6068 21.9893 14.1857 22.5692C14.7645 23.1498 15.5403 23.4395 16.5135 23.4395C16.9831 23.4395 17.4699 23.3399 17.9732 23.1411C18.4765 22.9422 18.8792 22.6772 19.1812 22.3455C19.1138 22.5443 19.0805 22.7184 19.0805 22.8675C19.0805 23.133 19.1895 23.2653 19.4076 23.2653H21.1441C21.4626 23.2653 21.6474 23.1081 21.6978 22.7928L22.7295 16.3033C22.7461 16.2038 22.7209 16.1127 22.6541 16.0297C22.5869 15.9471 22.5032 15.9056 22.4025 15.9056ZM19.1183 20.8162C18.6904 21.2229 18.1658 21.4255 17.5455 21.4255C17.0586 21.4255 16.6685 21.2931 16.3752 21.0277C16.0814 20.763 15.9347 20.3983 15.9347 19.9336C15.9347 19.3208 16.1443 18.8025 16.5639 18.3797C16.9831 17.957 17.5032 17.7457 18.1242 17.7457C18.5938 17.7457 18.9838 17.8825 19.2945 18.1559C19.6047 18.4294 19.7601 18.8067 19.7601 19.2874C19.7601 19.9007 19.5462 20.4105 19.1183 20.8162Z" fill="#003087"/>
<path d="M41.5417 12.9088C40.8957 12.4699 40.0528 12.25 39.0125 12.25H35.011C34.6753 12.25 34.4906 12.4075 34.4574 12.7223L32.8215 22.8667C32.8045 22.9665 32.8297 23.0576 32.897 23.1404C32.9635 23.2234 33.0479 23.2647 33.1486 23.2647H35.2122C35.4135 23.2647 35.5476 23.1571 35.6149 22.9415L36.0679 20.0574C36.0845 19.9249 36.1433 19.8171 36.2441 19.7341C36.3448 19.6513 36.4705 19.5971 36.6216 19.5722C36.7725 19.5476 36.9149 19.5352 37.0495 19.5352C37.1835 19.5352 37.3429 19.5436 37.5275 19.5601C37.712 19.5766 37.8299 19.5847 37.8798 19.5847C39.3229 19.5847 40.4551 19.183 41.2773 18.3789C42.0995 17.575 42.5105 16.4603 42.5105 15.0346C42.5106 14.0567 42.1875 13.348 41.5417 12.9085V12.9088ZM38.9622 16.9991C38.593 17.2477 38.0393 17.3719 37.3012 17.3719L36.4959 17.3969L36.9237 14.7363C36.9569 14.5542 37.0659 14.463 37.2508 14.463H37.7036C38.0727 14.463 38.3662 14.4795 38.5847 14.5126C38.8025 14.546 39.0125 14.6493 39.2139 14.8234C39.4152 14.9975 39.5159 15.2503 39.5159 15.5818C39.5159 16.278 39.3311 16.7503 38.9622 16.9991Z" fill="#009CDE"/>
</g>
<defs>
<clipPath id="clip0_314_2230">
<rect width="60" height="38" fill="white"/>
</clipPath>
</defs>
</svg>
